<svg width="290" height="60" fill="none" xmlns="http://www.w3.org/2000/svg"><path fill-rule="evenodd" clip-rule="evenodd" d="M13.85 18.7c0-2.95 1.33-6.05 3.42-8.14L27.41.36v8.5c0 2.9-1.38 6.42-3.4 8.44L13.84 27.5v-8.8zM27.4 59.16L17.21 49a12.93 12.93 0 00-8.43-3.41H.28l10.19 10.14c2.09 2.1 5.2 3.43 8.14 3.43h8.8zM7.98 39.64l5.86 5.96V32.03a12 12 0 00-3.25-7.68l-5.8-5.9v13.58c0 2.6 1.45 5.86 3.2 7.6z" fill="#F26522"/><path fill-rule="evenodd" clip-rule="evenodd" d="M261.63 26.21h4.85V45.6h-4.85v-8.34h-9.5v8.34h-4.85V26.2h4.85v7.17h9.5v-7.17zm-24.32 0h-12.2v3.88h11.23c1.07 0 1.95.87 1.95 1.93v1.73h-8.74c-3.2 0-5.8 2.61-5.8 5.83v.2c0 3.2 2.6 5.82 5.8 5.82h13.57V32.02c0-3.2-2.6-5.8-5.8-5.8zm.98 15.51h-7.76a1.94 1.94 0 01-1.95-1.94v-.2c0-1.07.87-1.95 1.95-1.95h7.76v4.1zm39.06-4.46h-1.76v8.34h-4.86V26.2h4.86v7.17h1.77l6.4-7.17h5.46l-8.18 9.13 8.73 10.26h-6.07l-6.35-8.34zm-64.22-9.39h-8.98v-5.53h14.93v-3.88H199.3V45.6h13.83c4.41 0 7.99-3.57 7.99-7.98v-1.76a8 8 0 00-7.99-7.99zm2.53 9.75a4.1 4.1 0 01-4.1 4.1h-7.41v-9.96h7.41a4.1 4.1 0 014.1 4.1v1.76zm-132.02-5.6v7.76c0 1.08.87 1.94 1.94 1.94h9.58v3.88H84.6a5.83 5.83 0 01-5.82-5.82v-7.76c0-3.2 2.61-5.8 5.81-5.8h10.56v3.88h-9.58c-1.07 0-1.94.86-1.94 1.92zm27.6-5.8h-7.75c-3.2 0-5.81 2.6-5.81 5.8v7.76c0 3.2 2.6 5.82 5.81 5.82h7.76a5.83 5.83 0 005.82-5.82v-7.76c0-3.2-2.61-5.8-5.82-5.8zm.98 13.56c0 1.08-.88 1.94-1.94 1.94h-5.81a1.94 1.94 0 01-1.94-1.94v-7.76c0-1.06.86-1.93 1.94-1.93h5.81c1.06 0 1.94.87 1.94 1.93v7.76zM69.8 26.21h-5.34a5.8 5.8 0 00-3.38 1.1v-3.04c0-1.07.86-1.93 1.93-1.93H73.3v-3.88H62.04a5.82 5.82 0 00-5.81 5.81V39.8c0 3.2 2.6 5.8 5.81 5.8h7.76c3.2 0 5.81-2.6 5.81-5.8v-7.76c0-3.2-2.6-5.82-5.81-5.82zm.97 13.57c0 1.08-.87 1.94-1.94 1.94h-5.81a1.93 1.93 0 01-1.94-1.94v-7.76c0-1.06.87-1.93 1.94-1.93h5.81c1.07 0 1.94.87 1.94 1.93v7.76zm103.35-13.57h17.1v3.88h-6.13v15.5h-4.84V30.1h-6.13v-3.88zM38.4 18.46L27.41 45.6h5.98l2.08-5.82h11.77l2.13 5.82h5.79l-11-27.14H38.4zM36.87 35.9l4.42-12.4 4.54 12.4h-8.96zm90.46-9.7h12.35V45.6h-4.84V30.1h-6.54c-1.07 0-1.94.86-1.94 1.92v7.76c0 3.2-2.61 5.82-5.82 5.82h-1.55v-3.88h.58c1.07 0 1.94-.86 1.94-1.94v-7.76c0-3.2 2.6-5.8 5.82-5.8zm39.22-.01l-7.41.02c-3.2 0-5.82 2.6-5.82 5.8v1.36h-4.07v-7.17h-4.85V45.6h4.85v-8.34h4.07v2.52c0 3.2 2.61 5.82 5.82 5.82l7.4-.02c3.2 0 5.82-2.61 5.82-5.81V32c0-3.2-2.62-5.81-5.81-5.81zm.96 13.57c0 1.08-.86 1.94-1.94 1.94l-5.64.01a1.94 1.94 0 01-1.94-1.94v-7.76c0-1.06.88-1.93 1.94-1.93l5.64-.01c1.08 0 1.94.86 1.94 1.93v7.76z" fill="#636466"/></svg>
