<?xml version="1.0" encoding="utf-8"?>
<!-- Generator: Adobe Illustrator 23.0.1, SVG Export Plug-In . SVG Version: 6.00 Build 0)  -->
<svg version="1.1" id="Capa_1" xmlns="http://www.w3.org/2000/svg" xmlns:xlink="http://www.w3.org/1999/xlink" x="0px" y="0px"
	 viewBox="0 0 512.1 512.1" style="enable-background:new 0 0 512.1 512.1;" xml:space="preserve">
<path d="M498.6,395L395,325.9c-13.2-8.7-30.8-5.8-40.5,6.6l-30.2,38.8c-3.9,5.1-10.9,6.6-16.5,3.5l-5.7-3.2
	c-19-10.4-42.7-23.3-90.5-71s-60.7-71.4-71-90.5l-3.1-5.7c-3.2-5.6-1.7-12.7,3.4-16.6l38.8-30.2c12.4-9.7,15.3-27.4,6.6-40.5
	L117,13.5C108.1,0.1,90.3-4,76.5,4.3l-43.3,26c-13.6,8-23.6,21-27.9,36.2c-15.6,56.9-3.9,155,140.7,299.6
	c115,115,200.6,145.9,259.5,145.9c13.5,0.1,27-1.7,40.1-5.2c15.2-4.3,28.2-14.3,36.2-27.9l26.1-43.3C516.1,421.8,512,404,498.6,395z
	"/>
</svg>
