<svg xmlns="http://www.w3.org/2000/svg" viewBox="0 0 18.88 17.75">
  <path d="M1499.07,181.38h7.39v-7.309h-7.39v7.309Zm0.61-6.7h6.16v6.091h-2.77v-3.833l1.32,1.307,0.44-.43-2.07-2.043-2.06,2.043,0.43,0.43,1.33-1.307v3.833h-2.78V174.68Zm17.07,2.427a9.11,9.11,0,0,0-2.86-2.464,1.524,1.524,0,0,0-1.14-.2,1.054,1.054,0,0,0-.62.471,8.64,8.64,0,0,1-.8.873,1.334,1.334,0,0,1-1.93-.191l-3.54-3.5a1.31,1.31,0,0,1-.2-1.915,10.039,10.039,0,0,1,.89-0.791,0.994,0.994,0,0,0,.47-0.608,1.455,1.455,0,0,0-.2-1.136,9.154,9.154,0,0,0-2.49-2.825,1.518,1.518,0,0,0-1.78.266l-0.78.772c-1.86,1.837-1.92,4.082-.18,6.491a0.311,0.311,0,0,0,.43.07,0.3,0.3,0,0,0,.07-0.425c-1.59-2.2-1.55-4.062.11-5.706l0.78-.772a0.9,0.9,0,0,1,1.06-.158,8.813,8.813,0,0,1,2.25,2.591,0.92,0.92,0,0,1,.14.669,0.411,0.411,0,0,1-.21.255l-0.05.032a9,9,0,0,0-1.01.932,2.366,2.366,0,0,0-.38.812,4.306,4.306,0,0,1-.46-1.487,0.315,0.315,0,0,0-.34-0.272,0.3,0.3,0,0,0-.27.335,5.8,5.8,0,0,0,1.96,3.554,0.226,0.226,0,0,0,.02.013l3.27,3.233c0.01,0.013.03,0.024,0.04,0.038s0.02,0.033.03,0.047a6.471,6.471,0,0,0,3.58,1.609l0.03,0a0.3,0.3,0,0,0,.03-0.608,5.464,5.464,0,0,1-1.71-.475,2.562,2.562,0,0,0,.72-0.349,9.448,9.448,0,0,0,.94-1.007l0.03-.046a0.438,0.438,0,0,1,.26-0.208,0.963,0.963,0,0,1,.68.137,8.968,8.968,0,0,1,2.62,2.222,0.879,0.879,0,0,1-.16,1.049l-0.78.773c-1.66,1.642-3.63,1.658-5.86.048a0.308,0.308,0,0,0-.43.066,0.3,0.3,0,0,0,.07.425,6.011,6.011,0,0,0,3.48,1.315,4.435,4.435,0,0,0,3.17-1.424l0.79-.773A1.476,1.476,0,0,0,1516.75,177.107Z" transform="translate(-1498.56 -164.125)"/>
</svg>
