<svg width="97" height="90" viewBox="0 0 97 90" fill="none" xmlns="http://www.w3.org/2000/svg">
<path d="M21.018 13.436L20.744 13.588L20.854 12.234C20.753 12.1 19.833 10.877 19.833 10.877L18.561 11.092L14.194 12.807L14.204 13.602L13.901 13.436L13.606 13.525V14.994L14.561 15.893L14.786 17.166L16.194 18.659V20.006L15.584 20.364L17.521 24.156L18.906 21.219L19.452 20.366L18.906 20.073V18.66L20.124 17.167L20.361 15.894L21.321 14.995V13.526L21.018 13.436Z" fill="white"/>
<path d="M17.124 24.36L15.187 20.568L15.359 19.98L15.748 19.751V18.838L14.462 17.473L14.347 17.245L14.147 16.117L13.3 15.319L13.159 14.994V13.525L13.476 13.099L13.749 13.015L13.747 12.813L14.031 12.392L18.398 10.677L19.758 10.436L20.189 10.608L21.209 11.964L21.298 12.27L21.235 13.035L21.445 13.098L21.764 13.525V14.994L21.623 15.319L20.769 16.118L20.467 17.448L19.349 18.818V19.806L19.659 19.973L19.824 20.606L19.278 21.459L17.921 24.346L17.124 24.36ZM16.173 20.536L17.504 23.144L18.502 21.028L18.817 20.532L18.695 20.466L18.459 20.073V18.66L18.559 18.378L19.705 16.973L19.921 15.812L20.055 15.568L20.874 14.801V13.923L20.299 13.552L20.395 12.367L19.64 11.363L18.635 11.533L14.643 13.11L14.65 13.597L14.052 13.957V14.802L14.866 15.569L15 15.815L15.202 16.957L16.518 18.354L16.64 18.66V20.007L16.419 20.392L16.173 20.536Z" fill="black"/>
<path d="M14.18 11.657L18.395 10.017L19.157 9.058L20.144 10.151L20.854 11.941V13.214L20.06 12.287L14.949 12.849L14.204 13.602L14.18 11.657Z" fill="white"/>
<path d="M14.521 13.916L13.758 13.608L13.734 11.663L14.019 11.241L18.122 9.64499L18.809 8.78099L19.49 8.75999L20.561 9.98699L21.302 11.941V13.214L20.517 13.505L19.876 12.757L15.157 13.276L14.521 13.916ZM14.629 11.96L14.636 12.533L14.9 12.405L20.011 11.843L20.397 11.995L19.76 10.391L19.179 9.74799L18.744 10.294L18.556 10.432L14.629 11.96Z" fill="black"/>
<path d="M30.78 4.422H29.888V17.011H30.78V4.422Z" fill="black"/>
<path d="M32.123 6.70799C32.567 6.39899 32.92 5.97699 33.159 5.48799C31.15 5.13899 32.123 6.70799 32.123 6.70799Z" fill="white"/>
<path d="M32.378 7.07399L31.869 6.34199C32.242 6.08199 32.55 5.71799 32.759 5.29199L33.561 5.68499C33.285 6.24599 32.876 6.72699 32.378 7.07399Z" fill="black"/>
<path d="M30.313 4.10899C30.315 5.69299 32.123 6.70799 32.123 6.70799C32.123 6.70799 30.315 4.10999 30.313 4.10899Z" fill="white"/>
<path d="M31.905 7.097C31.821 7.05 29.869 5.933 29.867 4.11L30.759 4.108C30.761 5.416 32.325 6.311 32.341 6.319L31.905 7.097Z" fill="black"/>
<path d="M30.315 4.107C30.313 2.527 28.519 1.516 28.507 1.507C28.066 1.816 27.712 2.239 27.474 2.729C29.481 3.078 30.313 4.106 30.315 4.107Z" fill="white"/>
<path d="M29.869 4.109C29.868 3.134 28.983 2.379 28.531 2.057C28.263 2.294 28.038 2.59 27.876 2.925L27.074 2.535C27.347 1.973 27.755 1.491 28.252 1.142L28.786 1.159C29.081 1.331 30.759 2.418 30.761 4.107L29.869 4.109Z" fill="black"/>
<path d="M30.315 4.10699H30.313V4.10799H30.315V4.10699Z" fill="white"/>
<path d="M30.315 4.555H30.313L30.242 4.254L30.116 4.507L30.113 4.506L30.241 4.25L30.113 3.71L30.314 4.105L30.513 3.709L30.315 4.107V4.555Z" fill="black"/>
<path d="M30.315 4.10901C31.897 4.10701 32.913 2.30101 32.913 2.30001C32.606 1.85601 32.186 1.50301 31.695 1.26601C31.345 3.27301 30.315 4.10701 30.315 4.10901Z" fill="white"/>
<path d="M30.317 4.555L30.315 3.663C31.303 3.662 32.057 2.765 32.368 2.323C32.131 2.054 31.836 1.829 31.502 1.668L31.89 0.863998C32.454 1.137 32.934 1.546 33.281 2.047L33.36 2.3C33.36 2.579 32.127 4.552 30.317 4.555Z" fill="black"/>
<path d="M30.313 4.10699C28.733 4.10899 27.72 5.90899 27.715 5.91499C28.023 6.35899 28.445 6.712 28.934 6.949C29.285 4.943 30.313 4.10899 30.313 4.10699Z" fill="white"/>
<path d="M28.74 7.351C28.176 7.078 27.695 6.669 27.348 6.169L27.332 5.686C27.532 5.347 28.607 3.663 30.312 3.661L30.314 4.553C29.34 4.554 28.582 5.448 28.263 5.893C28.5 6.163 28.794 6.386 29.127 6.547L28.74 7.351Z" fill="black"/>
<path d="M31.696 1.265C31.275 1.061 30.813 0.936996 30.316 0.936996C29.643 0.936996 29.023 1.151 28.508 1.506C28.52 1.515 30.314 2.526 30.316 4.106V4.107C30.315 4.109 31.345 3.273 31.696 1.265Z" fill="white"/>
<path d="M29.869 4.109C29.867 2.875 28.449 1.992 28.287 1.896L28.254 1.14C29.315 0.406004 30.686 0.278004 31.891 0.865004L31.501 1.667C30.797 1.324 30.034 1.302 29.355 1.562C29.949 2.049 30.761 2.933 30.762 4.106L29.869 4.109Z" fill="black"/>
<path d="M27.475 2.729C27.269 3.147 27.144 3.61 27.144 4.108C27.144 4.781 27.36 5.402 27.716 5.915C27.721 5.909 28.734 4.11 30.314 4.107C30.313 4.107 29.481 3.078 27.475 2.729Z" fill="white"/>
<path d="M27.349 6.17C26.923 5.555 26.697 4.843 26.697 4.109C26.697 3.572 26.824 3.041 27.073 2.534L27.875 2.927C27.686 3.313 27.589 3.71 27.589 4.11C27.589 4.439 27.649 4.763 27.767 5.07C28.264 4.461 29.139 3.664 30.311 3.663L30.313 4.555C29.045 4.557 28.139 6.074 28.101 6.139L27.349 6.17Z" fill="black"/>
<path d="M28.934 6.949C29.355 7.154 29.817 7.279 30.316 7.279C30.99 7.279 31.61 7.06499 32.124 6.70699C32.124 6.70699 30.316 5.69099 30.314 4.10799V4.10699C30.313 4.10699 29.285 4.943 28.934 6.949Z" fill="white"/>
<path d="M30.315 7.725C29.781 7.725 29.25 7.598 28.738 7.35L29.128 6.548C29.84 6.892 30.601 6.91299 31.276 6.65499C30.676 6.16399 29.867 5.28299 29.865 4.10899L30.757 4.10699C30.759 5.41499 32.323 6.30999 32.339 6.31799L32.376 7.07299C31.767 7.49999 31.053 7.725 30.315 7.725Z" fill="black"/>
<path d="M33.16 5.488C33.362 5.07 33.488 4.605 33.488 4.109C33.488 3.436 33.274 2.813 32.914 2.3C32.914 2.301 31.899 4.107 30.316 4.109H30.314C30.313 4.109 31.15 5.139 33.16 5.488Z" fill="white"/>
<path d="M33.562 5.68201L32.758 5.29401C32.946 4.90501 33.042 4.50601 33.042 4.10901C33.042 3.77801 32.982 3.45401 32.864 3.14901C32.342 3.79301 31.442 4.55401 30.317 4.55501L30.313 3.66301C31.618 3.66101 32.515 2.09901 32.523 2.08401L32.75 2.21001L33.279 2.04401C33.708 2.65401 33.934 3.36901 33.934 4.10901C33.933 4.64201 33.808 5.17001 33.562 5.68201Z" fill="black"/>
<path d="M31.059 16.837L30.27 13.929L29.278 15.489L29.262 15.47L29.109 15.754L29.097 15.775L29.098 15.777L26.896 19.891L21.947 20.903L21.57 23.21L27.176 21.79L28.574 20.903L30.05 17.746L31.059 16.837Z" fill="white"/>
<path d="M21.679 23.642L21.129 23.138L21.505 20.832L21.856 20.467L26.6 19.497L28.703 15.568L28.713 15.574L28.714 15.544L28.908 15.256L28.9 15.251L29.892 13.691L30.699 13.813L31.488 16.721L31.356 17.17L30.415 18.019L28.977 21.094L28.812 21.281L27.284 22.223L21.679 23.642ZM22.337 21.278L22.12 22.61L26.997 21.375L28.225 20.597L29.752 17.416L30.557 16.69L30.104 15.022L29.502 15.967L29.492 15.961V15.989L27.29 20.103L26.986 20.33L22.337 21.278Z" fill="black"/>
<path d="M12.976 20.903L8.031 19.891L4.639 17.615L3.243 18.93L6.353 20.903L7.751 21.79L13.356 23.21L12.976 20.903Z" fill="white"/>
<path d="M13.247 23.642L7.512 22.166L3.004 19.307L2.938 18.605L4.335 17.29L4.889 17.245L8.207 19.472L13.066 20.467L13.417 20.832L13.797 23.138L13.247 23.642ZM7.93 21.375L12.805 22.61L12.585 21.278L7.782 20.261L4.686 18.184L3.967 18.861L7.93 21.375Z" fill="black"/>
<path d="M23.736 20.536L21.654 20.899L19.302 20.86C19.302 20.86 18.291 21.229 17.464 21.548V21.526C16.607 21.191 15.626 20.86 15.626 20.86L13.273 20.899L11.191 20.536V22.662L12.976 23.092V24.649V32.401H21.682L21.848 24.08L21.879 23.109L23.736 22.663V20.536V20.536Z" fill="#8BC53F"/>
<path d="M21.682 32.847H12.976L12.53 32.401V23.443L11.087 23.096L10.745 22.663V20.537L11.268 20.098L13.35 20.461L15.619 20.414L15.769 20.437C15.769 20.437 16.661 20.739 17.493 21.059C18.281 20.758 19.149 20.441 19.149 20.441L19.309 20.414L21.661 20.453L23.659 20.098L24.182 20.537V22.663L23.84 23.096L22.313 23.463L22.293 24.094L22.127 32.411L21.682 32.847ZM13.422 31.955H21.245L21.433 23.095L21.775 22.676L23.29 22.311V21.068L21.731 21.339L19.379 21.308C19.128 21.4 18.312 21.7 17.625 21.964L17.364 21.785L17.302 21.942C16.592 21.664 15.796 21.39 15.557 21.308L13.281 21.346L11.638 21.066V22.313L13.081 22.66L13.423 23.093V31.955H13.422Z" fill="black"/>
<path d="M20.28 60.776H16.294H9.392V64.715L9.924 87.331H15.763L16.825 67.791L17.99 66.334H18.584L19.746 67.789L20.811 87.331H26.652L27.18 64.715V60.776H20.28Z" fill="white"/>
<path d="M26.652 87.778H20.811L20.366 87.356L19.307 67.956L18.368 66.78H18.204L17.262 67.958L16.207 87.355L15.762 87.777H9.922L9.476 87.341L8.944 64.724V60.775L9.39 60.329H27.18L27.626 60.775V64.714L27.099 87.341L26.652 87.778ZM21.234 86.885H26.216L26.733 64.704V61.222H9.838V64.714L10.36 86.885H15.341L16.381 67.767L16.477 67.513L17.642 66.056L17.991 65.889H18.585L18.934 66.056L20.096 67.511L20.192 67.765L21.234 86.885Z" fill="black"/>
<path d="M26.351 46.15L28.021 37.852L28.99 38.54L34.703 48.974L35.581 51.172L37.838 60.776L32.487 61.793L30.484 53.038L26.351 46.15Z" fill="white"/>
<path d="M32.571 62.231L32.053 61.893L30.065 53.207L25.97 46.381L25.915 46.063L27.585 37.765L28.28 37.49L29.383 38.328L35.096 48.762L35.998 51.009L38.275 60.676L37.924 61.216L32.571 62.231ZM26.823 46.069L30.919 52.938L32.827 61.274L37.298 60.425L35.147 51.274L34.288 49.139L28.648 38.845L28.323 38.614L26.823 46.069Z" fill="black"/>
<path d="M1.128 22.488L0.442001 19.395L4.639 17.615L4.76 21.689L1.128 22.488Z" fill="white"/>
<path d="M1.225 22.924L0.692997 22.585L0.0059967 19.492L0.266997 18.984L4.465 17.204L5.085 17.603L5.206 21.676L4.856 22.125L1.225 22.924ZM0.957997 19.661L1.468 21.957L4.304 21.332L4.213 18.281L0.957997 19.661Z" fill="black"/>
<path d="M12.23 41.338L9.071 46.046L6.179 41.943L2.472 32.352L1.504 30.191L0.598 22.086L5.532 20.65L6.519 28.121L12.23 41.338Z" fill="white"/>
<path d="M8.706 46.303L5.814 42.2L2.055 32.512L1.06 30.241L0.154999 22.136L0.473999 21.657L5.407 20.221L5.974 20.592L6.953 28.001L12.638 41.161L12.6 41.586L9.441 46.294L8.706 46.303ZM1.939 30.073L2.878 32.17L6.595 41.783L9.06 45.261L11.723 41.292L6.077 28.179L5.158 21.224L1.083 22.409L1.939 30.073Z" fill="black"/>
<path d="M10.268 88.914H15.31C15.31 88.914 16.284 86.702 12.786 86.17C12.786 86.169 9.826 86.348 10.268 88.914Z" fill="#8BC53F"/>
<path d="M15.31 89.36H10.268L9.829 88.989C9.686 88.16 9.838 87.454 10.283 86.893C11.122 85.835 12.694 85.728 12.76 85.724C14.262 85.942 15.195 86.449 15.628 87.234C16.126 88.143 15.736 89.055 15.719 89.093L15.31 89.36ZM10.67 88.468H14.972C15.006 88.258 15.007 87.954 14.84 87.657C14.551 87.14 13.819 86.779 12.724 86.611C12.738 86.62 11.552 86.725 10.98 87.45C10.761 87.728 10.658 88.063 10.67 88.468Z" fill="black"/>
<path d="M26.262 88.914H21.216C21.216 88.914 20.244 86.702 23.738 86.17C23.738 86.169 26.699 86.348 26.262 88.914Z" fill="#8BC53F"/>
<path d="M26.262 89.36H21.216L20.807 89.094C20.791 89.056 20.4 88.144 20.9 87.235C21.332 86.45 22.264 85.943 23.671 85.728H23.672C23.836 85.728 25.404 85.836 26.243 86.892C26.688 87.453 26.843 88.158 26.702 88.988L26.262 89.36ZM21.555 88.468H25.86C25.869 88.064 25.766 87.728 25.547 87.45C24.958 86.705 23.723 86.616 23.71 86.615C22.703 86.779 21.968 87.144 21.681 87.665C21.52 87.958 21.523 88.26 21.555 88.468Z" fill="black"/>
<path d="M27.18 60.776H20.28H16.294H9.392V61.006L27.18 60.792V60.776Z" fill="white"/>
<path d="M9.397 61.452L8.945 61.006V60.776L9.392 60.33H27.18L27.626 60.776L27.185 61.238L9.397 61.452Z" fill="black"/>
<path d="M27.173 61.748H9.392L8.386 39.207L9.584 37.852H15.119L18.287 38.959L21.375 37.852H28.237L27.173 61.748Z" fill="#8BC53F"/>
<path d="M27.173 62.195H9.392L8.946 61.769L7.94 39.227L8.052 38.912L9.25 37.557L9.585 37.406L15.268 37.43L18.285 38.485L21.375 37.406H28.237L28.683 37.872L27.619 61.768L27.173 62.195ZM9.818 61.302H26.746L27.771 38.298H21.453L18.437 39.379L18.14 39.38L15.045 38.298H9.786L8.841 39.367L9.818 61.302Z" fill="black"/>
<path d="M37.242 60.89L37.838 64.004L33.591 65.66V61.585L37.242 60.89Z" fill="white"/>
<path d="M33.753 66.076L33.144 65.66V61.584L33.507 61.146L37.159 60.451L37.681 60.805L38.277 63.919L38.002 64.419L33.753 66.076ZM34.037 61.954V65.007L37.331 63.722L36.888 61.411L34.037 61.954Z" fill="black"/>
<path d="M47.693 39.874L48.711 39.277V36.66L50.069 37.735H51.999L53.233 36.66V39.39L54.146 39.876L53.233 41.299L50.923 46.195L47.693 39.874Z" fill="white"/>
<path d="M50.526 46.398L47.296 40.077L47.468 39.489L48.265 39.021V36.66L48.988 36.31L50.225 37.288H51.832L52.94 36.322L53.679 36.659V39.121L54.356 39.481L54.521 40.115L53.608 41.537L51.326 46.383L50.526 46.398ZM48.282 40.046L50.907 45.183L52.83 41.108L53.511 40.043L53.023 39.784L52.787 39.39V37.641L52.292 38.072L51.999 38.181H50.069L49.793 38.085L49.157 37.583V39.277L48.936 39.662L48.282 40.046Z" fill="black"/>
<path d="M46.045 87.685L46.637 84.888H48.966L49.418 87.685L47.592 88.125L46.045 87.685Z" fill="white"/>
<path d="M47.697 88.558L47.47 88.553L45.922 88.113L45.607 87.591L46.199 84.794L46.636 84.441H48.964L49.404 84.816L49.856 87.613L49.52 88.117L47.697 88.558ZM46.567 87.37L47.601 87.664L48.91 87.348L48.585 85.334H46.998L46.567 87.37Z" fill="black"/>
<path d="M49.577 70.996L48.919 85.943L49.418 87.685L46.091 88.642L46.045 87.685L46.738 85.943L45.317 70.996H49.577Z" fill="white"/>
<path d="M46.214 89.071L45.645 88.664L45.599 87.707L45.63 87.52L46.284 85.878L44.873 71.038L45.317 70.55H49.576L50.022 71.016L49.368 85.89L49.847 87.562L49.541 88.114L46.214 89.071ZM46.496 87.76L46.51 88.057L48.866 87.378L48.473 85.922L49.111 71.441H45.808L47.182 85.9L47.153 86.107L46.496 87.76Z" fill="black"/>
<path d="M49.418 87.685L48.511 87.334H47.733H46.952L46.045 87.685L45.965 88.914H47.733H49.497L49.418 87.685Z" fill="#8BC53F"/>
<path d="M49.497 89.36H45.965L45.52 88.885L45.6 87.656L45.885 87.269L46.953 86.888L48.674 86.918L49.58 87.269L49.864 87.656L49.943 88.885L49.497 89.36ZM46.441 88.468H49.021L48.991 87.997L48.428 87.78H47.036L46.471 87.998L46.441 88.468Z" fill="black"/>
<path d="M55.843 87.685L55.25 84.888H52.924L52.47 87.685L54.295 88.125L55.843 87.685Z" fill="white"/>
<path d="M54.191 88.558L52.366 88.118L52.03 87.613L52.484 84.816L52.924 84.442H55.25L55.687 84.795L56.279 87.592L55.964 88.114L54.416 88.554L54.191 88.558ZM52.976 87.348L54.285 87.664L55.319 87.37L54.888 85.334H53.303L52.976 87.348Z" fill="black"/>
<path d="M52.311 70.996L52.968 85.943L52.47 87.685L55.796 88.642L55.843 87.685L55.15 85.943L56.57 70.996H52.311Z" fill="white"/>
<path d="M55.673 89.071L52.347 88.114L52.041 87.562L52.52 85.89L51.865 71.016L52.311 70.55H56.57L57.014 71.038L55.605 85.878L56.289 87.707L56.243 88.664L55.673 89.071ZM53.022 87.379L55.378 88.058L55.392 87.761L54.707 85.902L56.08 71.443H52.777L53.415 85.924L53.398 86.067L53.022 87.379Z" fill="black"/>
<path d="M52.47 87.685L53.381 87.334H54.156H54.934L55.843 87.685L55.924 88.914H54.156H52.392L52.47 87.685Z" fill="#8BC53F"/>
<path d="M55.924 89.36H52.392L51.947 88.886L52.025 87.657L52.31 87.269L53.381 86.888L55.095 86.918L56.004 87.269L56.289 87.656L56.37 88.885L55.924 89.36ZM52.867 88.468H55.447L55.416 87.999L54.85 87.78H53.463L52.897 87.998L52.867 88.468Z" fill="black"/>
<path d="M45.546 47.858L41.199 47.438L39.507 50.978L35.45 60.583L34.088 61.787L36.284 64.898L38.668 59.733H38.667L41.788 53.705L45.546 47.858Z" fill="white"/>
<path d="M35.919 65.155L33.723 62.044L33.793 61.453L35.078 60.317L39.096 50.806L40.797 47.246L41.242 46.995L45.59 47.416L45.922 48.102L42.163 53.948L39.063 59.94L36.689 65.087L35.919 65.155ZM34.683 61.856L36.203 64.009L38.263 59.545L41.392 53.5L44.777 48.232L41.468 47.911L39.91 51.17L35.746 60.917L34.683 61.856Z" fill="black"/>
<path d="M46.415 29.649L45.962 29.396L45.546 29.522V31.562L46.88 32.815L46.415 29.649Z" fill="white"/>
<path d="M46.574 33.14L45.24 31.887L45.1 31.562V29.522L45.417 29.095L45.833 28.969L46.179 29.006L46.632 29.258L46.856 29.583L47.321 32.749L46.574 33.14ZM45.992 31.369L46.252 31.613L45.992 29.924V31.369Z" fill="black"/>
<path d="M55.405 29.649L55.857 29.396L56.277 29.522V31.562L54.942 32.815L55.405 29.649Z" fill="white"/>
<path d="M55.248 33.14L54.501 32.75L54.963 29.584L55.187 29.26L55.639 29.008L55.984 28.97L56.405 29.096L56.723 29.523V31.563L56.582 31.888L55.248 33.14ZM55.815 29.931L55.569 31.616L55.832 31.37V29.922L55.815 29.931Z" fill="black"/>
<path d="M46.213 28.857L52.443 26.169L54.207 25.839L55.768 28.118L54.615 35.452L51.999 37.735H50.069L47.191 35.452L46.213 28.857Z" fill="white"/>
<path d="M51.999 38.181H50.069L49.791 38.085L46.913 35.802L46.749 35.517L45.771 28.922L46.036 28.447L52.266 25.759L54.124 25.401L54.575 25.587C54.575 25.587 56.073 27.776 56.132 27.86L56.004 27.949L56.208 28.188L55.054 35.522L54.908 35.788L52.293 38.071L51.999 38.181ZM50.225 37.289H51.832L54.199 35.222L55.305 28.197C55.074 27.893 54.694 27.34 54.003 26.33L52.526 26.606L46.705 29.13L47.608 35.212L50.225 37.289Z" fill="black"/>
<path d="M54.207 25.839L51.56 28.267L48.486 29.815L46.518 30.914L45.546 28.857L46.88 25.73L51.943 23.631L54.207 25.839Z" fill="white"/>
<path d="M46.735 31.303L46.115 31.104L45.144 29.048L45.137 28.682L46.471 25.554L46.71 25.317L51.773 23.219L52.255 23.312L54.518 25.52L54.509 26.168L51.761 28.666L48.687 30.214L46.735 31.303ZM46.035 28.848L46.717 30.291L48.268 29.425L51.304 27.896L53.557 25.828L51.842 24.156L47.219 26.072L46.035 28.848Z" fill="black"/>
<path d="M46.089 32.074L45.423 36.66L48.711 37.344V36.66L47.191 35.452L46.785 32.729L46.089 32.074Z" fill="white"/>
<path d="M48.62 37.78L45.332 37.097L44.981 36.596L45.647 32.01L46.394 31.749L47.09 32.403L47.226 32.662L47.606 35.212L48.989 36.31L49.157 36.66V37.343L48.62 37.78ZM45.925 36.309L48.128 36.767L46.914 35.802L46.75 35.518L46.39 33.105L45.925 36.309Z" fill="black"/>
<path d="M55.786 32.074L56.449 36.66L53.233 37.316V36.66L54.615 35.452L55.058 32.638L55.786 32.074Z" fill="white"/>
<path d="M53.323 37.752L52.787 37.315V36.66L52.939 36.324L54.198 35.223L54.617 32.568L54.784 32.284L55.511 31.721L56.226 32.01L56.889 36.596L56.537 37.097L53.323 37.752ZM55.462 32.947L55.055 35.522L54.909 35.788L53.819 36.741L55.947 36.308L55.462 32.947Z" fill="black"/>
<path d="M52.508 27.397L55.079 30.586L55.541 29.571L55.768 28.118L54.207 25.839L52.508 27.397Z" fill="white"/>
<path d="M54.732 30.866L52.161 27.677L52.206 27.068L53.905 25.51L54.575 25.587L56.137 27.867L56.209 28.188L55.948 29.756L55.487 30.771L54.732 30.866ZM53.118 27.442L54.972 29.742L55.109 29.441L55.3 28.223L54.129 26.514L53.118 27.442Z" fill="black"/>
<path d="M46.88 32.74C46.88 33.11 46.58 33.407 46.213 33.407C45.843 33.407 45.546 33.11 45.546 32.74C45.546 32.371 45.843 32.074 46.213 32.074C46.58 32.074 46.88 32.371 46.88 32.74Z" fill="white"/>
<path d="M46.213 33.853C45.6 33.853 45.1 33.353 45.1 32.74C45.1 32.127 45.6 31.628 46.213 31.628C46.826 31.628 47.326 32.127 47.326 32.74C47.326 33.354 46.827 33.853 46.213 33.853ZM46.213 32.521C46.089 32.521 45.992 32.617 45.992 32.741C45.992 32.986 46.432 32.986 46.434 32.741C46.434 32.619 46.335 32.521 46.213 32.521Z" fill="black"/>
<path d="M56.277 32.74C56.277 33.11 55.975 33.407 55.609 33.407C55.238 33.407 54.942 33.11 54.942 32.74C54.942 32.371 55.238 32.074 55.609 32.074C55.975 32.074 56.277 32.371 56.277 32.74Z" fill="white"/>
<path d="M55.609 33.853C54.996 33.853 54.496 33.353 54.496 32.74C54.496 32.127 54.996 31.628 55.609 31.628C56.224 31.628 56.723 32.127 56.723 32.74C56.723 33.354 56.224 33.853 55.609 33.853ZM55.609 32.521C55.485 32.521 55.388 32.617 55.388 32.741C55.388 32.986 55.831 32.986 55.831 32.741C55.831 32.619 55.731 32.521 55.609 32.521Z" fill="black"/>
<path d="M46.15 55.539L44.633 59.98L44.333 62.06L45.267 73.171H56.565L57.409 62.406L56.872 59.575L55.513 55.485L46.15 55.539Z" fill="#FFC42A"/>
<path d="M56.565 73.617H45.267L44.822 73.208L43.888 62.097L44.191 59.916L45.728 55.395L46.147 55.093L55.509 55.038L55.934 55.344L57.293 59.434L57.852 62.441L57.01 73.205L56.565 73.617ZM45.678 72.724H56.153L56.959 62.43L56.434 59.658L55.192 55.933L46.47 55.983L45.055 60.124L44.775 62.124L45.678 72.724Z" fill="black"/>
<path d="M60.48 47.438L57.704 41.113L54.146 39.877C53.435 39.433 50.842 45.744 50.842 45.744C50.842 45.744 48.246 39.433 47.535 39.877L44.031 41.113L41.198 47.438L45.546 47.859L46.15 55.54H50.691H50.991H55.534L56.138 47.859L60.48 47.438Z" fill="#FFC42A"/>
<path d="M55.534 55.986H46.15L45.705 55.575L45.13 48.267L41.155 47.882L40.791 47.256L43.624 40.931L43.882 40.693L47.614 39.409C47.872 39.409 48.627 39.409 50.842 44.59C53.055 39.409 53.809 39.409 54.067 39.409L54.382 39.498L57.85 40.691L58.113 40.934L60.889 47.259L60.523 47.882L56.554 48.267L55.979 55.575L55.534 55.986ZM46.563 55.093H55.121L55.693 47.823L56.095 47.414L59.823 47.053L57.374 41.47L54.094 40.33C53.565 40.792 52.238 43.518 51.254 45.913H50.43C49.44 43.506 48.103 40.764 47.58 40.323L44.361 41.469L41.861 47.053L45.591 47.414L45.993 47.823L46.563 55.093Z" fill="black"/>
<path d="M45.917 52.615H55.766L55.527 55.513H46.148L45.917 52.615Z" fill="white"/>
<path d="M55.527 55.959H46.148L45.703 55.549L45.472 52.651L45.917 52.169H55.766L56.211 52.652L55.972 55.55L55.527 55.959ZM46.561 55.066H55.116L55.282 53.061H46.4L46.561 55.066Z" fill="black"/>
<path d="M15.075 32.073H21.583H24.628L25.097 34.146L24.673 38.78L24.403 46.046H22.156L21.746 38.78L21.31 35.763L20.717 34.997H15.936L15.345 35.761L14.82 38.78L14.519 46.046L12.201 45.978L12.005 38.78L11.845 34.181L12.429 32.074L15.075 32.073Z" fill="white"/>
<path d="M24.403 46.492H22.156L21.711 46.071L21.301 38.805L20.885 35.943L20.498 35.442H16.155L15.766 35.946L15.259 38.855L14.965 46.063L14.506 46.491L12.188 46.424L11.755 45.989L11.4 34.195L11.416 34.061L11.999 31.955L12.429 31.627L24.629 31.626L25.065 31.973L25.543 34.185L25.119 38.819L24.851 46.061L24.403 46.492ZM22.577 45.6H23.972L24.226 38.764L24.645 34.177L24.27 32.52L12.766 32.521L12.292 34.235L12.634 45.546L14.09 45.588L14.372 38.762L14.99 35.489L15.581 34.724L15.934 34.551H20.715L21.068 34.724L21.66 35.491L21.748 35.7L22.184 38.716L22.577 45.6Z" fill="black"/>
<path d="M18.995 30.149H18.103V41.943H18.995V30.149Z" fill="black"/>
<path d="M15.186 32.073H21.694H24.628L25.097 34.146L25.104 38.78H21.375L21.31 35.763L20.829 34.997H16.047L15.009 35.38L15.092 38.78H11.776L11.666 34.146L12.24 32.073H15.186Z" fill="white"/>
<path d="M25.104 39.226H21.374L20.928 38.789L20.865 35.896L20.581 35.443H16.125L15.462 35.688L15.536 38.769L15.09 39.226H11.774L11.33 38.79L11.221 34.156L11.237 34.027L11.811 31.954L12.241 31.626H24.629L25.065 31.973L25.534 34.046L25.551 38.777L25.104 39.226ZM21.812 38.333H24.657L24.651 34.147L24.273 32.519H12.58L12.114 34.201L12.212 38.333H14.636L14.564 35.39L14.856 34.961L16.048 34.55H20.83L21.208 34.759L21.689 35.526L21.758 35.754L21.812 38.333Z" fill="black"/>
<path d="M24.651 46.875H22.083C22.083 46.875 21.585 45.713 23.366 45.434C23.366 45.435 24.874 45.528 24.651 46.875Z" fill="white"/>
<path d="M24.651 47.322H22.083L21.673 47.051C21.647 46.991 21.426 46.439 21.736 45.879C21.993 45.414 22.518 45.117 23.298 44.995C23.487 44.996 24.322 45.064 24.804 45.669C24.992 45.906 25.196 46.321 25.092 46.949L24.651 47.322ZM22.474 46.429H24.206C24.186 46.351 24.153 46.284 24.105 46.224C23.867 45.924 23.344 45.88 23.338 45.879C22.957 45.95 22.63 46.104 22.517 46.31C22.495 46.349 22.482 46.39 22.474 46.429Z" fill="black"/>
<path d="M12.028 46.875H14.599C14.599 46.875 15.095 45.713 13.312 45.434C13.312 45.435 11.806 45.528 12.028 46.875Z" fill="white"/>
<path d="M14.599 47.322H12.028L11.588 46.948C11.485 46.321 11.688 45.906 11.877 45.669C12.359 45.064 13.191 44.996 13.284 44.99C14.161 45.117 14.688 45.414 14.945 45.879C15.254 46.439 15.036 46.99 15.009 47.051L14.599 47.322ZM12.474 46.429H14.207C14.199 46.388 14.184 46.346 14.161 46.305C14.044 46.103 13.717 45.95 13.243 45.875C13.195 45.89 12.772 45.974 12.573 46.226C12.526 46.285 12.494 46.353 12.474 46.429Z" fill="black"/>
<path d="M23.829 27.963L23.413 27.838L23.164 27.977L23.336 25.353L22.252 22.625L20.748 20.959L19.586 22.421L13.163 24.922L13.373 27.956L13.163 27.838L12.745 27.963V30.006L13.57 30.779L13.867 35.062L15.119 35.379V37.852L18.281 39.423L21.375 37.852V35.325L22.706 34.957L22.978 30.803L23.829 30.006V27.963Z" fill="white"/>
<path d="M18.082 39.823L14.921 38.252L14.674 37.852V35.726L13.758 35.494L13.422 35.093L13.136 30.985L12.44 30.332L12.298 30.007V27.963L12.618 27.535L12.891 27.454L12.718 24.954L13.001 24.507L19.311 22.05L20.397 20.683L21.078 20.662L22.666 22.462L23.78 25.384L23.645 27.444L23.955 27.537L24.273 27.965V30.009L24.132 30.334L23.409 31.01L23.149 34.988L22.823 35.389L21.819 35.667V37.855L21.575 38.252L18.481 39.823H18.082ZM15.566 37.576L18.279 38.924L20.929 37.579V35.326L21.257 34.896L22.283 34.613L22.534 30.775L22.673 30.479L23.383 29.814V28.366L23.382 28.367L22.72 27.948L22.885 25.424L21.868 22.864L20.77 21.649L19.936 22.698L19.748 22.836L13.632 25.218L13.819 27.924L13.289 28.261L13.29 28.266L13.191 28.323V29.814L13.875 30.454L14.014 30.748L14.289 34.709L15.228 34.947L15.565 35.379V37.576H15.566Z" fill="black"/>
<path d="M13.163 24.922L19.586 22.421L20.748 20.959L22.252 22.625L23.336 25.353L23.009 28.871H22.496L22.123 25.881L14.336 26.739L13.949 28.871H13.464L13.163 24.922Z" fill="white"/>
<path d="M23.009 29.317H22.497L22.054 28.927L21.736 26.372L14.717 27.146L14.389 28.951L13.95 29.317H13.464L13.019 28.905L12.718 24.956L13.001 24.506L19.311 22.049L20.397 20.682L21.078 20.661L22.666 22.461L23.779 25.396L23.451 28.914L23.009 29.317ZM13.633 25.218L13.788 27.259L13.897 26.658L14.287 26.294L22.074 25.435L22.565 25.823L22.724 27.101L22.881 25.416L21.867 22.862L20.769 21.647L19.935 22.696L19.747 22.834L13.633 25.218Z" fill="black"/>
<path d="M91.823 44.551L91.568 59.222L91.571 59.24L92.337 62.199L91.767 63.237L92.825 64.266L91.558 65.797L91.805 67.272L91.823 44.551Z" fill="white"/>
<path d="M91.364 67.345L91.118 65.871L91.214 65.513L92.218 64.299L91.456 63.556L91.376 63.022L91.86 62.14L91.121 59.214L91.377 44.542L92.269 44.559L92.014 59.231L92.769 62.088L92.728 62.414L92.322 63.154L93.136 63.947L93.169 64.551L92.032 65.925L92.245 67.199L91.364 67.345Z" fill="black"/>
<path d="M91.516 42.916L91.823 42.754L92.13 42.916L92.897 44.017L91.823 44.551L90.751 44.017L91.516 42.916Z" fill="#FFC42A"/>
<path d="M92.022 44.95H91.625L90.553 44.417L90.386 43.763L91.31 42.521L91.617 42.36H92.033L92.498 42.662L93.265 43.763L93.098 44.417L92.022 44.95ZM91.412 43.848L91.823 44.052L92.235 43.848L91.823 43.259L91.821 43.26L91.412 43.848Z" fill="black"/>
<path d="M89.372 33.159L90.98 31.866H91.823H92.664L94.277 33.159L95.732 35.35V37.31L94.658 40.091L93.127 42.916H91.823H90.522L88.989 40.091L87.917 37.31V35.35L89.372 33.159Z" fill="#FFC42A"/>
<path d="M93.127 43.362H90.522L90.129 43.128L88.596 40.303L87.47 37.309V35.349L87.544 35.103L89.09 32.811L90.698 31.519L90.978 31.42H92.663L92.942 31.518L94.648 32.912L96.103 35.103L96.177 35.349L96.147 37.469L95.073 40.251L93.518 43.128L93.127 43.362ZM90.787 42.47H92.861L94.266 39.879L95.286 37.228V35.485L93.944 33.463L92.508 32.313H91.137L89.706 33.463L88.364 35.485V37.228L89.406 39.932L90.787 42.47Z" fill="black"/>
<path d="M83.551 62.945L88.498 61.934L90.862 57.512L92.657 58.5L90.177 62.945L88.778 63.833L83.173 65.253L83.551 62.945Z" fill="white"/>
<path d="M83.282 65.685L82.732 65.181L83.11 62.874L83.461 62.509L88.202 61.54L90.468 57.303L91.077 57.123L92.872 58.111L93.046 58.719L90.416 63.323L88.887 64.266L83.282 65.685ZM83.941 63.32L83.724 64.653L88.599 63.418L89.842 62.629L92.048 58.674L91.042 58.121L88.891 62.145L88.587 62.372L83.941 63.32Z" fill="black"/>
<path d="M75.548 57.941L74.844 58.581L75.037 59.341L74.188 59.987L74.385 60.772L73.821 61.688L74.242 62.112L74.393 62.786L75.262 63.259L77.056 62.945L78.76 62.136L75.548 57.941Z" fill="white"/>
<path d="M75.313 63.552L75.12 63.52L74.251 63.047L74.102 62.851L73.97 62.261L73.61 61.897L73.568 61.532L74.066 60.724L73.9 60.059L74.008 59.75L74.7 59.224L74.555 58.654L74.644 58.362L75.348 57.721L75.748 58.161L75.176 58.681L75.325 59.268L75.217 59.578L74.524 60.104L74.673 60.7L74.638 60.928L74.198 61.645L74.453 61.903L74.532 62.047L74.653 62.59L75.313 62.947L76.965 62.659L78.633 61.868L78.888 62.405L77.107 63.238L75.313 63.552Z" fill="black"/>
<path d="M82.582 57.941L83.286 58.581L83.093 59.341L83.941 59.987L83.745 60.772L84.308 61.688L83.888 62.112L83.737 62.786L82.868 63.259L81.074 62.945L79.369 62.136L82.582 57.941Z" fill="white"/>
<path d="M82.816 63.552L80.946 63.213L79.241 62.405L79.497 61.868L81.164 62.659L82.816 62.947L83.476 62.59L83.597 62.047L83.676 61.903L83.932 61.645L83.491 60.928L83.457 60.7L83.605 60.104L82.913 59.578L82.805 59.268L82.953 58.681L82.382 58.161L82.782 57.721L83.486 58.362L83.574 58.654L83.43 59.224L84.121 59.75L84.229 60.059L84.063 60.724L84.561 61.532L84.52 61.897L84.159 62.261L84.027 62.851L83.878 63.047L83.009 63.52L82.816 63.552Z" fill="black"/>
<path d="M74.579 62.945L69.632 61.934L67.268 57.512L67.249 57.523L66.065 55.319L64.691 57.763L65.567 58.669L67.952 62.945L69.352 63.833L74.958 65.253L74.579 62.945Z" fill="white"/>
<path d="M74.848 65.685L69.112 64.209L67.562 63.162L65.206 58.938L64.371 58.074L64.302 57.545L65.675 55.1L66.457 55.107L69.926 61.539L74.668 62.508L75.019 62.873L75.398 65.18L74.848 65.685ZM69.53 63.418L74.406 64.653L74.188 63.32L69.542 62.371L69.238 62.144L66.056 56.244L65.244 57.692L65.957 58.452L68.287 62.629L69.53 63.418Z" fill="black"/>
<path d="M82.563 55.973L82.291 56.125L82.503 54.905L81.378 53.413L80.109 53.629L75.628 55.388L75.751 56.139L75.448 55.973L75.15 56.062V57.531L76.107 58.43L76.332 59.701L77.739 61.195V62.543L77.129 62.901L79.065 66.693L80.451 63.756L80.999 62.903L80.451 62.611V61.195L81.672 59.701L81.905 58.43L82.866 57.531V56.062L82.563 55.973Z" fill="white"/>
<path d="M78.667 66.897L76.731 63.105L76.903 62.517L77.292 62.288V61.372L76.006 60.007L75.892 59.779L75.692 58.653L74.844 57.856L74.703 57.531V56.062L75.02 55.634L75.206 55.578L75.186 55.46L75.464 54.973L79.945 53.214L81.302 52.972L81.733 53.144C81.733 53.144 82.81 54.575 82.853 54.631L82.94 54.981L82.835 55.587L82.991 55.634L83.311 56.062V57.531L83.169 57.856L82.316 58.655L82.109 59.781L82.015 59.983L80.895 61.354V62.343L81.208 62.509L81.373 63.145L80.825 63.998L79.467 66.884L78.667 66.897ZM77.718 63.073L79.048 65.681L80.047 63.565L80.363 63.069L80.24 63.004L80.004 62.61V61.195L80.105 60.913L81.253 59.507L81.466 58.35L81.601 58.105L82.42 57.337V56.452L81.852 56.049L82.033 55.003C81.856 54.788 81.596 54.444 81.185 53.899L80.183 54.07L76.126 55.671L76.191 56.067L75.596 56.488V57.338L76.412 58.105L76.546 58.352L76.748 59.492L78.064 60.89L78.185 61.196V62.544L77.964 62.929L77.718 63.073Z" fill="black"/>
<path d="M78.76 54.333L82.449 55.986L82.614 54.941L81.49 53.302L78.76 54.333Z" fill="white"/>
<path d="M82.267 56.392L78.578 54.74L78.602 53.916L81.331 52.884L81.857 53.049L82.982 54.688L83.054 55.01L82.889 56.054L82.267 56.392ZM79.929 54.368L82.099 55.339L82.145 55.046L81.319 53.842L79.929 54.368Z" fill="black"/>
<path d="M82.563 70.893H79.064H75.564L73.219 78.279L73.298 79.622H79.064H84.723L84.902 78.254L82.563 70.893Z" fill="#8BC53F"/>
<path d="M84.723 80.069H73.298L72.853 79.65L72.774 78.307L72.794 78.146L75.139 70.76L75.564 70.449H82.563L82.988 70.76L85.344 78.313L85.165 79.682L84.723 80.069ZM73.719 79.176H84.331L84.446 78.294L82.236 71.339H75.89L73.67 78.335L73.719 79.176Z" fill="black"/>
<path d="M82.438 70.235H75.548V70.894H82.438V70.235Z" fill="white"/>
<path d="M82.438 71.34H75.548L75.102 70.893V70.235L75.548 69.788H82.438L82.884 70.235V70.893L82.438 71.34Z" fill="black"/>
<path d="M85.336 62.58L83.253 62.94L80.901 62.901C80.901 62.901 79.918 63.234 79.064 63.568L77.227 62.901L74.875 62.94L72.791 62.58V64.704L75.065 65.252L75.223 65.998L75.563 70.893H79.063H79.268H82.563L82.906 65.998L83.064 65.252L85.337 64.704V62.58H85.336Z" fill="#8BC53F"/>
<path d="M82.563 71.34H75.564L75.119 70.925L74.779 66.03L74.69 65.621L72.688 65.138L72.346 64.705V62.58L72.868 62.141L74.952 62.501L77.221 62.454L77.38 62.481L79.06 63.091C79.881 62.775 80.759 62.477 80.759 62.477L80.909 62.454L83.261 62.494L85.262 62.141L85.784 62.58V64.704L85.442 65.137L83.442 65.619L83.343 66.091L83.008 70.924L82.563 71.34ZM75.98 70.447H82.147L82.461 65.967L82.627 65.159L82.959 64.819L84.89 64.353V63.11L83.328 63.379L80.972 63.348C80.733 63.43 79.934 63.707 79.227 63.984L78.912 63.987L77.153 63.348L74.883 63.386L73.238 63.107V64.353L75.17 64.819L75.502 65.159L75.66 65.905L75.98 70.447Z" fill="black"/>
<path d="M77.865 86.868L78.243 79.622H75.69L76.512 86.868L76.155 88.75H78.243L77.865 86.868Z" fill="white"/>
<path d="M78.243 89.196H76.155L75.717 88.667L76.061 86.851L75.245 79.672L75.689 79.176H78.243L78.688 79.645L78.313 86.835L78.68 88.661L78.243 89.196ZM76.695 88.304H77.699L77.42 86.845L77.773 80.069H76.189L76.956 86.818L76.95 86.95L76.695 88.304Z" fill="black"/>
<path d="M81.619 86.868L82.438 79.622H79.884L80.265 86.868L79.935 88.75H81.975L81.619 86.868Z" fill="white"/>
<path d="M81.975 89.196H79.935L79.496 88.673L79.826 86.791L79.439 79.646L79.884 79.177H82.438L82.882 79.673L82.07 86.852L82.414 88.668L81.975 89.196ZM80.464 88.304H81.436L81.175 86.818L81.938 80.069H80.354L80.709 86.845L80.464 88.304Z" fill="black"/>
<path d="M81.49 53.302L79.586 55.048L77.367 55.841L75.514 56.139L75.262 55.472L76.221 53.223L79.516 52.235L81.49 53.302Z" fill="white"/>
<path d="M75.585 56.579L75.097 56.297L74.845 55.63L74.852 55.297L75.81 53.048L76.092 52.796L79.387 51.808L79.727 51.843L81.701 52.91L81.79 53.631L79.735 55.469L77.516 56.263L75.585 56.579ZM75.743 55.483L75.802 55.641L77.296 55.402L79.35 54.66L80.726 53.398L79.467 52.717L76.55 53.591L75.743 55.483Z" fill="black"/>
<path d="M78.148 88.176L77.607 87.965H77.137H76.67L76.126 88.176L76.078 88.914H77.137H78.197L78.148 88.176Z" fill="white"/>
<path d="M78.197 89.063H76.078L75.929 88.905L75.978 88.167L76.073 88.038L76.67 87.816L77.661 87.826L78.202 88.037L78.296 88.166L78.345 88.904L78.197 89.063ZM76.237 88.765H78.038L78.007 88.28L77.58 88.113H76.699L76.269 88.28L76.237 88.765Z" fill="black"/>
<path d="M79.979 88.176L80.526 87.965H80.991H81.459L82.003 88.176L82.051 88.914H80.991H79.935L79.979 88.176Z" fill="white"/>
<path d="M82.051 89.063H79.935L79.786 88.905L79.83 88.167L79.925 88.038L80.526 87.816L81.512 87.826L82.056 88.037L82.151 88.166L82.199 88.904L82.051 89.063ZM80.093 88.765H81.892L81.862 88.28L81.432 88.113H80.555L80.123 88.28L80.093 88.765Z" fill="black"/>
<path d="M66.272 56.286L66.289 56.269L62.177 50.978L60.484 47.438L56.138 47.858L59.895 53.705L63.518 57.107L65.395 60.569L67.593 57.455L66.272 56.286Z" fill="white"/>
<path d="M65.76 60.826L65.002 60.782L63.159 57.383L59.589 54.03L55.762 48.1L56.094 47.414L60.441 46.993L60.886 47.244L62.579 50.784L66.641 55.994L66.64 56.016L67.888 57.12L67.958 57.711L65.76 60.826ZM56.908 48.232L60.27 53.463L63.91 56.894L65.445 59.724L66.997 57.525L65.976 56.621L65.973 56.515L65.937 56.543L61.825 51.252L60.217 47.912L56.908 48.232Z" fill="black"/>
</svg>
