<svg width="52" height="71" viewBox="0 0 52 71" fill="none" xmlns="http://www.w3.org/2000/svg">
<path d="M31.245 18.115L32.48 18.444L38.203 21.635L40.487 27.172L44.872 22.812L46.142 23.769L47.296 25.911L42.355 29.422L30.911 25.612L31.245 18.115Z" fill="white"/>
<path d="M42.21 29.856L30.766 26.046L30.454 25.592L30.788 18.094L31.363 17.672L32.598 18.001L38.426 21.235L38.626 21.46L40.649 26.365L44.549 22.487L45.147 22.446L46.544 23.551L47.698 25.694L47.56 26.284L42.619 29.795L42.21 29.856ZM31.383 25.288L42.279 28.915L46.701 25.773L45.786 24.074L44.913 23.416L40.809 27.497L40.063 27.347L37.839 21.957L32.255 18.844L31.675 18.697L31.383 25.288Z" fill="black"/>
<path d="M38.966 52.061H34.599L35.951 66.307L35.344 69.175L35.391 70.156L38.801 69.175L38.338 66.307L38.966 52.061Z" fill="white"/>
<path d="M35.518 70.596L34.935 70.178L34.887 69.196L34.897 69.079L35.489 66.279L34.143 52.104L34.599 51.603H38.966L39.423 52.081L38.795 66.327L39.252 69.102L38.927 69.614L35.518 70.596ZM35.804 69.212L35.821 69.557L38.285 68.848L37.887 66.381L38.489 52.52H35.102L36.407 66.264L36.399 66.402L35.804 69.212Z" fill="black"/>
<path d="M38.801 69.175L37.872 68.814H37.073H36.273L35.344 69.175L35.263 70.434H37.073H38.884L38.801 69.175Z" fill="white"/>
<path d="M38.884 70.891H35.263L34.807 70.404L34.887 69.145L35.178 68.748L36.273 68.357L38.037 68.388L38.966 68.748L39.257 69.144L39.34 70.403L38.884 70.891ZM35.751 69.976H38.395L38.363 69.495L37.785 69.271H36.358L35.78 69.495L35.751 69.976Z" fill="black"/>
<path d="M46.135 52.061H41.768L42.396 66.315L41.932 69.175L45.342 70.156L45.389 69.175L44.782 66.31L46.135 52.061Z" fill="white"/>
<path d="M45.216 70.596L41.806 69.614L41.481 69.101L41.944 66.242L41.311 52.081L41.768 51.603H46.135L46.591 52.104L45.245 66.282L45.846 69.195L45.799 70.177L45.216 70.596ZM42.448 68.847L44.913 69.556L44.93 69.211L44.328 66.266L45.634 52.519H42.248L42.854 66.295L42.448 68.847Z" fill="black"/>
<path d="M41.932 69.175L42.864 68.814H43.66H44.459L45.389 69.175L45.473 70.434H43.66H41.851L41.932 69.175Z" fill="white"/>
<path d="M45.473 70.891H41.851L41.395 70.404L41.477 69.145L41.768 68.748L42.865 68.357L44.626 68.388L45.556 68.748L45.847 69.144L45.931 70.403L45.473 70.891ZM42.338 69.976H44.983L44.951 69.495L44.373 69.271H42.949L42.37 69.495L42.338 69.976Z" fill="black"/>
<path d="M30.375 27.907L28.639 31.537L25.359 33.689L26.181 37.274L30.979 34.332L34.833 28.337L30.375 27.907Z" fill="white"/>
<path d="M26.42 37.664L25.735 37.377L24.912 33.791L25.108 33.306L28.282 31.225L29.962 27.71L30.788 28.104L29.052 31.734L28.89 31.92L25.876 33.897L26.484 36.551L30.651 33.996L34.448 28.09L35.217 28.585L31.218 34.722L26.42 37.664Z" fill="black"/>
<path d="M45.835 9.536L45.407 9.409L45.08 9.589L45.316 8.098L43.713 5.76L41.902 6.099L35.516 8.855L35.628 9.613L35.258 9.409L34.833 9.536V11.629L36.105 12.825L36.52 15.618L38.078 16.854V19.54L37.037 20.152L40.345 26.632L42.713 21.612L43.65 20.154L42.713 19.654V16.855L44.13 15.618L44.572 12.815L45.835 11.629V9.536Z" fill="white"/>
<path d="M39.937 26.84L36.629 20.36L36.805 19.758L37.621 19.278V17.075L36.236 15.976L36.067 15.685L35.676 13.05L34.519 11.963L34.375 11.629V9.536L34.701 9.098L35.072 8.987L35.062 8.923L35.334 8.436L41.721 5.68L43.629 5.312L44.091 5.503C44.091 5.503 45.636 7.759 45.689 7.835L45.551 7.93L45.768 8.169L45.637 9L45.966 9.098L46.293 9.536V11.629L46.148 11.963L45 13.041L44.582 15.689L44.431 15.962L43.171 17.063V19.379L43.866 19.751L44.035 20.401L43.098 21.859L40.759 26.827L39.937 26.84ZM37.64 20.328L40.329 25.595L42.299 21.418L42.998 20.326L42.498 20.059L42.256 19.656V16.857L42.413 16.513L43.704 15.385L44.12 12.746L44.259 12.484L45.378 11.434V9.951L45.302 9.993L44.628 9.521L44.84 8.18C44.6 7.866 44.208 7.296 43.504 6.269L41.986 6.553L36.019 9.139L36.08 9.55L35.406 10.018L35.289 9.953V11.436L36.418 12.496L36.557 12.762L36.945 15.376L38.361 16.5L38.534 16.859V19.544L38.308 19.938L37.64 20.328Z" fill="black"/>
<path d="M43.713 5.76L40.996 8.249L37.847 9.836L35.827 10.964L34.833 8.855L36.199 5.648L41.392 3.497L43.713 5.76Z" fill="white"/>
<path d="M36.051 11.364L35.414 11.16L34.419 9.05L34.412 8.675L35.778 5.469L36.024 5.225L41.217 3.073L41.711 3.168L44.032 5.432L44.022 6.097L41.202 8.658L38.052 10.245L36.051 11.364ZM35.334 8.845L36.032 10.326L37.623 9.437L40.734 7.869L43.047 5.75L41.288 4.035L36.547 6L35.334 8.845Z" fill="black"/>
<path d="M35.389 12.153L34.706 16.854L38.078 17.557V16.854L36.52 15.618L36.103 12.824L35.389 12.153Z" fill="white"/>
<path d="M37.985 18.005L34.613 17.303L34.254 16.79L34.937 12.089L35.703 11.821L36.417 12.492L36.556 12.758L36.947 15.373L38.363 16.497L38.536 16.856V17.558L37.985 18.005ZM35.221 16.494L37.482 16.965L36.236 15.976L36.067 15.685L35.697 13.209L35.221 16.494Z" fill="black"/>
<path d="M45.331 12.153L46.013 16.854L42.713 17.527V16.854L44.13 15.618L44.584 12.731L45.331 12.153Z" fill="white"/>
<path d="M42.804 17.975L42.255 17.526V16.854L42.412 16.509L43.703 15.382L44.131 12.66L44.303 12.369L45.049 11.791L45.782 12.087L46.465 16.788L46.103 17.302L42.804 17.975ZM44.998 13.046L44.582 15.689L44.431 15.963L43.314 16.938L45.499 16.492L44.998 13.046Z" fill="black"/>
<path d="M41.97 7.358L44.607 10.628L45.08 9.588L45.316 8.098L43.713 5.76L41.97 7.358Z" fill="white"/>
<path d="M44.251 10.915L41.615 7.646L41.662 7.022L43.405 5.424L44.092 5.503L45.694 7.841L45.769 8.171L45.498 9.779L45.024 10.819L44.251 10.915ZM42.596 7.405L44.498 9.763L44.639 9.454L44.836 8.205L43.635 6.452L42.596 7.405Z" fill="black"/>
<path d="M36.199 12.837C36.199 13.216 35.893 13.521 35.516 13.521C35.137 13.521 34.833 13.217 34.833 12.837C34.833 12.459 35.137 12.153 35.516 12.153C35.893 12.153 36.199 12.459 36.199 12.837Z" fill="white"/>
<path d="M35.516 13.979C34.887 13.979 34.375 13.467 34.375 12.838C34.375 12.209 34.887 11.697 35.516 11.697C36.145 11.697 36.657 12.209 36.657 12.838C36.657 13.466 36.145 13.979 35.516 13.979ZM35.516 12.611C35.389 12.611 35.29 12.71 35.29 12.837C35.289 13.088 35.741 13.089 35.741 12.837C35.742 12.712 35.64 12.611 35.516 12.611Z" fill="black"/>
<path d="M45.835 12.837C45.835 13.216 45.526 13.521 45.149 13.521C44.771 13.521 44.466 13.217 44.466 12.837C44.466 12.459 44.771 12.153 45.149 12.153C45.526 12.153 45.835 12.459 45.835 12.837Z" fill="white"/>
<path d="M45.149 13.979C44.52 13.979 44.008 13.467 44.008 12.838C44.008 12.209 44.52 11.697 45.149 11.697C45.779 11.697 46.292 12.209 46.292 12.838C46.292 13.466 45.78 13.979 45.149 13.979ZM45.149 12.611C45.025 12.611 44.923 12.712 44.923 12.837C44.922 13.089 45.376 13.088 45.377 12.837C45.378 12.712 45.275 12.611 45.149 12.611Z" fill="black"/>
<path d="M35.451 36.214L33.896 40.768L33.589 42.901L34.546 54.293H46.131L46.996 43.255L46.446 40.35L45.052 36.158L35.451 36.214Z" fill="#FFC42A"/>
<path d="M46.131 54.751H34.546L34.09 54.332L33.133 42.939L33.443 40.703L35.019 36.066L35.45 35.756L45.05 35.7L45.487 36.013L46.881 40.205L47.453 43.29L46.588 54.328L46.131 54.751ZM34.966 53.836H45.708L46.535 43.28L45.996 40.435L44.723 36.617L35.779 36.669L34.329 40.915L34.042 42.965L34.966 53.836Z" fill="black"/>
<path d="M49.888 26.815L47.299 21.423L43.651 20.155C42.921 19.699 40.264 26.171 40.264 26.171C40.264 26.171 37.602 19.699 36.873 20.155L33.28 21.423L30.376 27.908L34.833 28.338L35.452 36.214H40.108H40.415H45.071L45.692 28.338L49.888 26.815Z" fill="#FFC42A"/>
<path d="M45.071 36.671H35.452L34.996 36.249L34.408 28.756L30.332 28.362L29.959 27.72L32.863 21.235L33.128 20.991L36.954 19.673C37.218 19.673 37.992 19.674 40.263 24.986C42.531 19.673 43.306 19.673 43.57 19.673L43.893 19.765L47.449 20.99L47.711 21.224L50.3 26.616L50.044 27.244L46.125 28.666L45.528 36.249L45.071 36.671ZM35.874 35.756H44.647L45.234 28.301L45.534 27.907L49.255 26.557L46.967 21.792L43.594 20.62C43.052 21.095 41.692 23.89 40.684 26.345H39.84C38.824 23.877 37.453 21.065 36.917 20.613L33.617 21.788L31.053 27.514L34.877 27.883L35.289 28.302L35.874 35.756Z" fill="black"/>
<path d="M45.835 23.691L47.586 22.076L49.888 26.815L46.599 28.172L45.835 23.691Z" fill="white"/>
<path d="M46.773 28.595L46.148 28.249L45.384 23.767L45.525 23.354L47.276 21.74L47.998 21.876L50.3 26.614L50.063 27.237L46.773 28.595ZM46.328 23.859L46.954 27.531L49.265 26.577L47.444 22.83L46.328 23.859Z" fill="black"/>
<path d="M46.142 28.292L47.581 34.934L46.978 42.628L49.467 44.144L50.937 35.158L49.888 26.815L46.142 28.292Z" fill="white"/>
<path d="M49.229 44.535L46.74 43.018L46.522 42.592L47.12 34.965L45.695 28.389L45.974 27.867L49.72 26.39L50.342 26.758L51.391 35.101L51.389 35.232L49.919 44.218L49.229 44.535ZM47.456 42.384L49.125 43.401L50.475 35.151L49.507 27.458L46.671 28.577L48.037 34.972L47.456 42.384Z" fill="black"/>
<path d="M23.089 41.619H19.001H11.921V45.659L12.469 68.848H18.456L19.546 48.812L20.739 47.317H21.349L22.539 48.81L23.632 68.848H29.62L30.162 45.659V41.619H23.089Z" fill="white"/>
<path d="M29.62 69.305H23.632L23.175 68.873L22.091 48.981L21.129 47.775H20.96L19.995 48.984L18.913 68.874L18.456 69.306H12.469L12.012 68.859L11.464 45.67V41.62L11.921 41.163H30.162L30.619 41.62V45.66L30.077 68.859L29.62 69.305ZM24.065 68.39H29.173L29.704 45.648V42.076H12.379V45.658L12.916 68.389H18.023L19.089 48.786L19.189 48.526L20.383 47.031L20.74 46.859H21.35L21.707 47.031L22.897 48.524L22.996 48.784L24.065 68.39Z" fill="black"/>
<path d="M12.774 26.623L11.06 18.115L10.069 18.82L4.212 29.519L3.31 31.773L0.996002 41.619L6.483 42.661L8.535 33.683L12.774 26.623Z" fill="white"/>
<path d="M6.398 43.111L0.910003 42.069L0.550003 41.514L2.865 31.667L3.787 29.348L9.804 18.446L10.796 17.741L11.51 18.023L13.224 26.531L13.167 26.857L8.966 33.855L6.931 42.762L6.398 43.111ZM1.55 41.259L6.135 42.129L8.143 33.448L12.29 26.539L10.751 18.896L10.419 19.132L4.613 29.738L3.735 31.942L1.55 41.259Z" fill="black"/>
<path d="M12.82 70.471H17.99C17.99 70.471 18.99 68.202 15.404 67.658C15.404 67.658 12.368 67.839 12.82 70.471Z" fill="#8BC53F"/>
<path d="M17.99 70.928H12.82L12.369 70.548C12.223 69.697 12.38 68.973 12.837 68.398C13.697 67.314 15.309 67.206 15.377 67.201C16.917 67.424 17.873 67.944 18.316 68.749C18.828 69.681 18.427 70.616 18.41 70.655L17.99 70.928ZM13.232 70.013H17.644C17.679 69.798 17.68 69.486 17.509 69.181C17.212 68.651 16.462 68.282 15.339 68.111C15.353 68.121 14.138 68.226 13.551 68.969C13.326 69.254 13.221 69.598 13.232 70.013Z" fill="black"/>
<path d="M29.219 70.471H24.047C24.047 70.471 23.049 68.202 26.633 67.658C26.633 67.658 29.669 67.839 29.219 70.471Z" fill="#8BC53F"/>
<path d="M29.219 70.928H24.047L23.628 70.654C23.611 70.615 23.21 69.68 23.722 68.748C24.165 67.943 25.121 67.424 26.564 67.205C26.732 67.205 28.341 67.314 29.2 68.397C29.657 68.972 29.815 69.696 29.669 70.547L29.219 70.928ZM24.395 70.013H28.807C28.818 69.598 28.712 69.254 28.487 68.969C27.884 68.205 26.617 68.115 26.604 68.114C25.571 68.281 24.818 68.654 24.524 69.189C24.358 69.49 24.361 69.8 24.395 70.013Z" fill="black"/>
<path d="M30.162 41.619H23.089H19.001H11.921V41.855L30.162 41.636V41.619Z" fill="white"/>
<path d="M11.926 42.312L11.464 41.855V41.619L11.921 41.162H30.162L30.62 41.619L30.167 42.094L11.926 42.312Z" fill="black"/>
<path d="M30.156 42.617H11.92L10.831 18.115H17.796L21.043 19.248L24.21 18.115H31.245L30.156 42.617Z" fill="#8BC53F"/>
<path d="M30.156 43.074H11.92L11.463 42.637L10.374 18.135L10.831 17.657L17.946 17.683L21.04 18.763L24.209 17.658H31.244L31.701 18.136L30.612 42.638L30.156 43.074ZM12.358 42.159H29.718L30.766 18.572H24.288L21.196 19.679L20.891 19.68L17.717 18.572H11.308L12.358 42.159Z" fill="black"/>
<path d="M26.727 7.975L26.299 7.846L26.044 7.987L26.221 5.298L25.108 2.5L23.568 0.792L22.376 2.292L15.788 4.855L16.004 7.966L15.788 7.846L15.361 7.975V10.07L16.206 10.862L16.511 15.253L17.798 15.578V18.115L21.043 18.845L24.21 18.115V15.522L25.575 15.145L25.854 10.887L26.727 10.07V7.975Z" fill="white"/>
<path d="M20.942 19.291L17.697 18.561L17.34 18.115V15.934L16.399 15.696L16.055 15.284L15.762 11.073L15.048 10.404L14.903 10.07V7.975L15.228 7.537L15.509 7.452L15.331 4.886L15.622 4.428L22.094 1.911L23.21 0.507999L23.908 0.487L25.534 2.331L26.678 5.329L26.54 7.441L26.86 7.537L27.186 7.975V10.07L27.041 10.404L26.3 11.097L26.032 15.175L25.697 15.586L24.668 15.871V18.115L24.313 18.561L20.942 19.291ZM18.255 17.749L21.041 18.376L23.752 17.751V15.523L24.088 15.082L25.139 14.791L25.397 10.857L25.541 10.553L26.269 9.872V8.385L26.265 8.387L25.587 7.957L25.756 5.371L24.712 2.744L23.59 1.5L22.733 2.577L22.541 2.719L16.267 5.159L16.46 7.934L15.918 8.279L15.92 8.284L15.818 8.344V9.872L16.518 10.528L16.662 10.83L16.945 14.89L17.91 15.134L18.255 15.578V17.749V17.749Z" fill="black"/>
<path d="M1.608 41.736L0.996002 44.929L5.352 46.627V42.449L1.608 41.736Z" fill="white"/>
<path d="M5.18501 47.054L0.829005 45.356L0.546005 44.843L1.15801 41.65L1.69301 41.287L5.43701 42L5.80901 42.449V46.628L5.18501 47.054ZM1.51701 44.641L4.89401 45.957V42.827L1.97101 42.27L1.51701 44.641Z" fill="black"/>
<path d="M35.211 33.216H45.31L45.066 36.187H35.449L35.211 33.216Z" fill="white"/>
<path d="M45.066 36.644H35.448L34.992 36.223L34.754 33.252L35.21 32.758H45.31L45.766 33.253L45.522 36.224L45.066 36.644ZM35.871 35.73H44.645L44.814 33.674H35.707L35.871 35.73Z" fill="black"/>
<path d="M15.788 4.855L22.376 2.292L23.568 0.792L25.108 2.5L26.221 5.298L26.299 7.846L25.302 8.451L24.976 5.838L17.573 6.977L16.595 8.906L15.788 7.846V4.855Z" fill="white"/>
<path d="M16.231 9.183L15.425 8.123L15.332 7.846V4.855L15.624 4.428L22.096 1.911L23.212 0.507999L23.91 0.487L25.536 2.331L26.681 5.285L26.759 7.833L26.539 8.239L25.542 8.844L24.851 8.509L24.58 6.362L17.875 7.394L17.003 9.114L16.231 9.183ZM16.246 7.692L16.517 8.049L17.165 6.771L17.503 6.526L24.906 5.387L25.43 5.782L25.669 7.694L25.834 7.594L25.766 5.393L24.713 2.745L23.59 1.5L22.733 2.577L22.541 2.719L16.246 5.168V7.692V7.692Z" fill="black"/>
</svg>
