<svg width="98" height="69" viewBox="0 0 98 69" fill="none" xmlns="http://www.w3.org/2000/svg">
<path d="M46.482 42.498L51.4 41.494L53.749 37.096L55.534 38.08L53.069 42.498L51.678 43.38L46.106 44.792L46.482 42.498Z" fill="white"/>
<path d="M46.215 45.222L45.669 44.721L46.044 42.427L46.393 42.064L51.107 41.101L53.358 36.887L53.963 36.707L55.748 37.69L55.921 38.295L53.307 42.872L51.787 43.809L46.215 45.222ZM46.87 42.872L46.654 44.196L51.5 42.968L52.736 42.184L54.929 38.253L53.928 37.701L51.791 41.703L51.488 41.928L46.87 42.872Z" fill="black"/>
<path d="M79.873 40.35H75.91H69.048V44.266L69.577 66.748H75.382L76.437 47.323L77.596 45.873H78.186L79.341 47.321L80.402 66.748H86.206L86.732 44.266V40.35H79.873Z" fill="white"/>
<path d="M86.206 67.192H80.402L79.96 66.773L78.907 47.487L77.974 46.318H77.81L76.873 47.49L75.824 66.774L75.382 67.193H69.577L69.133 66.76L68.604 44.278V40.35L69.048 39.906H86.733L87.177 40.35V44.267L86.65 66.759L86.206 67.192ZM80.822 66.305H85.773L86.289 44.256V40.793H69.491V44.266L70.01 66.305H74.962L75.996 47.299L76.092 47.047L77.251 45.597L77.598 45.43H78.188L78.535 45.597L79.69 47.044L79.786 47.296L80.822 66.305Z" fill="black"/>
<path d="M85.906 25.809L87.568 17.561L88.531 18.245L94.209 28.617L95.082 30.803L97.327 40.35L92.007 41.36L90.017 32.655L85.906 25.809Z" fill="white"/>
<path d="M92.09 41.796L91.575 41.459L89.6 32.823L85.526 26.038L85.472 25.722L87.134 17.473L87.825 17.199L88.92 18.031L94.598 28.404L95.494 30.638L97.759 40.248L97.41 40.786L92.09 41.796ZM86.375 25.729L90.449 32.557L92.344 40.844L96.789 40L94.65 30.904L93.797 28.782L88.192 18.547L87.87 18.318L86.375 25.729Z" fill="black"/>
<path d="M57.929 38.095L55.809 40.429L51.958 38.039L55.196 35.607L57.929 38.095Z" fill="white"/>
<path d="M55.575 40.806L51.724 38.417L51.69 37.685L54.929 35.253L55.495 35.28L58.228 37.769L58.257 38.396L56.136 40.729L55.575 40.806ZM52.743 38.005L55.729 39.857L57.303 38.125L55.168 36.182L52.743 38.005Z" fill="black"/>
<path d="M66.867 18.268L67.999 17.561L69.92 24.279L65.167 31.346L63.968 33.373L57.906 38.756L53.91 35.573L59.409 30.489L66.867 18.268Z" fill="white"/>
<path d="M57.63 39.103L53.634 35.921L53.609 35.248L59.063 30.206L66.633 17.892L67.765 17.185L68.426 17.439L70.347 24.157L70.289 24.527L65.536 31.593L64.263 33.704L58.201 39.087L57.63 39.103ZM54.59 35.548L57.891 38.176L63.621 33.087L64.784 31.119L69.436 24.202L67.733 18.248L67.189 18.587L59.709 30.814L54.59 35.548Z" fill="black"/>
<path d="M83.4 7.73001L82.986 7.60501L82.739 7.74101L82.91 5.13501L81.831 2.42101L80.337 0.766006L79.183 2.22001L72.797 4.70501L73.006 7.72101L72.797 7.60501L72.382 7.73001V9.76101L73.201 10.529L73.497 14.786L74.743 15.101V17.561L77.885 19.123L80.961 17.561V15.047L82.284 14.682L82.555 10.553L83.4 9.76101V7.73001Z" fill="white"/>
<path d="M77.687 19.52L74.545 17.958L74.3 17.561V15.446L73.389 15.216L73.055 14.816L72.771 10.733L72.079 10.084L71.939 9.761V7.73L72.254 7.306L72.527 7.224L72.355 4.736L72.637 4.292L78.911 1.852L79.99 0.492002L80.667 0.470001L82.245 2.259L83.354 5.166L83.22 7.214L83.53 7.308L83.845 7.732V9.764L83.704 10.088L82.987 10.76L82.728 14.714L82.403 15.112L81.405 15.388V17.564L81.162 17.96L78.086 19.522L77.687 19.52ZM75.187 17.286L77.883 18.626L80.518 17.288V15.047L80.844 14.62L81.864 14.338L82.114 10.524L82.254 10.229L82.959 9.569V8.128L82.956 8.13L82.3 7.712L82.464 5.206L81.452 2.659L80.362 1.452L79.534 2.496L79.347 2.634L73.262 5L73.448 7.691L72.922 8.025L72.924 8.03L72.825 8.087V9.569L73.504 10.205L73.643 10.498L73.917 14.434L74.851 14.67L75.186 15.1V17.286H75.187Z" fill="black"/>
<path d="M72.797 4.70501L79.183 2.22001L80.337 0.766006L81.831 2.42101L82.91 5.13501L82.586 8.63301H82.075L81.704 5.65801L73.962 6.51301L73.578 8.63301H73.096L72.797 4.70501Z" fill="white"/>
<path d="M82.586 9.076H82.076L81.636 8.687L81.32 6.146L74.341 6.917L74.015 8.711L73.578 9.075H73.096L72.654 8.665L72.355 4.737L72.637 4.29L78.911 1.85L79.99 0.490002L80.667 0.468002L82.245 2.257L83.353 5.176L83.028 8.674L82.586 9.076ZM73.265 4.999L73.419 7.026L73.526 6.434L73.914 6.072L81.656 5.217L82.145 5.603L82.303 6.876L82.459 5.2L81.45 2.66L80.36 1.453L79.532 2.497L79.345 2.635L73.265 4.999Z" fill="black"/>
<path d="M69.917 68.322H74.929C74.929 68.322 75.899 66.122 72.423 65.595C72.423 65.595 69.478 65.771 69.917 68.322Z" fill="#8BC53F"/>
<path d="M74.929 68.766H69.917L69.48 68.397C69.338 67.572 69.489 66.87 69.932 66.312C70.766 65.261 72.33 65.156 72.396 65.152C73.888 65.369 74.816 65.872 75.244 66.653C75.741 67.556 75.351 68.463 75.334 68.501L74.929 68.766ZM70.317 67.879H74.593C74.627 67.67 74.629 67.367 74.463 67.072C74.175 66.559 73.449 66.2 72.361 66.034C72.375 66.044 71.196 66.145 70.626 66.867C70.408 67.143 70.305 67.476 70.317 67.879Z" fill="black"/>
<path d="M85.816 68.322H80.802C80.802 68.322 79.834 66.122 83.311 65.595C83.311 65.595 86.253 65.771 85.816 68.322Z" fill="#8BC53F"/>
<path d="M85.816 68.766H80.802L80.397 68.5C80.38 68.462 79.992 67.556 80.488 66.653C80.917 65.872 81.845 65.369 83.244 65.157C83.245 65.157 83.245 65.157 83.245 65.157C83.408 65.157 84.966 65.263 85.799 66.312C86.243 66.87 86.395 67.572 86.254 68.397L85.816 68.766ZM81.14 67.879H85.417C85.427 67.475 85.325 67.14 85.105 66.864C84.524 66.132 83.297 66.039 83.285 66.039C82.281 66.201 81.551 66.563 81.266 67.082C81.105 67.372 81.107 67.672 81.14 67.879Z" fill="black"/>
<path d="M86.732 40.35H79.873H75.91H69.048V40.578L86.732 40.366V40.35Z" fill="white"/>
<path d="M69.053 41.021L68.604 40.578V40.35L69.048 39.906H86.732L87.176 40.35L86.738 40.809L69.053 41.021Z" fill="black"/>
<path d="M86.725 41.316H69.046L67.988 17.561H74.742L77.89 18.66L80.961 17.561H87.781L86.725 41.316Z" fill="#8BC53F"/>
<path d="M86.725 41.76H69.046L68.602 41.336L67.545 17.58L67.989 17.117L74.889 17.142L77.889 18.189L80.961 17.117H87.781L88.225 17.58L87.169 41.335L86.725 41.76ZM69.47 40.873H86.301L87.317 18.005H81.037L78.039 19.078L77.743 19.079L74.666 18.005H68.451L69.47 40.873Z" fill="black"/>
<path d="M96.735 40.462L97.327 43.558L93.105 45.205V41.153L96.735 40.462Z" fill="white"/>
<path d="M93.265 45.618L92.661 45.204V41.153L93.021 40.718L96.651 40.027L97.17 40.379L97.763 43.475L97.489 43.972L93.265 45.618ZM93.548 41.521V44.556L96.823 43.28L96.383 40.982L93.548 41.521Z" fill="black"/>
<path d="M10.307 50.507H6.073L7.384 64.319H7.383L6.796 67.1L6.842 68.051L10.148 67.1L9.699 64.319L10.307 50.507Z" fill="white"/>
<path d="M6.965 68.477L6.399 68.072L6.353 67.121L6.362 67.008L6.935 64.293L5.632 50.55L6.073 50.064H10.307L10.751 50.527L10.142 64.338L10.586 67.029L10.271 67.526L6.965 68.477ZM7.242 67.136L7.258 67.47L9.648 66.782L9.261 64.389L9.844 50.951H6.561L7.826 64.277L7.818 64.41L7.242 67.136Z" fill="black"/>
<path d="M10.148 67.1L9.24699 66.749H8.47199H7.69699L6.79599 67.1L6.71899 68.321H8.47199H10.228L10.148 67.1Z" fill="white"/>
<path d="M10.228 68.764H6.71899L6.27699 68.292L6.35399 67.071L6.63599 66.686L7.69799 66.306L9.40799 66.336L10.309 66.686L10.591 67.071L10.671 68.292L10.228 68.764ZM7.19099 67.877H9.75399L9.72399 67.41L9.16399 67.192H7.77999L7.22099 67.41L7.19099 67.877Z" fill="black"/>
<path d="M17.258 50.507H13.024L13.634 64.319L13.183 67.1L16.489 68.051L16.535 67.1L15.946 64.32L17.258 50.507Z" fill="white"/>
<path d="M16.367 68.477L13.061 67.526L12.746 67.029L13.197 64.248L12.581 50.527L13.025 50.064H17.259L17.7 50.55L16.395 64.295L16.979 67.122L16.933 68.073L16.367 68.477ZM13.682 66.782L16.073 67.47L16.089 67.136L15.504 64.278L16.77 50.951H13.486L14.076 64.3L13.682 66.782Z" fill="black"/>
<path d="M13.183 67.1L14.086 66.749H14.858H15.632L16.535 67.1L16.615 68.321H14.858H13.105L13.183 67.1Z" fill="white"/>
<path d="M16.615 68.764H13.105L12.663 68.292L12.742 67.071L13.024 66.686L14.087 66.306L15.794 66.336L16.697 66.686L16.979 67.071L17.059 68.292L16.615 68.764ZM13.578 67.877H16.141L16.111 67.411L15.548 67.193H14.168L13.607 67.411L13.578 67.877Z" fill="black"/>
<path d="M16.967 9.278L16.55 9.15401L16.235 9.32901L16.463 7.88301L14.909 5.617L13.153 5.945L6.963 8.617L7.071 9.351L6.712 9.15401L6.299 9.278V11.308L7.533 12.465L7.935 15.175L9.446 16.373V18.977L8.436 19.569L11.643 25.853L13.941 20.987L14.849 19.572L13.941 19.088V16.373L15.313 15.175L15.742 12.455L16.967 11.308V9.278Z" fill="white"/>
<path d="M11.248 26.055L8.042 19.771L8.213 19.187L9.003 18.723V16.588L7.66 15.523L7.496 15.24L7.117 12.683L5.996 11.631L5.856 11.308V9.279L6.171 8.855L6.533 8.746L6.524 8.684L6.787 8.212L12.978 5.539L14.828 5.183L15.275 5.368C15.275 5.368 16.761 7.54 16.823 7.626L16.689 7.721L16.9 7.954L16.774 8.76L17.094 8.855L17.411 9.28V11.309L17.27 11.633L16.157 12.676L15.752 15.245L15.607 15.509L14.386 16.576V18.823L15.059 19.182L15.223 19.813L14.315 21.228L12.044 26.045L11.248 26.055ZM9.022 19.74L11.628 24.847L13.541 20.797L14.218 19.737L13.733 19.479L13.499 19.087V16.373L13.65 16.039L14.901 14.946L15.305 12.385L15.44 12.13L16.525 11.114V9.675L16.452 9.715L15.798 9.259L16.002 7.957C15.769 7.653 15.389 7.101 14.707 6.104L13.234 6.378L7.451 8.886L7.51 9.284L6.857 9.74L6.743 9.677V11.115L7.837 12.141L7.972 12.4L8.348 14.936L9.721 16.026L9.888 16.374V18.977L9.668 19.359L9.022 19.74Z" fill="black"/>
<path d="M14.909 5.617L12.278 8.031L9.222 9.569L7.264 10.662L6.299 8.617L7.625 5.509L12.659 3.423L14.909 5.617Z" fill="white"/>
<path d="M7.48 11.049L6.863 10.851L5.899 8.807L5.892 8.444L7.218 5.335L7.456 5.099L12.49 3.013L12.969 3.105L15.219 5.3L15.21 5.944L12.478 8.427L9.422 9.966L7.48 11.049ZM6.786 8.608L7.463 10.043L9.006 9.181L12.024 7.662L14.264 5.607L12.559 3.944L7.963 5.849L6.786 8.608Z" fill="black"/>
<path d="M6.838 11.815L6.177 16.373L9.446 17.054V16.373L7.935 15.175L7.532 12.465L6.838 11.815Z" fill="white"/>
<path d="M9.35601 17.489L6.08701 16.808L5.73801 16.31L6.39901 11.752L7.14101 11.491L7.83501 12.141L7.97101 12.4L8.34901 14.936L9.72201 16.026L9.88901 16.374V17.055L9.35601 17.489ZM6.67601 16.024L8.86701 16.481L7.65901 15.522L7.49601 15.24L7.13801 12.833L6.67601 16.024Z" fill="black"/>
<path d="M16.478 11.815L17.139 16.373L13.941 17.025V16.373L15.313 15.175L15.756 12.376L16.478 11.815Z" fill="white"/>
<path d="M14.03 17.46L13.498 17.025V16.373L13.649 16.039L14.9 14.946L15.318 12.306L15.483 12.025L16.205 11.464L16.917 11.751L17.579 16.309L17.229 16.807L14.03 17.46ZM16.155 12.685L15.751 15.243L15.606 15.507L14.524 16.453L16.641 16.021L16.155 12.685Z" fill="black"/>
<path d="M13.22 7.16601L15.776 10.336L16.235 9.327L16.463 7.88301L14.909 5.617L13.22 7.16601Z" fill="white"/>
<path d="M15.431 10.614L12.875 7.444L12.92 6.839L14.609 5.291L15.275 5.367L16.829 7.633L16.901 7.953L16.64 9.512L16.181 10.52L15.431 10.614ZM13.827 7.211L15.67 9.497L15.806 9.198L15.997 7.987L14.832 6.289L13.827 7.211Z" fill="black"/>
<path d="M7.625 12.477C7.625 12.845 7.326 13.14 6.962 13.14C6.595 13.14 6.299 12.845 6.299 12.477C6.299 12.111 6.595 11.815 6.962 11.815C7.326 11.815 7.625 12.111 7.625 12.477Z" fill="white"/>
<path d="M6.963 13.584C6.353 13.584 5.856 13.087 5.856 12.477C5.856 11.867 6.353 11.371 6.963 11.371C7.573 11.371 8.069 11.867 8.069 12.477C8.069 13.087 7.572 13.584 6.963 13.584ZM6.963 12.259C6.842 12.259 6.743 12.357 6.743 12.478C6.743 12.721 7.182 12.722 7.182 12.478C7.182 12.357 7.084 12.259 6.963 12.259Z" fill="black"/>
<path d="M16.967 12.477C16.967 12.845 16.669 13.14 16.302 13.14C15.937 13.14 15.639 12.845 15.639 12.477C15.639 12.111 15.937 11.815 16.302 11.815C16.669 11.815 16.967 12.111 16.967 12.477Z" fill="white"/>
<path d="M16.302 13.584C15.692 13.584 15.195 13.087 15.195 12.477C15.195 11.867 15.692 11.371 16.302 11.371C16.913 11.371 17.411 11.867 17.411 12.477C17.411 13.087 16.913 13.584 16.302 13.584ZM16.302 12.259C16.181 12.259 16.082 12.357 16.082 12.478C16.083 12.722 16.524 12.72 16.523 12.478C16.524 12.357 16.425 12.259 16.302 12.259Z" fill="black"/>
<path d="M6.89999 35.143L5.39199 39.557L5.09399 41.626L6.02199 52.671H17.255L18.092 41.969L17.56 39.153L16.207 35.088L6.89999 35.143Z" fill="#FFC42A"/>
<path d="M17.255 53.114H6.022L5.58 52.708L4.651 41.663L4.952 39.494L6.48 34.999L6.897 34.699L16.204 34.645L16.627 34.949L17.98 39.014L18.534 42.004L17.697 52.706L17.255 53.114ZM6.43 52.227H16.845L17.645 41.993L17.124 39.236L15.888 35.534L7.217 35.585L5.811 39.7L5.533 41.689L6.43 52.227Z" fill="black"/>
<path d="M21.146 27.088L18.385 20.802L14.848 19.572C14.139 19.131 11.563 25.405 11.563 25.405C11.563 25.405 8.983 19.131 8.276 19.572L4.792 20.802L1.97701 27.088L6.29801 27.506L6.90001 35.143H11.414H11.712H16.226L16.829 27.507L21.146 27.088Z" fill="#FFC42A"/>
<path d="M16.226 35.586H6.90001L6.45801 35.177L5.88601 27.911L1.93601 27.529L1.57401 26.906L4.38901 20.62L4.64501 20.383L8.355 19.106C8.611 19.106 9.361 19.106 11.564 24.256C13.762 19.106 14.514 19.106 14.77 19.106L15.083 19.195L18.531 20.383L18.792 20.623L21.553 26.909L21.189 27.529L17.241 27.911L16.668 35.177L16.226 35.586ZM7.31001 34.699H15.816L16.387 27.471L16.787 27.064L20.495 26.705L18.059 21.156L14.798 20.022C14.273 20.482 12.952 23.192 11.975 25.573H11.155C10.171 23.18 8.842 20.455 8.322 20.016L5.12101 21.156L2.63701 26.707L6.34301 27.066L6.74301 27.473L7.31001 34.699Z" fill="black"/>
<path d="M6.66699 32.235H16.459L16.222 35.117H6.89699L6.66699 32.235Z" fill="white"/>
<path d="M16.222 35.56H6.89701L6.45501 35.152L6.22501 32.271L6.66701 31.792H16.459L16.901 32.272L16.664 35.153L16.222 35.56ZM7.30701 34.673H15.814L15.978 32.679H7.14801L7.30701 34.673Z" fill="black"/>
<path d="M6.177 43.88L4.993 40.597L4.468 33.902L5.863 27.463L1.982 27.088L1.213 34.12L2.681 42.807L2.786 43.463L6.177 43.88Z" fill="white"/>
<path d="M6.123 44.32L2.732 43.903L2.34899 43.533L2.24399 42.877L0.772995 34.071L1.542 27.039L2.026 26.646L5.90699 27.021L6.297 27.556L4.91599 33.931L5.432 40.502L6.59499 43.728L6.123 44.32ZM3.17099 43.063L5.516 43.351L4.552 40.632L4.02699 33.937L4.03599 33.808L5.325 27.856L2.37599 27.571L1.66199 34.106L3.17099 43.063Z" fill="black"/>
<path d="M43.18 53.603H41.158H38.132L37.664 55.664L38.084 60.27L38.356 67.494H40.588L40.995 60.27L41.43 57.272L42.02 56.508H42.32L42.908 57.27L43.434 60.27L43.729 67.494L46.035 67.427L46.229 60.27L46.675 55.664L46.106 53.603H43.18Z" fill="white"/>
<path d="M40.588 67.937H38.356L37.912 67.51L37.639 60.286L37.222 55.704L37.231 55.565L37.699 53.504L38.131 53.159H46.105L46.532 53.485L47.114 55.706L46.668 60.312L46.476 67.439L46.045 67.87L43.739 67.937L43.283 67.511L42.987 60.287L42.487 57.454L42.167 57.039L41.849 57.451L41.431 60.333L41.027 67.518L40.588 67.937ZM38.784 67.05H40.169L40.554 60.245L40.992 57.209L41.08 57.001L41.67 56.237L42.021 56.065H42.321L42.672 56.238L43.345 57.194L43.87 60.194L44.154 67.039L45.602 66.997L45.785 60.259L46.225 55.704L45.769 54.048H38.487L38.113 55.695L38.525 60.231L38.784 67.05Z" fill="black"/>
<path d="M43.18 53.603H41.158H38.132L37.664 55.664L37.768 60.27H41.546L41.72 57.268L42.02 56.508H42.32L42.624 57.296L42.761 60.27H46.571L46.675 55.664L46.106 53.603H43.18Z" fill="white"/>
<path d="M46.571 60.713H42.762L42.318 60.29L42.167 57.343L42.159 57.365L41.989 60.295L41.547 60.713H37.769L37.325 60.279L37.221 55.673L37.7 53.504L38.132 53.159H46.106L46.533 53.485L47.117 55.673L47.013 60.279L46.571 60.713ZM43.185 59.826H46.137L46.229 55.719L45.768 54.047H38.486L38.096 55.762L38.2 59.826H41.128L41.307 57.105L41.607 56.346L42.019 56.065H42.319L42.732 56.349L43.066 57.276L43.185 59.826Z" fill="black"/>
<path d="M38.107 68.321H40.66C40.66 68.321 41.157 67.163 39.385 66.886C39.384 66.886 37.885 66.979 38.107 68.321Z" fill="white"/>
<path d="M40.659 68.764H38.106L37.668 68.393C37.565 67.768 37.767 67.355 37.956 67.118C38.435 66.516 39.264 66.449 39.356 66.443C40.226 66.568 40.748 66.865 41.004 67.327C41.312 67.885 41.093 68.435 41.066 68.496L40.659 68.764ZM38.549 67.877H40.271C40.263 67.835 40.249 67.792 40.225 67.75C40.108 67.549 39.786 67.398 39.316 67.324C39.269 67.339 38.847 67.422 38.648 67.673C38.602 67.733 38.569 67.8 38.549 67.877Z" fill="black"/>
<path d="M46.208 68.321H43.653C43.653 68.321 43.159 67.163 44.93 66.886C44.931 66.886 46.428 66.979 46.208 68.321Z" fill="white"/>
<path d="M46.208 68.764H43.653L43.245 68.495C43.219 68.434 43 67.884 43.309 67.327C43.565 66.865 44.089 66.569 44.863 66.448C45.051 66.449 45.877 66.517 46.358 67.118C46.546 67.354 46.749 67.766 46.647 68.393L46.208 68.764ZM44.041 67.877H45.764C45.744 67.799 45.711 67.731 45.662 67.671C45.425 67.374 44.908 67.329 44.902 67.329C44.528 67.398 44.204 67.549 44.088 67.751C44.064 67.792 44.049 67.836 44.041 67.877Z" fill="black"/>
<path d="M37.564 42.498L32.646 41.494L30.294 37.096L28.511 38.08L30.976 42.498L32.366 43.38L37.939 44.792L37.564 42.498Z" fill="white"/>
<path d="M37.831 45.222L32.129 43.755L30.589 42.714L28.124 38.295L28.297 37.691L30.08 36.707L30.685 36.887L32.938 41.101L37.652 42.064L38.001 42.427L38.376 44.721L37.831 45.222ZM32.544 42.968L37.392 44.196L37.176 42.872L32.557 41.928L32.254 41.703L30.115 37.701L29.115 38.253L31.308 42.184L32.544 42.968Z" fill="black"/>
<path d="M45.501 35.567L45.228 35.718L45.338 34.373C45.237 34.24 44.323 33.024 44.323 33.024L43.058 33.238L38.716 34.943L38.726 35.733L38.425 35.567L38.132 35.656V37.116L39.081 38.011L39.305 39.276L40.705 40.761V42.1L40.099 42.456L42.024 46.225L43.401 43.306L43.944 42.458L43.401 42.168V40.762L44.611 39.277L44.847 38.012L45.801 37.117V35.657L45.501 35.567Z" fill="white"/>
<path d="M41.629 46.425L39.704 42.656L39.875 42.072L40.262 41.844V40.935L38.983 39.578L38.869 39.351L38.67 38.231L37.828 37.437L37.688 37.114V35.654L38.003 35.23L38.274 35.147L38.272 34.947L38.554 34.528L42.896 32.823L44.249 32.585L44.678 32.755L45.692 34.104L45.781 34.407L45.719 35.167L45.928 35.229L46.246 35.654V37.114L46.106 37.437L45.257 38.232L44.957 39.553L43.846 40.915V41.9L44.154 42.065L44.318 42.695L43.775 43.543L42.426 46.413L41.629 46.425ZM40.685 42.626L42.009 45.218L43.001 43.115L43.314 42.622L43.193 42.557L42.959 42.166V40.76L43.058 40.48L44.197 39.083L44.412 37.929L44.545 37.687L45.359 36.924V36.051L44.787 35.683L44.883 34.505L44.132 33.506L43.133 33.675L39.164 35.244L39.171 35.728L38.576 36.085V36.925L39.386 37.688L39.519 37.933L39.72 39.067L41.029 40.455L41.15 40.759V42.098L40.93 42.48L40.685 42.626Z" fill="black"/>
<path d="M48.257 42.136L46.187 42.494L43.848 42.455C43.848 42.455 42.874 42.786 42.022 43.117L40.195 42.455L37.856 42.494L35.787 42.136V44.247L37.633 44.692L37.664 45.658L37.829 53.931H46.481V46.223V44.675L48.256 44.246V42.136H48.257Z" fill="#8BC53F"/>
<path d="M46.482 54.374H37.83L37.386 53.939L37.201 45.043L35.683 44.677L35.343 44.246V42.135L35.862 41.698L37.931 42.055L40.188 42.01L40.346 42.037L42.017 42.642C42.836 42.329 43.705 42.034 43.705 42.034L43.855 42.01L46.194 42.049L48.182 41.698L48.701 42.135V44.246L48.361 44.677L46.925 45.024V53.93L46.482 54.374ZM38.264 53.487H46.039V44.675L46.379 44.244L47.815 43.898V42.663L46.264 42.931L43.921 42.9C43.683 42.982 42.892 43.256 42.185 43.531L41.873 43.535L40.123 42.901L37.865 42.939L36.233 42.663V43.899L37.739 44.262L38.079 44.679L38.11 45.645L38.264 53.487Z" fill="black"/>
<path d="M38.703 33.798L42.893 32.168L43.651 31.214L44.633 32.301L45.338 34.08V35.346L44.548 34.424L39.467 34.984L38.727 35.732L38.703 33.798Z" fill="white"/>
<path d="M39.042 36.044L38.283 35.738L38.259 33.804L38.542 33.385L42.62 31.799L43.303 30.939L43.98 30.918L45.045 32.138L45.782 34.081V35.347L45.001 35.636L44.363 34.892L39.671 35.409L39.042 36.044ZM39.15 34.1L39.157 34.669L39.419 34.543L44.5 33.983L44.883 34.134L44.25 32.538L43.673 31.9L43.241 32.444L43.054 32.581L39.15 34.1Z" fill="black"/>
<path d="M30.332 37.048L29.017 35.884L29.033 35.867L28.157 35.125L28.116 35.088L28.115 35.089L22.83 30.609L21.149 27.088L16.829 27.506L20.564 33.318L26.382 37.065L28.148 40.142L30.332 37.048Z" fill="white"/>
<path d="M28.511 40.398L27.764 40.363L26.051 37.379L20.192 33.558L16.457 27.746L16.787 27.065L21.107 26.647L21.551 26.897L23.191 30.332L30.627 36.716L30.696 37.304L28.511 40.398ZM20.885 32.998L26.766 36.844L28.186 39.318L29.741 37.117L27.871 35.464L22.429 30.8L20.881 27.56L17.594 27.878L20.885 32.998Z" fill="black"/>
</svg>
