<?xml version="1.0" encoding="utf-8"?>
<!-- Generator: Adobe Illustrator 23.0.1, SVG Export Plug-In . SVG Version: 6.00 Build 0)  -->
<svg version="1.1" id="Layer_1" xmlns="http://www.w3.org/2000/svg" xmlns:xlink="http://www.w3.org/1999/xlink" x="0px" y="0px"
	 viewBox="0 0 105.2 102.3" style="enable-background:new 0 0 105.2 102.3;" xml:space="preserve">
<rect x="35.1" y="1.6" width="4.8" height="46.9" fill="#FFC736"/>
<path d="M70.6,43.7H39.9V14.6c0-1.3-1.1-2.4-2.4-2.4S35,13.2,35,14.6V34H5.9H1v46.1c0,1.3,1.1,2.4,2.4,2.4h55.8
	c1.3,0,2.4-1.1,2.4-2.4c0-1.3-1.1-2.4-2.4-2.4H39.9v-6.5c0-1.3-1.1-2.4-2.4-2.4S35,69.9,35,71.2v6.5H5.9V38.8H35v13
	c0,1.3,1.1,2.4,2.4,2.4s2.4-1.1,2.4-2.4v-3.2h30.7c1.3,0,2.4-1.1,2.4-2.4C73,44.8,72,43.7,70.6,43.7z" fill="#FFC736"/>
<path d="M102.2,0H35v4.9h64.7v38.8h-13v-6.5c0-1.3-1.1-2.4-2.4-2.4c-1.3,0-2.4,1.1-2.4,2.4v8.9
	c0,1.3,1.1,2.4,2.4,2.4h15.4v48.5h-21V80.9c0-1.3-1.1-2.4-2.4-2.4s-2.4,1.1-2.4,2.4v18.6c0,1.3,1.1,2.4,2.4,2.4h25.9
	c1.3,0,2.4-1.1,2.4-2.4V2.4C104.6,1.1,103.5,0,102.2,0z" fill="#FFC736"/>
</svg>
