<?xml version="1.0" encoding="utf-8"?>
<!-- Generator: Adobe Illustrator 23.0.1, SVG Export Plug-In . SVG Version: 6.00 Build 0)  -->
<svg version="1.1" id="Layer_1" xmlns="http://www.w3.org/2000/svg" xmlns:xlink="http://www.w3.org/1999/xlink" x="0px" y="0px"
	 viewBox="0 0 118.9 116.5" style="enable-background:new 0 0 118.9 116.5;" xml:space="preserve">
<path d="M115.4,0.9H3.4c-1.5,0-2.8,1.2-2.8,2.8v88.1c0,1.5,1.2,2.8,2.8,2.8h63.3c1.5,0,2.8-1.2,2.8-2.8
c0-1.5-1.2-2.8-2.8-2.8h-22v-7.3c0-1.5-1.2-2.8-2.8-2.8s-2.8,1.2-2.8,2.8V89h-33v-44h33v14.7c0,1.5,1.2,2.8,2.8,2.8
s2.8-1.2,2.8-2.8V56h34.9c1.5,0,2.8-1.2,2.8-2.8c0-1.5-1.2-2.8-2.8-2.8H44.7v-33c0-1.5-1.2-2.8-2.8-2.8s-2.8,1.2-2.8,2.8v22h-33
v-33h106.4v44H97.9v-7.3c0-1.5-1.2-2.8-2.8-2.8s-2.8,1.2-2.8,2.8v10.1c0,1.5,1.2,2.8,2.8,2.8h17.4v55H88.8V92.7
c0-1.5-1.2-2.8-2.8-2.8s-2.8,1.2-2.8,2.8v21.1c0,1.5,1.2,2.8,2.8,2.8h29.4c1.5,0,2.8-1.2,2.8-2.8V3.7
C118.1,2.1,116.9,0.9,115.4,0.9L115.4,0.9z" fill="#FFC736"/>
</svg>
