<svg xmlns="http://www.w3.org/2000/svg" viewBox='0 0 70 100'><path d="M66.266 1H.975v80.344H24.52a2.36 2.36 0 0 0 2.361-2.361c0-1.3-1.054-2.37-2.36-2.37H5.613v-.765h.007V48.26h29.922a2.37 2.37 0 0 0 2.371-2.361c0-1.307-1.064-2.36-2.37-2.36H5.62V5.722h58.285v37.816h-12.61v-6.31a2.36 2.36 0 1 0-4.722 0v8.67a2.36 2.36 0 0 0 2.361 2.361h14.97v47.26H43.42V79.767c0-1.308-1.054-2.36-2.36-2.36s-2.36 1.054-2.36 2.36V97.88c0 1.307 1.054 2.36 2.36 2.36h25.207c1.307 0 2.36-1.054 2.36-2.36V3.36A2.36 2.36 0 0 0 66.266 1z" fill="#FFC736"/></svg>
