<svg xmlns="http://www.w3.org/2000/svg" width="9" height="9" viewBox="0 0 9 9"><g><g><path d="M4.506 9c.27 0 .53-.114.709-.313 1.178-1.293 2.352-2.53 3.53-3.84a1.012 1.012 0 0 0 .254-.706.849.849 0 0 0-.312-.638c-.395-.313-1.008-.217-1.366.165-.618.662-1.234 1.293-1.852 1.94-.004-2.091-.015-3.98-.045-5.278-.008-.324-.442-.446-.968-.444-.526 0-.944.122-.94.445.017 1.297.022 3.183.024 5.272-.62-.647-1.238-1.277-1.857-1.938-.358-.382-.972-.479-1.365-.166a.854.854 0 0 0-.31.64.996.996 0 0 0 .253.704c1.177 1.31 2.354 2.546 3.531 3.84A.97.97 0 0 0 4.506 9z"/></g></g></svg>