<svg xmlns="http://www.w3.org/2000/svg" viewBox="0 0 512 512"><path d="M161.8 330.9c-4.3 0-7.7 1.6-10.2 4.7s-3.7 7.1-3.7 12v10.6c0 4.9 1.2 8.9 3.7 12.1 2.5 3.1 5.9 4.7 10.1 4.7 4.5 0 8-1.6 10.6-4.7s3.9-7.2 3.9-12.1v-10.6c0-4.9-1.3-8.9-3.9-12-2.5-3.1-6-4.7-10.5-4.7zm203.8-45H40.3v133.9h276.3l49-133.9zM127 357.4c0 7.3-2.3 13.2-6.9 17.8s-10.6 6.9-18 6.9H82.8v-58.3H102c7.4 0 13.4 2.3 18 6.9s6.9 10.6 6.9 17.8l.1 8.9zm59 .8c0 7.1-2.2 13-6.7 17.7s-10.3 7-17.4 7c-7 0-12.6-2.3-17-7s-6.6-10.6-6.6-17.7v-10.5c0-7.1 2.2-13 6.5-17.7 4.4-4.7 10-7 17-7 7.1 0 12.9 2.4 17.4 7 4.5 4.7 6.7 10.6 6.7 17.7v10.5h.1zm24.2 12.3c2.3 3.1 5.6 4.7 9.6 4.7s7-1 9.1-3.1 3.1-5.1 3.1-9h9.4l.1.2c.1 5.9-1.8 10.6-5.7 14.2s-9.2 5.4-15.9 5.4c-6.8 0-12.3-2.3-16.5-6.9s-6.3-10.4-6.3-17.6v-11.1c0-7.1 2.1-13 6.2-17.6 4.2-4.6 9.6-6.9 16.3-6.9 6.9 0 12.3 1.7 16.2 5.2s5.9 8.3 5.7 14.4l-.1.2H232c0-3.9-1.1-6.9-3.2-9s-5.2-3.1-9.3-3.1c-4 0-7.1 1.6-9.4 4.7s-3.5 7.1-3.5 11.9v11.2c.1 5 1.3 9 3.6 12.2zm75.8 11.6l-12.7-21.9-12.7 21.9h-11.5l18.3-29.4-17.9-28.9H261l12.2 21.5 12.3-21.5H297l-17.9 28.9 18.6 29.4H286zm-184-50.5h-9.5v42.7h9.5c4.7 0 8.4-1.6 11.1-4.7 2.7-3.2 4.1-7.2 4.1-12.2v-8.9c0-4.9-1.4-9-4.1-12.1-2.7-3.2-6.4-4.8-11.1-4.8zM352.9 6H107.4c-7.3 0-13.3 6-13.3 13.3v256.8h26.6V32.6h232.2v92.2h92.2v354.6H120.7v-49.8H94.1v63.1c0 7.3 6 13.3 13.3 13.3h351c7.3 0 13.3-6 13.3-13.3V124.8L352.9 6zM156.2 171.4h253.4V191H156.2v-19.6zm0 38.1h213.3v19.6H156.2v-19.6z"/></svg>