<?xml version="1.0" encoding="utf-8"?>
<!-- Generator: Adobe Illustrator 23.0.1, SVG Export Plug-In . SVG Version: 6.00 Build 0)  -->
<svg version="1.1" id="Layer_1" xmlns="http://www.w3.org/2000/svg" xmlns:xlink="http://www.w3.org/1999/xlink" x="0px" y="0px"
	 viewBox="0 0 18 18" style="enable-background:new 0 0 18 18;" xml:space="preserve">
<path d="M17.2,17.9H0.8c-0.4,0-0.7-0.3-0.7-0.7V0.8c0-0.4,0.3-0.7,0.7-0.7h8.1c0.4,0,0.7,0.3,0.7,0.7S9.3,1.5,8.9,1.5H1.5v15h15V9.1
	c0-0.4,0.3-0.7,0.7-0.7c0.4,0,0.7,0.3,0.7,0.7v8.1C17.9,17.6,17.6,17.9,17.2,17.9z"/>
<path d="M9,9.7c-0.2,0-0.4-0.1-0.5-0.2l0,0C8.4,9.3,8.3,9.2,8.3,9s0.1-0.4,0.2-0.5l7-7.1h-3.6c-0.4,0-0.7-0.3-0.7-0.7S11.5,0,11.9,0
	h5.4l0,0l0,0l0,0l0,0l0,0h0.1l0,0l0.1,0.1c0.1,0,0.1,0.1,0.2,0.2l0,0c0,0,0,0,0,0.1l0,0c0,0,0,0,0,0.1v0.1V6c0,0.4-0.3,0.7-0.7,0.7
	c-0.4,0-0.7-0.3-0.7-0.7V2.5l-7,7C9.4,9.6,9.2,9.7,9,9.7z"/>
<polygon points="17.7,0.7 17.7,0.7 17.7,0.7 "/>
<path d="M17.7,0.6L17.7,0.6L17.7,0.6z"/>
<path d="M17.6,0.6L17.6,0.6L17.6,0.6z"/>
</svg>
