<svg xmlns="http://www.w3.org/2000/svg" viewBox="0 0 32 32"><path d="M22 25v1h2a.94.94 0 0 0 1-1V8h-4c-1.1 0-2-.9-2-2V1H9c-.6 0-1 .5-1 1v23a1.08 1.08 0 0 0 1 1h8v-1c-1.4-1.4-1.3-3.6.1-4.9s3.6-1.3 4.9.1c1.3 1.2 1.3 3.4 0 4.8zm-4 .7v3.9l1.5-1.5 1.5 1.5v-3.9c-.5.2-1 .3-1.5.3s-1-.1-1.5-.3zm4 1.3h2c1.1 0 2-.9 2-2V7l-6-7H9C7.9 0 7 .9 7 2v23c0 1.1.9 2 2 2h8v5l2.5-2.5L22 32v-5zM20 1.5V6c0 .6.5 1 1 1h3.7L20 1.5zM10 7v1h7V7h-7zm0-3v1h7V4h-7zm0 6v1h13v-1H10zm0 3v1h13v-1H10zm0 3v1h13v-1H10zm9.5 9c1.4 0 2.5-1.1 2.5-2.5S20.9 20 19.5 20 17 21.1 17 22.5s1.1 2.5 2.5 2.5z" fill-rule="evenodd"/></svg>