<svg xmlns="http://www.w3.org/2000/svg" viewBox="0 0 11 14"><path d="M8.8 8.8c0 .1-.1.1-.2.1s-.3 0-.8-.4h.1c.4 0 .7.1.8.1 0 .1.1.1.1.2zm-4.1 0l.6-2.1 1.2 1.5-1.8.6zm0-4.5c0-.3.1-.4.2-.4 0 0 .1.1.1.4v.6c-.2-.3-.3-.5-.3-.6zM3.2 11c-.1.1-.1.1 0 0-.2.1-.3 0-.3-.1s-.1-.3.1-.4c.1-.1.3-.2.7-.5l-.5 1zm4-3L5.5 5.8l.2-1.4c0-1.4-1.6-1.4-1.6 0 0 .3.3.8.7 1.6-.2 1-.5 2.1-.8 3.1-.7.3-1.2.6-1.5.9s-.4.8-.3 1.2.5.6.8.6c.2 0 .4-.1.6-.2.1-.1.4-.4.9-1.9.8-.5 1.8-.8 2.5-1 .6.6 1.1.9 1.5.9.5 0 .9-.4.9-.8 0-.3-.2-.5-.4-.7-.3-.2-.6-.2-1.1-.2-.1 0-.4 0-.7.1zm3.2 4.5c0 .3-.2.8-.5.8H1.5c-.4 0-.8-.5-.8-.8V1.2c0-.3.5-.5.8-.5h5.3v2.2c0 .7.7 1.5 1.5 1.5h2.1v8.1zM7.4 1L10 3.7H8.3c-.4 0-.8-.5-.8-.8L7.4 1zm3.5 2.6L7.5.1C7.4 0 7.4 0 7.3 0H1.5C.8 0 0 .4 0 1.2v11.3c0 .7.7 1.5 1.5 1.5h8.4c.7 0 1.1-.8 1.1-1.5V3.8c0-.1 0-.1-.1-.2z"/></svg>