<svg xmlns="http://www.w3.org/2000/svg" viewBox="0 0 102 102"><path d="M92 102H10c-5.52 0-10-4.48-10-10V10C0 4.48 4.48 0 10 0h82c5.52 0 10 4.48 10 10v82c0 5.52-4.48 10-10 10z" fill="#969698"/><g fill="#fff"><path d="M50 25.6l12.53.18c3.02.14 4.66.64 5.76 1.07 1.45.56 2.48 1.23 3.56 2.32 1.08 1.08 1.76 2.12 2.32 3.56.42 1.1.93 2.73 1.07 5.76.15 3.27.18 4.25.18 12.53l-.18 12.53c-.14 3.02-.64 4.66-1.07 5.76-.56 1.45-1.23 2.48-2.32 3.56-1.08 1.08-2.12 1.76-3.56 2.32-1.1.42-2.73.93-5.76 1.07-3.27.15-4.25.18-12.53.18s-9.26-.03-12.53-.18c-3.02-.14-4.66-.64-5.76-1.07-1.45-.56-2.48-1.23-3.56-2.32-1.08-1.08-1.76-2.12-2.32-3.56-.42-1.1-.93-2.73-1.07-5.76-.15-3.27-.18-4.25-.18-12.53l.18-12.53c.14-3.02.64-4.66 1.07-5.76.56-1.45 1.23-2.48 2.32-3.56 1.08-1.08 2.12-1.76 3.56-2.32 1.1-.42 2.73-.93 5.76-1.07 3.27-.15 4.25-.18 12.53-.18m0-5.6c-8.42 0-9.47.04-12.78.2-3.3.15-5.55.67-7.52 1.44-2.04.8-3.77 1.85-5.5 3.58a15.31 15.31 0 0 0-3.58 5.49c-.77 1.97-1.3 4.23-1.44 7.52-.15 3.3-.2 4.36-.2 12.78l.2 12.78c.15 3.3.67 5.55 1.44 7.52.8 2.04 1.85 3.77 3.58 5.5a15.31 15.31 0 0 0 5.49 3.58c1.97.77 4.23 1.3 7.52 1.44 3.3.15 4.36.2 12.78.2s9.47-.04 12.78-.2c3.3-.15 5.55-.67 7.52-1.44 2.04-.8 3.77-1.85 5.5-3.58a15.31 15.31 0 0 0 3.58-5.49c.77-1.97 1.3-4.23 1.44-7.52.15-3.3.2-4.36.2-12.78s-.04-9.47-.2-12.78c-.15-3.3-.67-5.55-1.44-7.52-.8-2.04-1.85-3.77-3.58-5.5a15.31 15.31 0 0 0-5.49-3.58c-1.97-.77-4.23-1.3-7.52-1.44-3.3-.15-4.36-.2-12.78-.2zm0 15.08a15.92 15.92 0 1 0 0 31.84c8.8 0 15.92-7.12 15.92-15.92S58.8 35.08 50 35.08zm0 26.25A10.34 10.34 0 0 1 39.67 51 10.34 10.34 0 0 1 50 40.67 10.34 10.34 0 0 1 60.33 51 10.34 10.34 0 0 1 50 61.33z"/><circle cx="66.55" cy="34.45" r="3.72"/></g></svg>