<svg width="247" height="92" fill="none" xmlns="http://www.w3.org/2000/svg"><path d="M50.6 47.5l-3.2 2.6c-.7.6-1.3 1.4-2.1 1.9-1.6.9-2.5 2.1-2.4 3.9.1 1.5 1.8 3.4 3.3 3.6 1.8.3 3.3-.4 4.1-2.1a3.6 3.6 0 012.2-2c1.7-.6 2.6-2.6 2.3-4.2-.3-1.6-2.2-3.2-4.2-3.7z" fill="#C51B31"/><path d="M.4.3v61c2.5 11.3 11 17.5 20 23.2 3.7 2.3 7.7 4.2 11.5 6.3.6.3 1.1.7 1.7 1.1h.8c.6-.4 1.2-.9 1.9-1.2 6.5-3.2 12.8-6.6 18.5-11.1 6.1-4.8 11.2-10.3 12.8-18.2V.4C45.1.3 22.8.3.4.3zm31.8 42.1c-1.2 1.3-2.6 2.5-2.8 4.4 0 .3-.8.8-1.3.8-1.4.2-2.2.7-1.7 2.3.4 1.2.5 2.6.9 3.8.9 2.5 0 4.8-1.2 6.7-1.5 2.3-6.4 2.3-9 .5-.5-.4-1-.8-1.3-.7-1 .5-2 1.1-3 1.4-.3.1-1.3-.8-1.2-1.2.2-1.1.8-2.1 1.3-3.3-2.2-2-3.3-4.7-1.8-8.1a6.5 6.5 0 017.1-3.5c1.4.3 2.9.4 4.3.7 1.5.3 1.9-.5 1.9-1.7 0-1.1.5-1.5 1.5-1.7.9-.2 1.7-1 2.4-1.7 1.1-1 2-2.1 3.2-3.4-3-3.1-6-6-8.9-9-2.7-2.9-5.3-5.8-7.8-8.8-.4-.5-.3-1.9.1-2.3.4-.4 1.6-.3 2.3-.1.5.1.8.7 1.3 1.1 1.8-1.6 3.5-3.2 5.7-5.2.3 1.7.6 2.9.8 4.2 1.1.2 2.3.5 4.1.9-2.2 2.1-3.9 3.7-5.8 5.4 3.4 3.7 6.8 7.4 10.3 11.3 3.5-3.8 6.8-7.4 10.2-11-1.6-1.8-3.3-3.6-5.3-5.7 1.5-.4 2.7-.6 3.9-.9.2-1.1.4-2.4.6-4.2 2.2 2.1 4 3.7 5.8 5.4.5-.5.9-1.1 1.5-1.2.7-.2 1.8-.3 2.2.1.4.4.4 1.4.3 2.2-.1.5-.7.9-1.1 1.3-6.2 6.9-12.9 14-19.5 21.2zm24.1 18.1c.1.3-1 1.2-1.4 1.1-1-.2-2.4-.2-2.4-2-.7.5-1.3 1-1.9 1.4-2.5 1.7-7 1.4-8.9-.5C40.3 59 40 55 41 52.7c.5-1.1.8-2.4.7-3.5 0-.5-1-1-1.7-1.5-.4-.3-1.4-.4-1.4-.6-.2-2.4-2.3-3.5-3.4-5.5.7-.8 1.5-1.6 2.4-2.6 1.1 1.2 2.2 2.3 3.3 3.4.2.2.6.4.9.4 1.1 0 1.6.5 1.6 1.6 0 1.3.4 2.1 2 1.7 1.2-.3 2.5-.3 3.8-.6 2-.4 6.1.6 6.9 1.8 1.8 2.8 1.7 6.5-.2 8.7-.4.5-.8.9-.9 1 .5 1.4 1.1 2.4 1.3 3.5z" fill="#C51B31"/><path d="M22.6 52c-.8-.5-1.6-1.2-2.2-2-1-1.5-2.7-2.4-4.4-2-1.4.3-3 2.3-3 4.5 0 1 .9 2.1 2.3 3 .8.5 1.6 1.2 2.2 2 1.1 1.5 2.4 2.4 4.2 2 1.7-.4 2.8-1.6 3.1-3.3.4-1.8-.5-3.2-2.2-4.2z" fill="#C51B31"/><path d="M77.2 10.3h.8c.7-.4.9-1.6 1.2-3.7.2-2 .5-5.8.5-5.8H87v9.5h1.4v4h-1.7V12H79v2.3h-1.7v-4h-.1zm3 0H85V2.5h-3.7c-.1.9-.2 2.9-.4 4.6-.1 1.4-.3 2.4-.7 3.2zM89.3 8c0-2.5 1.7-4.2 3.9-4.2 2.1 0 3.8 1.4 3.8 4.4v.3h-5.8c.2 1.3 1.2 1.9 2.3 1.9.7 0 1.4-.3 1.9-.8l1.2 1.2c-.9.8-2 1.2-3.2 1.2-2.2.2-4.1-1.4-4.1-4zm5.8-.7c-.1-1-.8-1.9-1.9-1.9-1.1 0-1.8.9-2 1.9h3.9zM98.7 4h6.8v8h-1.8V5.6h-3.2V12h-1.8V4zM107.1 9.6c0-1.3 1-2.6 3.5-2.6.4 0 1 0 1.5.1v-.3c0-.9-.6-1.4-1.6-1.4-.8 0-1.5.3-2 .7l-1-1.1c.8-.7 2-1.1 3.2-1.1 2.1 0 3.3 1.1 3.3 3.1v5h-1.8v-.8c-.5.6-1.2 1-2.3 1-1.6 0-2.8-1.1-2.8-2.6zm5.1-.8v-.4c-.4-.1-.9-.1-1.3-.1-1.3 0-1.9.5-1.9 1.2 0 .6.5 1.1 1.4 1.1 1 .1 1.8-.7 1.8-1.8zM117.9 15h-1.8V4h1.8v1.1c.4-.7 1.3-1.3 2.5-1.3 2.1 0 3.7 1.7 3.7 4.2 0 2.4-1.6 4.2-3.7 4.2-1.2 0-2.1-.6-2.5-1.3V15zm2.2-4.4c1.3 0 2.2-1.1 2.2-2.6s-.9-2.6-2.2-2.6c-1.3 0-2.2 1.1-2.2 2.6s.9 2.6 2.2 2.6zM127.4 5.6H125V4h6.8l-.5 1.5h-2V12h-1.8V5.6h-.1zM132.5 9.6c0-1.3 1-2.6 3.5-2.6.4 0 1 0 1.5.1v-.3c0-.9-.6-1.4-1.6-1.4-.8 0-1.5.3-2 .7l-1-1.1c.8-.7 2-1.1 3.2-1.1 2.1 0 3.3 1.1 3.3 3.1v5h-1.8v-.8c-.5.6-1.2 1-2.3 1-1.6 0-2.8-1.1-2.8-2.6zm5.1-.8v-.4c-.4-.1-.9-.1-1.3-.1-1.3 0-1.9.5-1.9 1.2 0 .6.5 1.1 1.4 1.1 1 .1 1.8-.7 1.8-1.8zM142.7 4h1.5l2.1 5.3 2.1-5.3h1.4l2 8h-1.9l-1.1-4.9-2 4.9h-1.2l-1.9-4.9-1.1 4.9h-1.8l1.9-8zM152.7 8c0-2.5 1.7-4.2 3.9-4.2 2.1 0 3.8 1.4 3.8 4.4v.3h-5.8c.2 1.3 1.2 1.9 2.3 1.9.7 0 1.4-.3 1.9-.8l1.2 1.2c-.9.8-2 1.2-3.2 1.2-2.2.2-4.1-1.4-4.1-4zm5.7-.7c-.1-1-.8-1.9-1.9-1.9-1.1 0-1.8.9-2 1.9h3.9zM162 4h1.8v3.1h3.2V4h1.8v8H167V8.7h-3.2V12H162V4zM172.7 5.6h-2.4V4h6.8l-.5 1.5h-2V12h-1.8V5.6h-.1zM78.2 23.2h5.3l-.5 1.6h-3v6.4h-1.8v-8zM83.9 27.2c0-2.4 1.7-4.2 4-4.2s4 1.7 4 4.2c0 2.4-1.7 4.2-4 4.2s-4-1.8-4-4.2zm6.1 0c0-1.5-.9-2.6-2.1-2.6-1.3 0-2.1 1.1-2.1 2.6s.8 2.5 2.1 2.5c1.3.1 2.1-1 2.1-2.5zM95.5 34.2h-1.8v-11h1.8v1.1c.4-.7 1.3-1.3 2.5-1.3 2.1 0 3.7 1.7 3.7 4.2 0 2.4-1.6 4.2-3.7 4.2-1.2 0-2.1-.6-2.5-1.3v4.1zm2.1-4.4c1.3 0 2.2-1.1 2.2-2.6s-.9-2.6-2.2-2.6c-1.3 0-2.2 1.1-2.2 2.6s.9 2.6 2.2 2.6zM102.9 27.2c0-2.4 1.7-4.2 4-4.2s4 1.7 4 4.2c0 2.4-1.7 4.2-4 4.2s-4-1.8-4-4.2zm6.2 0c0-1.5-.9-2.6-2.1-2.6-1.3 0-2.1 1.1-2.1 2.6s.8 2.5 2.1 2.5c1.2.1 2.1-1 2.1-2.5zM111.7 29.7h.5c.5-.3.8-1.2.9-2.3.3-1.9.4-4.2.4-4.2h5.6v6.4h1.2v3.5h-1.7v-2h-5.3v2h-1.7v-3.4h.1zm2.5 0h3.1v-4.9h-2.2c0 .8-.1 1.8-.3 2.8 0 .7-.2 1.5-.6 2.1zM121.3 27.2c0-2.4 1.7-4.2 3.9-4.2a4 4 0 012.9 1.1l-1.2 1.1c-.4-.4-.9-.7-1.7-.7-1.3 0-2.1 1.1-2.1 2.6s.9 2.6 2.1 2.6c.8 0 1.3-.3 1.7-.7l1.2 1.1a4 4 0 01-2.9 1.1c-2.2.2-3.9-1.6-3.9-4zM129.4 23.2h1.8v3.2h.7l2.3-3.2h2l-2.8 3.8 3.2 4.2h-2.2l-2.5-3.3h-.8v3.3h-1.8v-8h.1zM137.2 27.2c0-2.4 1.7-4.2 4-4.2s4 1.7 4 4.2c0 2.4-1.7 4.2-4 4.2-2.2 0-4-1.8-4-4.2zm6.2 0c0-1.5-.9-2.6-2.1-2.6-1.3 0-2.1 1.1-2.1 2.6s.8 2.5 2.1 2.5c1.2.1 2.1-1 2.1-2.5zM147 23.2h5.3l-.6 1.6h-2.9v6.4H147v-8zM152.7 27.2c0-2.4 1.7-4.2 4-4.2s4 1.7 4 4.2c0 2.4-1.7 4.2-4 4.2s-4-1.8-4-4.2zm6.1 0c0-1.5-.9-2.6-2.1-2.6-1.3 0-2.1 1.1-2.1 2.6s.8 2.5 2.1 2.5c1.2.1 2.1-1 2.1-2.5zM166.4 23.2h1.8v5.1l3.5-5.1h1.6v8h-1.8v-5.1l-3.5 5.1h-1.6v-8zM176.7 23.2h1.5l2.1 5.3 2.1-5.3h1.4l2 8h-1.9l-1.1-4.9-2 4.9h-1.2l-1.9-4.9-1.1 4.9h-1.8l1.9-8zM185.9 33.6l1.2-1.2c.2.2.5.3.8.3.7 0 1.1-.4 1.4-1.5l-3.2-8h2.1l2.1 5.6 1.9-5.6h2l-3 8.3c-.6 1.7-1.6 2.8-3.2 2.8-.8.1-1.5-.2-2.1-.7zM204.9 31.2h-9.7v-8h1.8v6.4h2.3v-6.4h1.8v6.4h2.3v-6.4h1.8v6.4h1.2v3.5h-1.7v-1.9h.2zM207.5 27.2c0-2.5 1.7-4.2 3.9-4.2 2.1 0 3.8 1.4 3.8 4.4v.3h-5.8c.2 1.3 1.2 1.9 2.3 1.9.7 0 1.4-.3 1.9-.8l1.2 1.2c-.9.8-2 1.2-3.2 1.2-2.2.2-4.1-1.4-4.1-4zm5.8-.7c-.1-1-.8-1.9-1.9-1.9-1.1 0-1.8.9-2 1.9h3.9zM216.4 27.2c0-2.4 1.7-4.2 3.9-4.2a4 4 0 012.9 1.1l-1.2 1.1c-.4-.4-.9-.7-1.7-.7-1.3 0-2.1 1.1-2.1 2.6s.9 2.6 2.1 2.6c.8 0 1.3-.3 1.7-.7l1.2 1.1a4 4 0 01-2.9 1.1c-2.3.2-3.9-1.6-3.9-4zM226.2 24.8h-2.4v-1.5h6.8l-.5 1.5h-2v6.4h-1.8v-6.4h-.1zM232 31.2v-8h3.9c1.7 0 2.6 1 2.6 2.1 0 .7-.5 1.3-1.1 1.6.9.3 1.4 1 1.4 1.9 0 1.3-.9 2.4-2.6 2.4H232zm3.5-4.7c.6 0 1.1-.3 1.1-.9 0-.6-.5-.9-1.1-.9h-1.7v1.8h1.7zm.3 3.3c.7 0 1.2-.3 1.2-1 0-.6-.4-1-1.2-1h-1.9v1.9h1.9v.1zM240 28.8c0-1.3 1-2.6 3.5-2.6.4 0 1 0 1.5.1V26c0-.9-.6-1.4-1.6-1.4-.8 0-1.5.3-2 .7l-1.2-1.2c.8-.7 2-1.1 3.2-1.1 2.1 0 3.3 1.1 3.3 3.1v5.1h-1.8v-.8c-.5.6-1.2 1-2.3 1-1.5 0-2.6-1.1-2.6-2.6zm5-.8v-.4c-.4-.1-.9-.1-1.3-.1-1.3 0-1.9.5-1.9 1.2 0 .6.5 1.1 1.4 1.1 1 .1 1.8-.7 1.8-1.8zM78.2 42.4h5.3L83 44h-3v6.4h-1.8v-8zM83.9 46.4c0-2.4 1.7-4.2 4-4.2s4 1.7 4 4.2c0 2.4-1.7 4.2-4 4.2s-4-1.8-4-4.2zm6.1 0c0-1.5-.9-2.6-2.1-2.6-1.3 0-2.1 1.1-2.1 2.6s.8 2.5 2.1 2.5c1.3.1 2.1-1 2.1-2.5zM95.5 53.4h-1.8v-11h1.8v1.1c.4-.7 1.3-1.3 2.5-1.3 2.1 0 3.7 1.7 3.7 4.2 0 2.4-1.6 4.2-3.7 4.2-1.2 0-2.1-.6-2.5-1.3v4.1zm2.1-4.4c1.3 0 2.2-1.1 2.2-2.6s-.9-2.6-2.2-2.6c-1.3 0-2.2 1.1-2.2 2.6s.9 2.6 2.2 2.6zM102.9 46.4c0-2.4 1.7-4.2 4-4.2s4 1.7 4 4.2c0 2.4-1.7 4.2-4 4.2s-4-1.8-4-4.2zm6.2 0c0-1.5-.9-2.6-2.1-2.6-1.3 0-2.1 1.1-2.1 2.6s.8 2.5 2.1 2.5c1.2.1 2.1-1 2.1-2.5zM111.7 48.9h.5c.5-.3.8-1.2.9-2.3.3-1.9.4-4.2.4-4.2h5.6v6.4h1.2v3.5h-1.7v-2h-5.3v2h-1.7v-3.4h.1zm2.5 0h3.1V44h-2.2c0 .8-.1 1.8-.3 2.8 0 .7-.2 1.5-.6 2.1zM121.2 48c0-1.3 1-2.6 3.5-2.6.4 0 1 0 1.5.1v-.3c0-.9-.6-1.4-1.6-1.4-.8 0-1.5.3-2 .7l-1.2-1.2c.8-.7 2-1.1 3.2-1.1 2.1 0 3.3 1.1 3.3 3.1v5.1h-1.8v-.8c-.5.6-1.2 1-2.3 1-1.4 0-2.6-1.1-2.6-2.6zm5.1-.8v-.4c-.4-.1-.9-.1-1.3-.1-1.3 0-1.9.5-1.9 1.2 0 .6.5 1.1 1.4 1.1 1 .1 1.8-.7 1.8-1.8zM133.3 50.4l3.6-11.2h1.6l2.7 8.1 2.7-8.1h1.6l3.6 11.2H147l-2.4-7.7-2.6 7.7h-1.7l-2.6-7.7-2.4 7.7h-2zM149.9 46.4c0-2.4 1.7-4.2 4-4.2s4 1.7 4 4.2c0 2.4-1.7 4.2-4 4.2-2.2 0-4-1.8-4-4.2zm6.2 0c0-1.5-.9-2.6-2.1-2.6-1.3 0-2.1 1.1-2.1 2.6s.8 2.5 2.1 2.5c1.2.1 2.1-1 2.1-2.5zM159.2 46.4c0-2.4 1.7-4.2 3.9-4.2a4 4 0 012.9 1.1l-1.2 1.1c-.4-.4-.9-.7-1.7-.7-1.3 0-2.1 1.1-2.1 2.6s.9 2.6 2.1 2.6c.8 0 1.3-.3 1.7-.7l1.2 1.1a4 4 0 01-2.9 1.1c-2.3.2-3.9-1.6-3.9-4zM167.2 42.4h1.8v3.2h.7l2.3-3.2h2l-2.8 3.8 3.2 4.2h-2.2l-2.5-3.3h-.8v3.3h-1.8v-8h.1zM175.7 50.4v-8h3.9c1.7 0 2.6 1 2.6 2.1 0 .7-.5 1.3-1.1 1.6.9.3 1.4 1 1.4 1.9 0 1.3-.9 2.4-2.6 2.4h-4.2zm3.5-4.7c.6 0 1.1-.3 1.1-.9 0-.6-.5-.9-1.1-.9h-1.7v1.8h1.7zm.3 3.3c.7 0 1.2-.3 1.2-1 0-.6-.4-1-1.2-1h-1.9v2h1.9zM186.1 42.4v2.7h1.7c2 0 3 1.3 3 2.7 0 1.4-1 2.7-3 2.7h-3.5v-8h1.8v-.1zm1.4 6.5c.9 0 1.4-.6 1.4-1.2s-.5-1.2-1.4-1.2h-1.4v2.3h1.4v.1zm4.1-6.5h1.8v8h-1.8v-8zM81.4 63.7l-3.9-5.3h2.2L83 63h1v-4.6h2V63h1l3.3-4.6h2.2l-3.9 5.3 4.2 5.9h-2.3l-3.4-4.9H86v4.9h-1.9v-4.9H83l-3.4 4.9h-2.3l4.1-5.9zM94.1 61.6h1.8v5.1l3.5-5.1h1.6v8h-1.8v-5.1l-3.5 5.1h-1.6v-8zM102.3 69.6v-1.5c.1 0 .2.1.4.1.7 0 .9-.7 1-2.2.3-2.5.3-4.3.3-4.3h6.1v8h-1.8v-6.4h-2.7c0 .7-.1 1.8-.1 2.7-.2 2.6-.7 3.9-2.4 3.9-.3-.1-.7-.3-.8-.3zM112.4 61.6h1.8v5.1l3.5-5.1h1.6v8h-1.8v-5.1l-3.5 5.1h-1.6v-8zM131.3 69.6h-9.7v-8h1.8V68h2.3v-6.4h1.8V68h2.3v-6.4h1.8V68h1.2v3.5h-1.7v-1.9h.2zM134.4 61.6h1.8v3.1h3.2v-3.1h1.8v8h-1.8v-3.3h-3.2v3.3h-1.8v-8zM145.2 61.6v2.7h1.7c2 0 3 1.3 3 2.7 0 1.4-1 2.7-3 2.7h-3.5v-8h1.8v-.1zm1.5 6.5c.9 0 1.4-.6 1.4-1.2s-.5-1.2-1.4-1.2h-1.4V68h1.4v.1zm4-6.5h1.8v8h-1.8v-8zM154.3 65.6c0-2.5 1.7-4.2 3.9-4.2 2.1 0 3.8 1.4 3.8 4.4v.3h-5.8c.2 1.3 1.2 1.9 2.3 1.9.7 0 1.4-.3 1.9-.8l1.2 1.2c-.9.8-2 1.2-3.2 1.2-2.2.2-4.1-1.4-4.1-4zm5.8-.7c-.1-1-.8-1.9-1.9-1.9-1.1 0-1.8.9-2 1.9h3.9zM167.6 69.6v-8h3.9c1.7 0 2.6 1 2.6 2.1 0 .7-.5 1.3-1.1 1.6.9.3 1.4 1 1.4 1.9 0 1.3-.9 2.4-2.6 2.4h-4.2zm3.5-4.7c.6 0 1.1-.3 1.1-.9 0-.6-.5-.9-1.1-.9h-1.7v1.8h1.7zm.3 3.3c.7 0 1.2-.3 1.2-1 0-.6-.4-1-1.2-1h-1.9v1.9h1.9v.1zM175.7 65.6c0-2.4 1.7-4.2 4-4.2s4 1.7 4 4.2c0 2.4-1.7 4.2-4 4.2s-4-1.8-4-4.2zm6.1 0c0-1.5-.9-2.6-2.1-2.6-1.3 0-2.1 1.1-2.1 2.6s.8 2.5 2.1 2.5c1.3.1 2.1-1 2.1-2.5zM185.4 61.6h6.8v8h-1.8v-6.4h-3.2v6.4h-1.8v-8zM196.3 72.6h-1.8v-11h1.8v1.1c.4-.7 1.3-1.3 2.5-1.3 2.1 0 3.7 1.7 3.7 4.2 0 2.4-1.6 4.2-3.7 4.2-1.2 0-2.1-.6-2.5-1.3v4.1zm2.1-4.4c1.3 0 2.2-1.1 2.2-2.6s-.9-2.6-2.2-2.6c-1.3 0-2.2 1.1-2.2 2.6s.9 2.6 2.2 2.6zM203.8 65.6c0-2.4 1.7-4.2 4-4.2s4 1.7 4 4.2c0 2.4-1.7 4.2-4 4.2s-4-1.8-4-4.2zm6.1 0c0-1.5-.9-2.6-2.1-2.6-1.3 0-2.1 1.1-2.1 2.6s.8 2.5 2.1 2.5c1.2.1 2.1-1 2.1-2.5zM213 65.6c0-2.4 1.7-4.2 3.9-4.2a4 4 0 012.9 1.1l-1.2 1.1c-.4-.4-.9-.7-1.7-.7-1.3 0-2.1 1.1-2.1 2.6s.9 2.6 2.1 2.6c.8 0 1.3-.3 1.7-.7l1.2 1.1a4 4 0 01-2.9 1.1c-2.2.2-3.9-1.6-3.9-4zM223.1 61.6v2.7h1.7c2 0 3 1.3 3 2.7 0 1.4-1 2.7-3 2.7h-3.5v-8h1.8v-.1zm1.4 6.5c.9 0 1.4-.6 1.4-1.2s-.5-1.2-1.4-1.2h-1.4V68h1.4v.1zm4.1-6.5h1.8v8h-1.8v-8z" fill="#000"/></svg>
