<svg width="182" height="60" viewBox="0 0 182 60" fill="none" xmlns="http://www.w3.org/2000/svg">
<path d="M87.1 7.6C88.9 7.6 90.3 9 90.3 10.8C90.3 12.6 88.9 14 87.1 14C85.3 14 83.9 12.6 83.9 10.8C83.9 9 85.3 7.6 87.1 7.6Z" fill="black"/>
<path fill-rule="evenodd" clip-rule="evenodd" d="M47.8 13.1L86.2 0.400002L133.9 14.9L86.2 4.4L52.8 17.3L47.8 13.1Z" fill="#FFC737"/>
<path fill-rule="evenodd" clip-rule="evenodd" d="M34.2 33.5C34.2 33.5 22 24.6 17.4 23.4C12.7 22.1 9.59999 21.7 8.39999 22.5C7.09999 23.3 6.79999 24.5 7.09999 25.5C7.49999 26.5 8.39999 28.1 8.39999 28.1L30.7 33.2L32.9 34.9L34.2 33.5Z" fill="#FFC737"/>
<path d="M33.7 33.4C33.7 33.4 22.1 25.2 11.6 24.7C1.19999 24.2 0.199987 25.6 0.499987 27C0.799987 28.4 1.29999 30.6 6.19999 30.7C11 30.8 27 34.1 27 34.1L31.7 34.9L33.7 33.4Z" fill="black"/>
<path fill-rule="evenodd" clip-rule="evenodd" d="M33.7 33.7C33.7 33.7 23.4 27 14.2 26.5C5 26.1 4.09999 27.2 4.29999 28.4C4.59999 29.6 4.99999 31.4 9.29999 31.4C13.6 31.5 27.7 34.3 27.7 34.3L31.8 34.9L33.7 33.7Z" fill="#FFC737"/>
<path d="M7.10001 39.1C7.10001 39.1 8.4 35.8 11.8 34.1C15.2 32.4 19.1 31.1 19.1 31.1C19.1 31.1 21.2 30.8 21.8 30.7C22.4 30.6 23.9 30.2 24.8 30.8C25.6 31.4 25.7 31.1 26.3 32.7C26.9 34.3 26.7 36.7 28 36.8C29.3 36.9 29.8 37 31.2 35.8C32.6 34.6 32.2 33.8 33.6 33.8C35 33.8 36.6 33.3 37.7 33.8C38.8 34.3 42.6 38.2 42.6 38.2C42.6 38.2 43.8 38.6 44.4 39.3C45 39.9 45.3 40.6 45.3 40.6C45.3 40.6 47 39.8 46.5 36.7C46 33.7 46.4 33.2 45.2 32.7C43.9 32.2 44.1 31.1 44.8 31.2C45.4 31.3 46.2 31.7 46.6 32.9C47 34.1 47.9 36.5 47.5 38.3C47.1 40.1 46.1 41.3 46.1 41.3C46.1 41.3 46.1 41.5 46.5 42.3C46.9 43.1 46.1 44.2 46.4 44.6C46.7 45 47.4 46.3 49.1 47C50.8 47.7 51.6 47.9 52.1 48.4C52.5 48.9 51.7 49.8 51.1 49.5C50.5 49.1 47.9 47.4 47.4 47C47 46.6 46.3 46.3 45.4 46.4C44.5 46.5 44 47.3 44 47.3L43.1 46.6C43.1 46.6 42.1 46.3 42.5 47.2C42.6 48 43 49 43 49C43 49 43.3 50.2 44 51.4C44.7 52.7 45.3 53.5 46 54C46.7 54.4 46.8 55.3 46.1 55.1C45.4 54.9 43.2 52.6 43.1 51.9C42.9 51.2 42.2 49.8 41.3 49.1C40.4 48.5 39.7 47.9 39.4 48.5C39.1 49 39.4 49.9 38.9 50.1C38.4 50.3 38.6 50 38 49.4C37.4 48.8 36.4 49.7 35.5 48.9C34.6 48.1 34.2 46.8 33.9 46.3C33.6 45.8 33.5 45.6 32.7 46.6C32 47.6 30.5 51.4 30.3 52.4C30.1 53.4 29 56 29.4 57.1C29.8 58.2 30.1 58.6 30.1 58.6C30.1 58.6 29.1 59.9 28.7 58.8C28.3 57.7 28.3 55.8 29.1 53.5C29.9 51.3 30.8 47.8 30.8 47.8C30.8 47.8 32.1 46.8 30.7 46.7C29.4 46.6 28.2 46.5 28.5 45.4C28.8 44.2 29 42.9 28.2 43.2C27.4 43.5 27.4 44.5 26.1 44.3C24.8 44 24.6 44 24.6 44C24.6 44 17.9 48.3 15.5 51.1C13.1 53.9 11.3 55.1 11.3 55.1C11.3 55.1 10.3 55.5 11 54.2C11.7 52.9 15 49.7 15.9 49C16.8 48.3 18.8 46.2 18.8 46.2L21 44.2C21 44.2 22.4 42.7 21 43.4C19.6 44.1 17.2 46.1 15.4 46.8C13.6 47.5 9.00001 49.5 9.00001 49.5L7.70001 49.2L6.70001 49.3C6.70001 49.3 6.50001 50.2 6.00001 50.2C5.50001 50.2 4.60001 49.9 4.70001 47.4C4.60001 44.8 7.10001 39.1 7.10001 39.1Z" fill="black"/>
<path fill-rule="evenodd" clip-rule="evenodd" d="M28.5 39.3C28.5 39.3 30.6 38.8 30.8 38C31.1 37.3 32.1 36.4 32.3 37C32.5 37.6 32.6 39.1 33 38.7C33.4 38.3 33.4 35.7 34.7 35.5C36 35.2 36.1 34.6 35.8 36.2C35.4 37.8 35.4 40.2 35.7 40.7C36 41.2 36.6 41.9 37.7 40.7C38.8 39.5 39.2 40.2 39.2 40.2C39.2 40.2 39.9 40.5 40.4 40.8C40.8 41.2 39.7 41.6 39.1 41.6C38.5 41.6 37.5 42.3 38.4 42.4C39.3 42.5 40.8 42.7 41 43.6C41.2 44.5 42.9 46.2 42.9 46.2L42.5 46.9C42.5 46.9 42.5 46.3 41.5 45.6C40.5 45 40.1 45.3 40.1 45.3C40.1 45.3 38.2 47.1 37.2 47.1C36.2 47.1 35 46.5 34.7 45.7C34.4 44.9 34 44.2 34.5 43.3C35 42.4 34.6 41.8 34.1 42.1C33.6 42.5 32.5 44.1 31.8 44.3C31.1 44.6 30.1 44.7 30.1 43.9C30.1 43.2 29.2 43.3 29.5 42.6C29.8 42 29.8 41.5 29.3 41.3C28.9 41 28.9 40 28.9 40L28.5 39.3Z" fill="#FFC737"/>
<path fill-rule="evenodd" clip-rule="evenodd" d="M10.5 37.3C10.8 37.1 11.3 37.4 11.6 37.9C11.9 38.4 11.9 39 11.6 39.2C11.3 39.4 10.8 39.1 10.5 38.6C10.2 38.1 10.2 37.5 10.5 37.3ZM15.7 34.4C16 34.2 16.5 34.5 16.8 35C17.1 35.5 17.1 36.1 16.8 36.3C16.5 36.5 16 36.2 15.7 35.7C15.4 35.1 15.4 34.5 15.7 34.4ZM8.00001 41.7C8.20001 41.7 8.30001 41.8 8.30001 42C8.30001 42.2 8.20001 42.3 8.00001 42.3C7.80001 42.3 7.70001 42.2 7.70001 42C7.70001 41.9 7.90001 41.7 8.00001 41.7ZM7.60001 48.9C7.60001 48.9 7.40001 48.2 10.3 47.6C13.2 47 17.6 44.6 18.4 44.1C19.1 43.6 20.5 41.6 20.9 41.6C21.3 41.6 22.7 41.9 22.7 41.9L20.9 43.2C20.9 43.2 21.8 43.9 21.1 44.3C20.4 44.7 25.3 42.2 25.3 42.2C25.3 42.2 25.6 40.9 25 40.3C24.5 39.8 25.4 38.1 25.4 36.8C25.4 35.5 25.1 34.4 24.8 33.4C24.4 32.4 24.4 31.6 23 31.4C21.7 31.2 21.4 31.4 21.7 32.4C22.1 33.4 22.5 36.4 22.5 36.4C22.5 36.4 23 38.5 23.2 39.4C23.4 40.2 23.8 40.9 22.3 40.3C20.8 39.7 20.2 38.9 20.1 38.1C19.9 37.3 18.6 36.8 18.3 35.5C18 34.2 19.2 33 17.9 33C16.6 33 14.2 33.5 14.1 34.4C14 35.3 13.9 36 14.9 38C15.9 40 16.6 41.4 16.6 41.9C16.6 42.4 17.8 43 17.4 43.6C17.1 44 16.1 44.7 16 44C15.9 43.4 15.1 40.5 14.3 39.7C13.5 38.9 12.2 36.6 11.4 36.5C10.7 36.4 9.90001 36.7 9.90001 36.7C9.90001 36.7 8.80001 36.9 8.90001 37.7C9.00001 38.5 10.8 42.8 11.9 43.3C13 43.7 10.7 43.8 9.50001 42C8.20001 40.2 7.70001 39.9 7.50001 40.3C7.30001 40.7 6.70001 40.8 7.10001 42.1C7.50001 43.4 9.20001 45.4 9.20001 45.4L6.20001 43.4C6.20001 43.4 5.70001 44 6.00001 44.7C6.40001 45.3 6.00001 46.1 7.10001 46.6C8.20001 47 5.60001 46.3 5.30001 47C5.00001 47.7 5.80001 48.8 5.80001 48.8L6.30001 49.3L7.60001 48.9Z" fill="#FFC737"/>
<path d="M34.8 32.2C34.8 32.2 24.9 23.9 19.5 22C14.1 20.1 9.89999 19.4 8.59999 19.6C7.29999 19.8 7.29999 20.9 7.29999 20.9C7.29999 20.9 8.49999 20.8 9.59999 20.8C10.8 20.8 18.1 23.4 18.9 23.5C19.7 23.6 23.8 25.7 25.2 26.5C26.5 27.2 31.6 30.6 31.6 30.6L33.6 32L34.8 32.2Z" fill="black"/>
<path d="M135.2 32.5V29.1H141.2V32.5H135.2ZM119.7 19.4H122.7V31.3L129.1 19.4H132.3V37.3H129.3V25.6L122.9 37.3H119.7V19.4ZM107 32.2V24.2C105.6 24.2 104.7 24.5 104.1 25.2C103.5 25.9 103.2 26.9 103.2 28.3C103.2 30.9 104.5 32.2 107 32.2ZM110.2 32.2C111 32.2 111.8 32 112.4 31.7C113 31.4 113.4 31 113.7 30.4C114 29.9 114.1 29.1 114.1 28C114.1 25.4 112.8 24.1 110.3 24.1V32.2H110.2ZM110.2 35.2V37.3H107V35.2C104.5 35.1 102.7 34.4 101.6 33.1C100.6 31.8 100 30.2 100 28.2C100 26.1 100.5 24.5 101.6 23.2C102.7 21.9 104.5 21.3 106.9 21.2V19.4H110V21.2C112.5 21.3 114.3 22 115.4 23.3C116.5 24.6 117 26.2 117 28.2C117 30.2 116.5 31.8 115.4 33.1C114.5 34.4 112.7 35.1 110.2 35.2ZM86.2 28.3C86.2 30.3 86.6 31.9 87.4 32.9C88.2 33.9 89.3 34.5 90.6 34.5C91.9 34.5 92.9 34 93.8 32.9C94.6 31.9 95 30.3 95 28.2C95 26.1 94.6 24.6 93.8 23.6C93 22.6 91.9 22.1 90.6 22.1C89.3 22.1 88.2 22.6 87.4 23.6C86.6 24.7 86.2 26.3 86.2 28.3ZM82.9 28.5C82.9 26.7 83.1 25.1 83.6 23.9C84 23 84.5 22.2 85.1 21.4C85.7 20.7 86.4 20.1 87.1 19.8C88.1 19.3 89.2 19.1 90.5 19.1C92.8 19.1 94.7 19.9 96.1 21.6C97.5 23.2 98.2 25.5 98.2 28.4C98.2 31.3 97.5 33.6 96.1 35.2C94.7 36.8 92.8 37.7 90.5 37.7C88.1 37.7 86.3 36.9 84.9 35.3C83.6 33.6 82.9 31.3 82.9 28.5ZM72.3 22.4V27.5H74C75.3 27.5 76.1 27.4 76.5 27.2C76.9 27 77.3 26.7 77.5 26.3C77.7 25.9 77.9 25.4 77.9 24.9C77.9 24.2 77.7 23.7 77.4 23.3C77.1 22.9 76.6 22.6 76.1 22.5C75.7 22.4 75 22.4 73.8 22.4H72.3V22.4ZM69 37.3V19.4H74.1C76 19.4 77.3 19.5 77.9 19.7C78.8 20 79.6 20.6 80.2 21.5C80.8 22.4 81.1 23.6 81.1 25C81.1 26.1 80.9 27 80.6 27.8C80.2 28.6 79.8 29.1 79.3 29.6C78.8 30 78.2 30.3 77.6 30.4C76.8 30.6 75.7 30.7 74.3 30.7H72.2V37.5H69V37.3ZM53.2 19.4H65.8V37.3H62.6V22.4H56.4V37.3H53.2V19.4V19.4Z" fill="black"/>
<path d="M173.4 58.9V44.7H168.4V41.8H181.8V44.7H176.8V58.9H173.4ZM164 52.6L167.3 53.6C166.8 55.5 165.9 56.9 164.8 57.8C163.6 58.7 162.1 59.2 160.3 59.2C158.1 59.2 156.2 58.4 154.8 56.9C153.4 55.3 152.6 53.2 152.6 50.5C152.6 47.7 153.3 45.4 154.8 43.9C156.3 42.3 158.2 41.5 160.5 41.5C162.6 41.5 164.3 42.1 165.5 43.4C166.3 44.1 166.8 45.2 167.2 46.6L163.8 47.4C163.6 46.5 163.2 45.8 162.5 45.3C161.9 44.8 161.1 44.5 160.2 44.5C158.9 44.5 157.9 45 157.1 45.9C156.3 46.8 155.9 48.3 155.9 50.3C155.9 52.5 156.3 54 157.1 54.9C157.9 55.8 158.9 56.3 160.1 56.3C161 56.3 161.8 56 162.4 55.4C163.2 54.8 163.7 53.9 164 52.6ZM137.4 58.9V41.8H149.9V44.7H140.8V48.5H149.3V51.4H140.8V56H150.2V58.9H137.4ZM123.7 51.4V56H126.9C128.1 56 128.9 56 129.2 55.9C129.7 55.8 130.1 55.6 130.4 55.2C130.7 54.8 130.9 54.4 130.9 53.7C130.9 53.2 130.8 52.7 130.5 52.4C130.3 52 129.9 51.8 129.4 51.6C128.9 51.4 127.9 51.4 126.4 51.4H123.7V51.4ZM123.7 44.6V48.5H125.9C127.2 48.5 128.1 48.5 128.4 48.4C129 48.3 129.4 48.1 129.8 47.8C130.1 47.5 130.3 47 130.3 46.5C130.3 46 130.2 45.5 129.9 45.2C129.6 44.9 129.2 44.7 128.6 44.6C128.3 44.6 127.3 44.5 125.7 44.5H123.7V44.6ZM120.3 41.8H127.1C128.4 41.8 129.4 41.9 130.1 42C130.8 42.1 131.3 42.3 131.9 42.7C132.4 43.1 132.9 43.5 133.2 44.1C133.5 44.7 133.7 45.4 133.7 46.1C133.7 46.9 133.5 47.6 133.1 48.3C132.7 49 132.1 49.5 131.4 49.8C132.4 50.1 133.2 50.6 133.8 51.4C134.4 52.1 134.6 53 134.6 54C134.6 54.8 134.4 55.5 134.1 56.3C133.7 57 133.3 57.6 132.6 58.1C132 58.5 131.2 58.8 130.3 58.9C129.7 59 128.4 59 126.2 59H120.4V41.8H120.3ZM103.2 58.9V41.8H106.6V48.5H113.3V41.8H116.7V58.9H113.3V51.4H106.6V58.9H103.2ZM86.3 41.8H89.5V53.2L96.4 41.8H99.8V58.9H96.6V47.7L89.7 58.9H86.3V41.8Z" fill="black"/>
</svg>
