<svg width="425" height="78" fill="none" xmlns="http://www.w3.org/2000/svg"><path fill-rule="evenodd" clip-rule="evenodd" d="M99.135 41.485c0-.5-.077-.988-.147-1.462l-.026-.155c-1.274-9.467-9.931-18.806-17.547-22.359-4.55-2.681-10.188-3.709-15.165-4.616-4.315-.786-8.388-1.532-11.193-3.202-.276-.184-.603-.367-.922-.544-.293-.164-.598-.337-.856-.503-.741-.477-3.118-2.519-4.774-4.436-.8-.951-1.517-2.079-2.02-3.173l-.394-.776v41.692h4.488V12.382c.677.643 1.485 1.227 2.582 1.867 2.49 1.462 6.806 2.273 11.378 3.128 4.804.9 9.773 1.829 13.747 3.618 9.787 4.437 15.844 14.859 16.453 20.662 0 .24.023.478.041.709.019.195.036.382.036.54v6.166H54.238v20.746h.113c1.411 0 2.317-.077 3.743-.26l.356-.015V53.067h40.865v-4.216c0-2.258 0-5.068-.18-7.366z" fill="#CA2044"/><path fill-rule="evenodd" clip-rule="evenodd" d="M124.584 59.216V29.46H145v4.847h-15.205v7.206h6.721c2.758 0 5.729-.085 8.054 1.899 1.766 1.517 3.103 3.962 3.103 6.868 0 2.864-1.12 5.185-2.758 6.621-1.421 1.26-3.79 2.314-7.58 2.314h-12.751v.001zm5.211-4.591h7.368c1.55 0 2.927-.551 3.702-1.271.822-.753 1.252-1.758 1.252-2.897 0-1.432-.603-2.538-1.382-3.257-1.16-1.055-2.798-1.139-4.091-1.139h-6.849v8.564zM172.077 59.143l-1.462-4.668h-11.991l-1.374 4.668h-5.24l9.497-29.681h6.185l9.798 29.681h-5.413zm-7.003-23.039c-.173-.587-.386-1.766-.514-2.732-.089.756-.261 2.016-.43 2.644l-4.084 13.878h9.152l-4.124-13.79zM182.752 29.459h5.164v12.029h13.206V29.459h5.165v29.719h-5.165V46.086h-13.206v13.092h-5.164V29.459z" fill="#093D58"/><path fill-rule="evenodd" clip-rule="evenodd" d="M251.53 29.359h10.724c3.962 0 6.327 1.348 7.624 2.531 1.161 1.097 2.711 3.286 2.711 7.202 0 3.121-1.065 5.152-2.648 6.871-1.491 1.616-4.198 2.372-7.345 2.372h-5.858v10.768h-5.208V29.359zm10.463 14.444c1.855 0 3.063-.632 3.75-1.305.687-.676 1.377-1.77 1.377-3.665 0-1.726-.558-2.773-1.293-3.533-1.248-1.264-3.015-1.344-3.75-1.344h-5.339v9.846h5.255v.001zM300.135 33.014c3.228 3.655 3.783 8.22 3.783 11.254 0 3.034-.555 7.602-3.783 11.256-2.974 3.327-6.71 4.113-9.637 4.113-2.926 0-6.665-.786-9.633-4.113-3.232-3.654-3.782-8.222-3.782-11.256 0-3.034.551-7.599 3.782-11.254 2.968-3.32 6.706-4.109 9.633-4.109 2.927-.001 6.663.789 9.637 4.109zm-15.578 3.573c-.978 1.366-2.083 3.695-2.083 7.68 0 3.988 1.105 6.313 2.083 7.683 1.741 2.366 4.032 2.948 5.941 2.948 1.91 0 4.202-.583 5.942-2.948.978-1.37 2.083-3.695 2.083-7.683 0-3.985-1.105-6.314-2.083-7.68-1.741-2.368-4.032-2.952-5.942-2.952-1.909 0-4.201.584-5.941 2.952zM374.463 29.529v20.556l13.912-20.556h5.134v29.568h-5.134V38.406l-13.912 20.691h-5.138V29.529h5.138z" fill="#CA2044"/><path fill-rule="evenodd" clip-rule="evenodd" d="M229.258 29.473l6.369.007-13.177 13.827 14.25 15.931h-6.454l-12.902-13.68v13.68h-5.159V29.48h5.159v12.215l11.914-12.222z" fill="#093D58"/><path fill-rule="evenodd" clip-rule="evenodd" d="M405.508 59.099h-6.166l7.947-11.375c-3.966-.466-7.368-3.606-7.368-8.913 0-3.731 1.572-9.325 9.968-9.325h14.749v29.613h-5.13V48.29h-6.725l-7.275 10.809zm6.599-25.143c-1.983 0-6.882-.797-6.882 4.683 0 2.215.801 5.182 7.055 5.182h7.228v-9.865h-7.401zM328.531 50.265c-.305.677-.632 1.238-.951 1.682-1.741 2.369-4.032 2.954-5.942 2.954-1.909 0-4.201-.584-5.941-2.954-.978-1.366-2.083-3.69-2.083-7.679 0-3.985 1.105-6.314 2.083-7.68 1.74-2.373 4.032-2.953 5.941-2.953 1.91 0 4.202.58 5.942 2.953.463.649.956 1.528 1.348 2.692h5.538c-.521-2.105-1.469-4.315-3.192-6.265-2.974-3.321-6.71-4.114-9.637-4.114-2.926 0-6.665.793-9.636 4.114-3.228 3.654-3.78 8.219-3.78 11.253 0 3.034.552 7.602 3.78 11.253 2.971 3.327 6.709 4.117 9.636 4.117 2.927 0 6.663-.789 9.637-4.117 1.447-1.642 2.34-3.463 2.902-5.256h-5.645zM358.588 50.265c-.305.677-.632 1.238-.952 1.682-1.741 2.369-4.032 2.954-5.942 2.954-1.91 0-4.201-.584-5.941-2.954-.978-1.366-2.083-3.69-2.083-7.679 0-3.985 1.105-6.314 2.083-7.68 1.741-2.373 4.032-2.953 5.941-2.953 1.91 0 4.202.58 5.942 2.953.466.649.959 1.528 1.348 2.692h5.538c-.517-2.105-1.466-4.315-3.192-6.265-2.971-3.321-6.71-4.114-9.637-4.114-2.927 0-6.665.793-9.633 4.114-3.231 3.654-3.782 8.219-3.782 11.253 0 3.034.551 7.602 3.782 11.253 2.968 3.327 6.706 4.117 9.633 4.117 2.927 0 6.666-.789 9.637-4.117 1.451-1.642 2.343-3.463 2.905-5.256h-5.647z" fill="#CA2044"/><path fill-rule="evenodd" clip-rule="evenodd" d="M97.354 56.523H61.517v4.26H86.05c-.853.776-1.605 1.348-3.038 2.384l-.01.011c-8.723 5.674-20.185 8.847-32.298 8.935V46.057h41.122v-4.565H22.742c.099-1.26.275-2.464.532-3.68.085-.437.177-.892.257-1.241.279-1.194.625-2.288 1.029-3.262l.639.213c.815.272 1.659.554 2.541.826 2.3.702 4.485 1.198 6.677 1.517l.616.081c1.686.346 3.632.613 5.788.8 1.712.147 3.423.228 5.31.305v-4.925c-1.502-.041-3.089-.143-4.863-.315-1.887-.177-3.727-.363-5.508-.716-.444 0-.908-.088-1.308-.18-2.571-.459-4.745-1.007-6.659-1.675-.279-.055-.555-.139-.819-.227-.095-.03-.191-.062-.279-.088.254-.474.536-.907.834-1.37.111-.173.224-.349.338-.529 1.733-2.515 4.025-4.844 6.628-6.731 3.302-2.394 7.081-3.97 11.209-4.675.092 0 .187-.012.291-.019.044-.003.087-.007.135-.007v-5.02l-.11.032c-.121.038-.246.059-.367.077-.136.023-.276.045-.415.093-3.625.264-7.268.775-10.834 1.52-2.519.573-4.7 1.209-6.666 1.943-1.414.42-2.803.93-4.366 1.605-1.209.533-2.535 1.179-4.18 2.042-2.468 1.341-4.565 2.682-6.409 4.096-2.953 2.266-5.469 4.844-7.485 7.661-1.491 2.116-2.659 4.37-3.467 6.695C.99 38.831.579 41.252.579 43.731v.093c0 7.969 4.334 15.722 12.208 21.844.459.32.94.661 1.421 1.006.455.324.906.646 1.34.948.863.539 1.8 1.079 2.704 1.597.312.18.624.363.94.543 1.149.61 2.394 1.161 3.599 1.694l.581.26c1.27.551 2.614 1.072 4.363 1.689 2.203.731 4.447 1.363 6.669 1.873 5.153 1.154 10.536 1.738 16.002 1.738h.003c13.397 0 25.936-3.456 35.301-9.74 1.914-1.175 3.559-2.579 5.084-3.923 1.311-1.219 5.094-4.958 6.409-6.618l.147-.187h-.033l.037-.025zM18.691 23.819c.191-.118.404-.246.617-.404 1.238-.746 2.586-1.421 3.889-2.075l.272-.139c1.124-.555 2.215-.995 3.372-1.462.323-.132.647-.261.973-.396.114-.041.224-.077.334-.114-.151.15-.302.304-.456.455-1.704 1.697-3.173 3.496-4.366 5.344-.224.315-.43.657-.628.988-.177.294-.36.599-.555.882-1.024-.562-1.973-1.227-2.813-1.973-.389-.382-.669-.679-.886-.955.078-.051.159-.099.247-.151zM6.487 37.903c.628-1.854 1.579-3.69 2.827-5.46.97-1.278 2.156-2.769 3.622-4.158.272-.271.543-.521.811-.764.228-.212.467-.426.699-.654 1.145 1.462 2.743 2.781 4.741 3.919.062.04.128.085.202.136.202.136.448.305.694.44-.32.812-.68 1.767-.944 2.752l-.106.367c-.221.754-.444 1.536-.599 2.31-.268 1.594-.522 3.159-.617 4.701H5.624c.188-1.304.47-2.479.863-3.589zm9.376 21.823l-.032.048c-.312.404-.632.812-.956 1.278-.661-.58-1.34-1.176-1.943-1.781-4.224-4.033-6.684-8.476-7.308-13.214h12.193c.173 2.457.606 4.848 1.322 7.29.261 1.061.617 2.115 1.036 3.051-.154.107-.305.199-.463.298-.162.099-.327.202-.499.319h-.088l-.029.019c-1.272.838-2.325 1.72-3.233 2.692zm11.951 8.495c-1.502-.543-2.884-1.135-4.345-1.869l-.587-.298c-1.197-.599-2.435-1.223-3.596-1.918-.143-.073-.279-.14-.407-.253.118-.139.234-.305.359-.481l.276-.408c.517-.514 1.245-1.193 2.284-1.847.077-.045.173-.1.272-.158.084-.048.173-.099.25-.14.165.246.331.515.492.775.166.276.337.562.51.812 1.26 1.87 2.729 3.635 4.363 5.248.202.257.411.492.632.702-.169-.066-.341-.129-.503-.165zm18.311 3.613l-.257-.047c-.825-.162-1.681-.327-2.541-.552-1.66-.378-3.371-1.039-5.553-2.133-1.271-.668-2.281-1.289-3.276-2.02-2.611-1.811-4.902-4.136-6.628-6.725-.441-.62-.771-1.127-1.081-1.664.187-.081.375-.147.584-.221.139-.047.283-.099.437-.154 1.935-.627 4.235-1.238 6.644-1.77 3.676-.721 7.493-1.157 11.671-1.341v16.627zm0-21.539c-4.201.169-8.138.61-11.715 1.311-2.266.423-4.511.963-6.67 1.609-1.021.315-2.097.664-3.089 1.106-.378-1.04-.679-2.035-.991-3.089l-.129-.427c-.349-1.564-.606-3.121-.786-4.748h23.38v4.238z" fill="#093D58"/></svg>
