<svg width="25" height="25" viewBox="0 0 25 25" fill="none" xmlns="http://www.w3.org/2000/svg">
<circle cx="12.5" cy="12.5" r="12" stroke="#666666" fill="none"/>
<path d="M8.49186 3.09951C8.27894 3.21403 8.01278 3.32855 7.8835 3.35309C7.35879 3.45125 7.00898 3.77845 7.00898 4.16291C7.00898 4.26107 7.04701 4.26107 7.25993 4.17109C7.38921 4.11383 7.5489 4.07293 7.60214 4.08929C7.64776 4.09747 7.73902 4.10565 7.79225 4.12201C7.95955 4.14655 7.28275 4.44102 7.0318 4.4492C6.77324 4.4492 6.5299 4.19563 6.60594 3.99113C6.62876 3.92569 6.62115 3.87661 6.59834 3.87661C6.49187 3.87661 6.42343 4.25289 6.49948 4.42466C6.62115 4.71914 7.09263 4.8173 7.60214 4.6537C7.79985 4.58826 7.96715 4.531 7.97476 4.531C7.98236 4.531 7.97476 4.58008 7.95955 4.62916C7.92913 4.70278 8.00518 4.7355 8.19529 4.72732C8.52228 4.71914 9.3968 4.95636 9.5641 5.11178C9.63254 5.16904 9.71619 5.3081 9.75422 5.41444C9.79224 5.52078 9.85307 5.57803 9.8987 5.55349C9.96714 5.50442 10.0128 5.73345 9.98235 5.97885C9.97475 6.04429 10.0204 6.06065 10.0888 6.03611C10.1649 6.00339 10.2029 6.03611 10.2105 6.13427C10.2637 6.87046 10.2485 7.0995 10.1497 7.57394C10.0204 8.22833 9.49566 9.07087 9.17627 9.16085C8.87209 9.24264 8.46145 9.13631 8.13445 8.89909C7.70099 8.57189 7.65537 8.43283 7.80746 7.99111C8.14966 7.04224 7.79985 6.06065 6.97096 5.63529C6.58313 5.44716 5.84549 5.46352 5.29036 5.67619C5.04702 5.77435 4.62116 5.94613 4.3474 6.04429C4.02801 6.17517 3.8455 6.28969 3.82269 6.38785C3.80748 6.46147 3.6782 6.65779 3.53372 6.8132C3.38923 6.96862 3.22193 7.2222 3.16109 7.37762C2.97098 7.88478 2.8341 8.35921 2.80368 8.64551C2.78847 8.80093 2.75045 8.95635 2.72764 9.00543C2.68201 9.08723 2.38543 10.5842 2.31699 11.0504C2.28657 11.2631 2.30178 11.3122 2.39304 11.2713C2.4919 11.2304 2.4995 11.2794 2.43866 11.5412C2.40064 11.713 2.37022 12.2365 2.37783 12.7109C2.37783 13.1854 2.34741 13.6925 2.30178 13.8398C2.23334 14.0933 2.24095 14.1097 2.37783 14.0606C2.52231 14.0115 2.52992 14.0197 2.43866 14.1997C2.37783 14.3224 2.3246 14.895 2.29418 15.7948C2.26376 16.9645 2.23334 17.2263 2.11927 17.349C1.88353 17.6353 2.01281 17.7089 2.37022 17.5126C2.48429 17.4471 2.69722 17.3817 2.84931 17.349C3.0014 17.3244 3.22953 17.2344 3.3436 17.1445C3.45767 17.0627 3.65539 16.9645 3.77706 16.9318C3.90634 16.8991 4.06603 16.8091 4.14208 16.7355C4.21812 16.6618 4.46147 16.5064 4.67439 16.3919C5.13066 16.1547 5.37401 15.7375 5.45766 15.0668C5.48808 14.8377 5.54891 14.6741 5.60215 14.6741C5.64777 14.6741 5.75424 14.6087 5.82268 14.5187C5.89112 14.4369 6.04321 14.3469 6.15728 14.3224C6.45385 14.2488 6.8645 13.4717 6.92533 12.8582C6.93294 12.8009 6.98617 12.8173 7.06982 12.8991C7.19149 13.0136 7.22951 13.0218 7.41202 12.9154C7.52609 12.8582 7.62495 12.8173 7.62495 12.8418C7.63255 12.8582 7.64016 12.8991 7.64776 12.9318C7.65537 12.9727 7.69339 13.0709 7.73902 13.1527C7.85308 13.3572 8.17247 13.2754 8.28654 13.0218C8.33977 12.8991 8.37019 12.8745 8.37019 12.9645C8.3778 13.03 8.44624 13.169 8.52989 13.2672C8.72 13.4798 8.91772 13.4062 9.08502 13.0627L9.19148 12.85L9.23711 13.1036C9.29794 13.4226 9.57931 13.6107 9.70859 13.4226C9.78463 13.3081 9.79984 13.3163 9.88349 13.4553C9.95954 13.578 9.95954 13.6189 9.88349 13.6434C9.83026 13.668 9.65536 13.7252 9.50327 13.7743C9.2295 13.8643 8.75802 14.2978 8.75802 14.4533C8.75802 14.5023 8.68198 14.6496 8.58312 14.7886C8.27894 15.2222 8.26373 15.2713 8.44624 15.2058C8.56031 15.1731 8.60593 15.1895 8.60593 15.2794C8.60593 15.3449 8.57551 15.4185 8.53749 15.4512C8.49947 15.4758 8.44624 15.6066 8.41582 15.7375C8.37019 15.9584 7.70099 16.7273 7.0318 17.3326C6.80366 17.5371 6.78085 17.5371 6.73522 17.398C6.60594 16.9645 6.43104 16.6128 6.27134 16.4737C6.08884 16.3183 6.04321 16.3265 5.29796 16.5555C4.87972 16.6864 4.59835 17.0872 4.97097 17.0299C5.05462 17.0136 5.14587 17.0545 5.16108 17.1036C5.1839 17.1608 5.14587 17.2099 5.08504 17.2099C4.95576 17.2099 4.84169 17.349 4.77325 17.6025C4.72002 17.7661 4.73523 17.7743 4.91774 17.7007C5.10025 17.6271 5.15348 17.6434 5.30557 17.8234C5.40443 17.9379 5.54131 18.0279 5.61735 18.0361C5.6934 18.0361 5.8607 18.0524 5.98237 18.077C6.11165 18.0933 6.3626 18.1261 6.54511 18.1506C6.88731 18.1915 7.16107 18.3796 7.16107 18.5596C7.16107 18.6168 7.23712 18.7641 7.32077 18.8868C7.44244 19.0422 7.53369 19.0995 7.66297 19.0667C7.79985 19.0422 7.84548 19.0667 7.84548 19.1813C7.84548 19.5166 8.14966 19.2467 8.18768 18.8786C8.20289 18.715 8.13445 18.5841 7.91392 18.3551C7.47286 17.897 7.50328 17.7743 8.22571 17.1199C8.84167 16.5637 9.13064 16.3919 9.37399 16.4492C9.51848 16.4737 9.65536 16.441 9.79984 16.3265C10.0204 16.1629 10.6592 15.9011 10.8493 15.9011C10.9329 15.9011 10.9253 15.9829 10.796 16.2856C10.7124 16.5064 10.5755 16.8418 10.4919 17.0463C10.4158 17.2508 10.317 17.488 10.2789 17.578C9.92912 18.4123 9.0546 20.7273 9.02418 20.8745C8.97855 21.169 9.10783 21.4471 9.38159 21.6271C9.67817 21.8234 9.86068 21.8316 10.1573 21.668C10.3474 21.5616 10.3702 21.5616 10.3246 21.6761C10.3017 21.7498 10.3322 21.9297 10.4006 22.077C10.5071 22.3305 10.72 22.4778 11.0774 22.5514C11.2675 22.5841 11.6477 22.396 11.6477 22.2569C11.6553 22.2078 11.7238 22.2978 11.7998 22.4614C12.0052 22.8786 12.4158 23.0177 12.8188 22.8132C12.9861 22.7232 13.1154 22.5923 13.1382 22.4778C13.1915 22.2487 13.2599 22.2324 13.3968 22.4042C13.4576 22.4778 13.6173 22.5269 13.8226 22.5269C14.2561 22.5269 14.6211 22.2078 14.6287 21.8152C14.6363 21.5698 14.6439 21.5616 14.796 21.668C15.1306 21.9297 15.6933 21.717 15.8759 21.259C16.0051 20.9236 16.0279 21.0136 15.0089 18.4369C14.5907 17.3817 14.2257 16.4328 14.1953 16.3346C14.1724 16.2283 14.0888 16.0892 14.0204 16.0074C13.8987 15.8848 13.9139 15.8766 14.2257 15.9338C14.4006 15.9584 14.7504 16.0974 15.0013 16.2365C15.2979 16.4001 15.5108 16.4737 15.6249 16.441C15.7466 16.4083 15.9139 16.4819 16.18 16.67C16.758 17.0872 17.3511 17.7007 17.3511 17.8725C17.3511 17.9543 17.2371 18.1342 17.0926 18.2815C16.7732 18.5923 16.6971 18.8786 16.8568 19.1404C16.9937 19.3694 17.1382 19.4021 17.1078 19.1894C17.0926 19.0831 17.1306 19.0586 17.2599 19.0749C17.488 19.1076 17.6401 18.9686 17.7846 18.5923C17.8454 18.4205 17.9519 18.2651 18.0203 18.2324C18.1648 18.1751 18.8568 18.077 19.3891 18.0361C19.4424 18.0279 19.5717 17.9297 19.6781 17.807C19.8378 17.6189 19.891 17.6025 20.0051 17.6762C20.0888 17.7334 20.1648 17.7498 20.1876 17.7252C20.2637 17.6434 20.0812 17.3244 19.8758 17.1854C19.6933 17.0627 19.6857 17.0463 19.8226 17.0381C19.9063 17.0299 20.0203 17.0299 20.0736 17.0381C20.3549 17.079 20.0279 16.6618 19.7237 16.5882C19.6097 16.5637 19.4424 16.4982 19.3435 16.4492C18.9025 16.2201 18.4994 16.4901 18.2941 17.1445L18.1724 17.5371L17.8987 17.2999C17.2143 16.7191 16.6211 16.0156 16.4918 15.6557C16.3245 15.1813 16.3321 15.1731 16.5298 15.2304C16.6895 15.2713 16.6895 15.2631 16.4994 14.9931C16.393 14.8377 16.2257 14.5596 16.1344 14.3715C15.9595 14.0279 15.4956 13.6925 15.1991 13.6925C15.0394 13.6925 14.9861 13.5944 15.0698 13.4471C15.123 13.3572 15.161 13.349 15.2219 13.4144C15.2903 13.488 15.5945 13.488 15.6021 13.4144C15.6021 13.4144 15.6553 13.259 15.7162 13.079C15.7846 12.8582 15.8226 12.8091 15.8302 12.9318C15.8302 13.1445 16.1724 13.4553 16.3321 13.3899C16.393 13.3653 16.4614 13.259 16.4842 13.1527C16.5375 12.9154 16.5527 12.9154 16.7504 13.1281C16.9481 13.3408 17.1306 13.2999 17.2599 13.0136C17.3587 12.8009 17.3663 12.8009 17.5489 12.9236C17.7238 13.0463 17.7466 13.0463 17.8758 12.9236C18.0127 12.7927 18.0203 12.8009 18.104 13.169C18.2637 13.8479 18.5755 14.3387 18.8568 14.3469C19.0622 14.3469 19.4804 14.7886 19.4804 15.0095C19.4804 15.623 19.815 16.1547 20.3929 16.4737C20.6363 16.6046 20.8568 16.7518 20.8796 16.7927C20.9101 16.8336 21.0317 16.8991 21.161 16.9236C21.2903 16.9563 21.5184 17.0708 21.6629 17.1772C21.815 17.2835 22.0051 17.3735 22.0964 17.3735C22.18 17.3735 22.4005 17.4308 22.5754 17.5044C22.8796 17.6353 23.1306 17.6025 22.9253 17.4717C22.7275 17.3408 22.6515 16.8991 22.6591 15.8929C22.6667 15.2631 22.6287 14.6905 22.5678 14.4369C22.4766 14.0688 22.4842 14.0197 22.5754 14.0524C22.6667 14.0933 22.6819 14.0443 22.6363 13.7661C22.6059 13.5862 22.5754 13.0054 22.5602 12.4819C22.5526 11.9502 22.5146 11.4594 22.4842 11.3776C22.4462 11.2713 22.4538 11.2467 22.5526 11.2876C22.6211 11.3122 22.6743 11.304 22.6743 11.2631C22.6743 11.0831 22.2713 9.14449 22.2104 9.00543C22.1648 8.92363 22.1192 8.70277 22.104 8.51463C22.0659 7.99929 21.7161 7.13222 21.4196 6.8132C21.2751 6.65779 21.1534 6.46965 21.1534 6.38785C21.1534 6.30605 21.1078 6.23243 21.0621 6.21607C21.0089 6.19971 20.5678 6.02793 20.0812 5.83979C19.161 5.47988 18.6667 5.41444 18.1344 5.58621C17.2523 5.86433 16.8036 6.90318 17.1306 7.93386C17.3055 8.49009 17.2066 8.69459 16.6059 9.02179C16.2105 9.23446 15.8302 9.24264 15.5793 9.02997C15.3131 8.80093 14.9329 8.16289 14.834 7.77026C14.6363 7.00952 14.6667 5.94613 14.8797 6.03611C14.9481 6.06065 14.9861 6.01975 14.9785 5.89705C14.9785 5.79889 14.9785 5.65983 14.9861 5.59439C14.9937 5.48806 15.0013 5.48806 15.0698 5.59439C15.1306 5.69255 15.1458 5.68437 15.1458 5.54531C15.1458 5.25902 15.5184 4.97272 16.0964 4.82548C16.393 4.75186 16.7276 4.6946 16.8416 4.6946C16.9633 4.6946 17.0393 4.66188 17.0089 4.6128C16.9481 4.51464 16.9405 4.50646 17.3511 4.64552C17.815 4.79276 18.1876 4.74368 18.393 4.4901C18.5526 4.29379 18.5603 4.01567 18.393 3.90115C18.3473 3.86843 18.3321 3.90115 18.3625 3.97477C18.4386 4.20381 18.2028 4.4492 17.9063 4.4492C17.6477 4.4492 17.085 4.22017 17.1534 4.14655C17.2295 4.05657 17.488 4.07293 17.7238 4.17927L17.9747 4.29379L17.9291 4.06475C17.8454 3.71301 17.6021 3.49215 17.1762 3.37763C16.9557 3.32037 16.6287 3.18949 16.4462 3.08316C16.0203 2.84594 15.7162 2.84594 14.834 3.09133C14.1268 3.28765 13.374 3.32855 13.0546 3.18131C12.9177 3.11587 12.9101 3.12405 13.0166 3.26311C13.0774 3.34491 13.2371 3.48397 13.3588 3.56577L13.5869 3.72937L13.2827 3.67211L12.9785 3.61485L13.161 3.78663C13.2599 3.88479 13.374 3.95841 13.412 3.95841C13.4424 3.95841 13.4728 3.99113 13.4728 4.03203C13.4728 4.07293 13.3816 4.09747 13.2675 4.08111L13.0622 4.05657L13.2523 4.23653L13.45 4.41648L13.2143 4.7764C12.9785 5.1445 12.5603 6.36331 12.5603 6.68233C12.5527 7.13222 12.431 7.04224 12.3398 6.52691C12.2333 5.88069 11.9367 5.0627 11.6782 4.68642L11.4957 4.41648L11.701 4.22835L11.9139 4.04839L11.7086 4.08929C11.4424 4.13837 11.4424 4.08111 11.7086 3.83571L11.9139 3.63121L11.6477 3.68029L11.3816 3.72937L11.6097 3.57395C11.739 3.48397 11.8911 3.34491 11.9519 3.26311C12.0584 3.12405 12.0508 3.11587 11.9139 3.18131C11.5489 3.34491 10.9253 3.32037 10.2409 3.12405C9.29794 2.84594 8.95574 2.84594 8.49186 3.09951Z" fill="#666666"/>
</svg>
