<svg width="201" height="41" fill="none" xmlns="http://www.w3.org/2000/svg"><path d="M194.557 6.455h4.74c-.851.475-1.988 1.376-3.417 2.701l-4.738 4.842 2.6 3.72c2.719 3.874 5.097 6.83 7.135 8.869h-6.778c-.85-1.971-1.954-3.976-3.313-6.015l-3.058-4.587 2.65-3.364c2.376-3.091 3.771-5.146 4.179-6.166zm-7.186 2.242v15.597l.204 1.171c.135.204.441.375.915.51v.612h-6.573v-.612l.916-.51c.136-.203.204-.593.204-1.171V8.697l-.204-1.121c-.135-.237-.442-.39-.916-.458v-.663h6.573v.663c-.475.067-.781.221-.915.458l-.204 1.121zm-9.787 0v15.597l.204 1.171.918.51v.612h-6.626v-.612c.475-.135.816-.306 1.02-.51l.152-1.171V16.19h-7.748v8.104l.204 1.171c.137.204.441.375.916.51v.612h-6.677v-.612c.545-.135.883-.306 1.02-.51l.204-1.171V8.697l-.204-1.121c-.137-.237-.475-.39-1.02-.458v-.663h6.677v.663c-.476.067-.78.221-.916.458l-.204 1.121v6.167h7.748V8.697l-.152-1.121c-.204-.237-.545-.39-1.02-.458v-.663h6.626v.663c-.477.067-.781.221-.918.458l-.204 1.121zm23.293 24.924H53.375v-1.987h147.502v1.987zM145.526 7.118v-.663h5.81c.066.917.307 1.903.713 2.956l4.281 12.028c.714 2.107 1.409 3.823 2.089 5.148h-5.097l-2.189-7.237h-6.475l-1.376 4.79-.408 2.447h-3.669l6.523-15.087c.646-1.596.968-2.684.968-3.261.001-.646-.39-1.019-1.17-1.121zm2.395 2.701l-2.752 8.104h5.505l-2.753-8.104zm-10.295 1.02h-1.123l-.255-.867c-.271-.985-.68-1.631-1.223-1.937l-2.803-.357h-2.701c-.612 0-1.02.102-1.224.306-.169.17-.255.475-.255.917v4.791h1.121c3.263 0 5.523.323 6.779.968 1.802.884 2.702 2.617 2.702 5.199 0 2.515-.714 4.315-2.143 5.402-1.256.885-3.209 1.325-5.861 1.325h-8.052v-.612l.968-.51.152-1.171V8.697l-.152-1.121c-.136-.237-.458-.39-.968-.458v-.663h15.036v4.384h.002zm-9.583 4.127v8.614c0 .68.12 1.121.356 1.325.274.272.749.408 1.428.408h.611c1.293 0 2.243-.442 2.855-1.325.543-.815.816-2.123.816-3.924 0-1.767-.29-3.024-.868-3.771-.611-.884-1.75-1.326-3.415-1.326h-1.783v-.001zm-7.237-2.752c0 2.345-.714 4.026-2.143 5.046-1.223.884-3.126 1.325-5.708 1.325h-2.039v5.708l.203 1.171c.103.204.425.375.968.51v.612h-6.626v-.612l.918-.51.204-1.171V8.697l-.204-1.121c-.136-.237-.442-.39-.918-.458v-.663h8.359c2.276 0 3.94.339 4.995 1.019 1.328.884 1.991 2.465 1.991 4.74zm-9.583-4.332c-.204.135-.306.441-.306.917v8.512h2.039c1.257 0 2.141-.476 2.65-1.427.442-.849.662-2.141.662-3.874 0-2.888-1.207-4.332-3.618-4.332h-.51l-.917.204zm-8.817 2.957h-1.07l-.255-.867c-.339-.985-.765-1.631-1.274-1.937l-2.753-.357h-2.243l-.815.204-.204.764v6.218h2.65c1.835 0 3.041-.204 3.619-.611v2.548c-.577-.408-1.784-.612-3.619-.612h-2.65v7.543c0 .612.204 1.037.612 1.274l2.548.306h.561l2.752-.408c.476-.306.85-1.053 1.121-2.242l.204-.765h1.274v4.689H88.338v-.612c.51-.135.833-.306.969-.51l.204-1.171V8.697l-.204-1.121c-.136-.237-.459-.39-.969-.458v-.663h14.067v4.384h.001zm-17.381 0h-1.07l-.255-.867c-.306-.985-.731-1.631-1.274-1.937l-2.701-.357h-2.803c-.578 0-.986.102-1.224.306-.102.17-.153.475-.153.917v4.791h1.121c3.229 0 5.487.323 6.779.968 1.766.884 2.65 2.617 2.65 5.199 0 2.515-.714 4.315-2.141 5.402-1.224.885-3.178 1.325-5.861 1.325h-8.104v-.612c.544-.135.884-.306 1.02-.51l.204-1.171V8.697l-.204-1.121c-.135-.237-.475-.39-1.02-.458v-.663h15.036v4.384zM64.74 8.086c-.612-.441-1.563-.663-2.854-.663-2.039 0-3.483.747-4.333 2.243-.713 1.291-1.07 3.397-1.07 6.32 0 2.923.391 5.08 1.172 6.473.951 1.733 2.582 2.6 4.893 2.6 1.699 0 3.381-.408 5.046-1.224l.611 1.275c-1.937 1.188-4.213 1.783-6.83 1.783-6.389 0-9.582-3.381-9.582-10.143 0-7.101 3.313-10.652 9.939-10.652 2.548 0 4.503.306 5.861.918v4.18h-1.274l-.357-1.224c-.27-.849-.678-1.478-1.222-1.886zm10.806 6.88v8.614c0 .68.102 1.121.306 1.325.272.272.765.408 1.479.408h.561c2.447 0 3.669-1.75 3.669-5.249 0-1.767-.288-3.024-.866-3.771-.645-.884-1.801-1.326-3.466-1.326h-1.683v-.001z" fill="#006236"/><path d="M34.261 3.244l1.784 1.631-22.528 12.946-10.907-6.32 1.019-2.039 9.888 5.658L34.261 3.244zM29.725.645l2.396 1.224-18.604 10.702-8.664-4.943 1.478-1.784 7.186 4.128L29.725.645zm7.9 5.912l1.325 1.784-25.433 14.628-12.283-7.034.561-2.243 11.723 6.728L37.625 6.557z" fill="url(#a)"/><path d="M41.295 13.132c.747 2.107 1.121 4.315 1.121 6.626s-.374 4.553-1.121 6.727l-.51 1.378c-1.053 2.479-2.531 4.689-4.435 6.626-1.936 1.901-4.144 3.363-6.626 4.383-2.615 1.122-5.316 1.682-8.104 1.682-2.821 0-5.522-.562-8.104-1.682-2.413-1.02-4.604-2.481-6.575-4.383-1.937-1.938-3.415-4.147-4.434-6.626-1.086-2.618-1.63-5.319-1.63-8.105v-1.377l12.64 7.187 26.656-15.29 1.122 2.854z" fill="url(#b)"/><defs><radialGradient id="a" cx="0" cy="0" r="1" gradientUnits="userSpaceOnUse" gradientTransform="translate(22.9974 20.2174) scale(23.8656)"><stop stop-color="#52A347"/><stop offset=".502" stop-color="#83B03E"/><stop offset=".7059" stop-color="#2EA64C"/><stop offset=".9294" stop-color="#264122"/><stop offset=".9333" stop-color="#264122"/></radialGradient><radialGradient id="b" cx="0" cy="0" r="1" gradientUnits="userSpaceOnUse" gradientTransform="translate(22.9975 20.2162) scale(23.8659)"><stop stop-color="#52A347"/><stop offset=".502" stop-color="#83B03E"/><stop offset=".7059" stop-color="#2B9940"/><stop offset=".9294" stop-color="#264122"/><stop offset=".9333" stop-color="#264122"/></radialGradient></defs></svg>
