<svg xmlns="http://www.w3.org/2000/svg" viewBox="0 0 102 102"><path d="M92 102H10c-5.52 0-10-4.48-10-10V10C0 4.48 4.48 0 10 0h82c5.52 0 10 4.48 10 10v82c0 5.52-4.48 10-10 10z" fill="#969698"/><path d="M85.3 33.6c.54-1.57 0-2.72-2.37-2.72h-7.87c-2 0-2.9 1-3.44 2.07 0 0-4.05 9.16-9.7 15.1-1.83 1.72-2.68 2.3-3.67 2.3-.54 0-1.22-.57-1.22-2.15V33.52c0-1.86-.6-2.72-2.3-2.72h-12.4c-1.22 0-2 .86-2 1.72 0 1.8 2.83 2.22 3.13 7.22V50.6c0 2.36-.46 2.8-1.45 2.8-2.68 0-9.17-9.23-13.07-19.74-.76-2.07-1.53-2.86-3.52-2.86H17.5c-2.3 0-2.68 1-2.68 2.07 0 1.93 2.68 11.66 12.46 24.53 6.5 8.8 15.75 13.52 24.08 13.52 5.05 0 5.66-1.07 5.66-2.86V61.4c0-2.15.46-2.5 2.06-2.5 1.15 0 3.2.57 7.87 4.8 5.35 5 6.27 7.3 9.25 7.3h7.87c2.3 0 3.36-1.07 2.75-3.15-.7-2.07-3.3-5.08-6.65-8.66-1.83-2-4.6-4.22-5.43-5.3-1.15-1.43-.84-2 0-3.3-.06 0 9.57-12.73 10.56-17.02" fill-rule="evenodd" fill="#fff"/></svg>