<svg width="530" height="133" fill="none" xmlns="http://www.w3.org/2000/svg"><path fill-rule="evenodd" clip-rule="evenodd" d="M.3 5.16a4.06 4.06 0 014.02-4.08h119.75a4.07 4.07 0 014.02 4.08V124.8a4.06 4.06 0 01-4.02 4.08H4.32A4.07 4.07 0 01.3 124.8V5.16z" fill="#003974"/><path d="M55 26c.41 0 .6-.31.43-.69l-.93-1.91a1.3 1.3 0 00-1.07-.68h-33.8c-.4 0-.6.3-.42.68l.92 1.92a1.31 1.31 0 001.07.68H55zm2.62 3.92a1.3 1.3 0 00-1.07-.68h-33.8c-.41 0-.6.3-.43.68l.92 1.92a1.31 1.31 0 001.07.68h33.8c.41 0 .6-.3.43-.68l-.92-1.92zm3.13 6.56a1.3 1.3 0 00-1.08-.68h-33.8c-.41 0-.6.3-.43.68l.92 1.93c.18.37.66.68 1.07.68h33.8c.42 0 .6-.31.43-.69l-.91-1.92zm3.12 6.56a1.3 1.3 0 00-1.07-.68H29c-.42 0-.6.3-.43.68l.92 1.93c.17.37.66.68 1.07.68h33.8c.41 0 .6-.3.43-.68l-.92-1.93zM67 49.6a1.3 1.3 0 00-1.08-.67h-33.8c-.41 0-.6.3-.43.67l.92 1.93c.18.37.66.68 1.07.68h33.8c.41 0 .6-.3.43-.68L67 49.6zm3.12 6.57a1.3 1.3 0 00-1.07-.68h-33.8c-.41 0-.6.3-.43.68l.92 1.92c.18.38.66.68 1.07.68H70.6c.41 0 .6-.3.43-.68l-.92-1.92h.01zm3.13 6.56a1.3 1.3 0 00-1.08-.68h-33.8c-.41 0-.6.3-.43.68l.92 1.93a1.31 1.31 0 001.08.67h33.8c.4 0 .6-.3.42-.67l-.91-1.93z" fill="#fff"/><path fill-rule="evenodd" clip-rule="evenodd" d="M107.53 65.33a8.21 8.21 0 10-.02-16.42 8.21 8.21 0 00.02 16.42z" fill="#ED1B34"/><path d="M63.58 19.43c.4 0 .75-.34.75-.75v-1.79a.75.75 0 00-.75-.75H11.14a.75.75 0 00-.75.75v1.79c0 .4.33.75.75.75h52.44zM41.19 68.61c-.4 0-.6.3-.42.67l21.36 44.25c.18.38.6.38.79 0l19.5-40.96a1.3 1.3 0 011.07-.68h31.48c.41 0 .75-.34.75-.75v-1.78a.75.75 0 00-.75-.75H41.19zm73.79-52.48H87.94a.75.75 0 00-.75.75v1.78a.75.75 0 00.75.75h4.01c1 .06 6.75.09 4.56 6.8L78.54 64.66c-.18.37.02.68.43.68h6.15c.41 0 .9-.3 1.07-.68l19.4-40.57c.9-1.83 1.96-3.07 3.2-3.7a10.9 10.9 0 014.99-.97h1.2a.75.75 0 00.69-.46c.04-.1.06-.2.06-.3V16.9a.75.75 0 00-.75-.75z" fill="#fff"/><path d="M247.6 41.96h-5.34a.5.5 0 00-.46.46v11.94h-15.65V42.4a.5.5 0 00-.46-.45h-5.34a.5.5 0 00-.46.47v29a.5.5 0 00.48.47h5.31a.5.5 0 00.47-.45V59.2h15.66v12.24c.01.12.07.23.15.32.09.08.2.13.32.14h5.32a.5.5 0 00.47-.47v-29a.5.5 0 00-.46-.48l-.01.01zm-70.67 14.67c-1.25-1.53-3.1-2.27-5.64-2.27h-14.5v-5.95c0-.34 0-1 .36-1.31.34-.25.98-.29 1.5-.29h14.86a.5.5 0 00.48-.49v-3.87a.5.5 0 00-.48-.48h-18.57c-1.71 0-2.73.62-3.28 1.15-1 1-1.13 2.4-1.13 3.36v21.29c0 .87.1 2 .9 2.88.75.83 1.84 1.25 3.25 1.25h16.7c3.13 0 4.77-1.26 5.46-2 1.15-1.27 1.73-3.55 1.73-6.77 0-3.03-.53-5.13-1.63-6.5zm-5.65 9.64c-.82.79-1.88.79-2.9.79h-9.5c-.62 0-1.56 0-1.92-.47-.04-.06-.18-.26-.18-1.52v-5.86h11.6c1.03 0 2.1.05 2.87.74.83.76.9 1.88.9 3.05v.1c0 .9 0 2.33-.86 3.16l-.01.01zm43.82 4.95l-.02-.03-11.1-26.1c-1.18-2.56-2.73-3.47-5.6-3.47-2.95 0-4.38.84-5.6 3.46l-11.14 26.15a.44.44 0 00-.03.17.51.51 0 00.5.5h5.05a.52.52 0 00.44-.28l.02-.05 3.1-7.52h15.3l3.1 7.53.02.03c.08.17.25.28.45.3h5.06c.27-.01.49-.23.49-.5a.64.64 0 00-.04-.18zM192.73 59.2l4.82-11.7s.36-1.03.83-1.03c.48 0 .83 1.02.83 1.02l4.81 11.71h-11.3.01zm90 11.87L268.64 59.1c-.66-.57-1.91-1.64-1.91-2.54 0-.6.75-1.38 1.56-2.12l12.84-11.64a.5.5 0 00-.34-.82h-6.42c-.1 0-.2.04-.27.1L262 53.07c-.52.5-.89.98-1.15 1.43V42.4a.5.5 0 00-.45-.45h-5.34a.5.5 0 00-.46.47v29a.5.5 0 00.46.47h5.34a.5.5 0 00.45-.45V58.6a7.5 7.5 0 001.6 1.9l13.13 11.3c.07.06.16.1.26.1h6.56a.5.5 0 00.34-.83h-.01zM498.62 6.6c0-.63 0-2.08-.65-3.3-.77-1.47-2.22-2.22-4.3-2.22-2.33 0-3.73.89-5.34 3.38l-12.48 19.38c-.17.27-.35.59-.52.59-.1 0-.16-.03-.18-.06-.14-.14-.14-.57-.14-.94l.01-21.9a.5.5 0 00-.45-.46h-5.35a.5.5 0 00-.46.47v24.2c0 1.57 0 5.26 4.77 5.26 3.23 0 4.2-1.51 5.06-2.85l12.8-19.64c.25-.4.57-.9.75-.9.1 0 .23.08.23.75l-.01 22.18a.5.5 0 00.46.47h5.34a.5.5 0 00.46-.46V6.61zm-321.7 10.7a5.36 5.36 0 00-2.8-1.5c.88-.2 1.6-.66 2.3-1.47 1.4-1.6 1.5-3.24 1.5-4.94 0-1.94-.2-4.72-2-6.48-1.66-1.62-3.96-1.83-5.77-1.83h-15.19c-1.52 0-2.67.44-3.43 1.3a4.94 4.94 0 00-1.03 3.17v21.08c0 1.67.7 2.68 1.12 3.14 1.18 1.28 2.5 1.25 3.9 1.25h15.26c1.96 0 3.98 0 5.8-1.97 1.82-1.95 1.82-4.38 1.82-6.34 0-1.62 0-3.83-1.51-5.41h.03zm-20.14-3.82V7.35c0-.52.12-.92.34-1.16.26-.28.62-.28 1.04-.27h9.68c.96 0 1.95 0 2.73.7.84.77.95 2 .95 3.01 0 1.88-.39 2.6-.6 2.85-.74.98-1.9.98-3.03.98h-11.1v.01zm14.48 11.7c-.85.99-2.47.99-3.24.99h-9.3c-.44 0-1.26 0-1.65-.4-.2-.22-.3-.76-.3-1.58v-5.88h11.63c1.83 0 2.65.71 2.97 1.14.4.56.63 1.56.63 2.87 0 .92-.13 2.15-.75 2.86h.01zM211.5 3.94C208.07.75 202.62.75 199 .75c-3.78 0-8.96 0-12.47 3.18-3.36 3.04-3.65 7.86-3.65 12.13 0 3.28 0 8.78 3.65 12.13 3.46 3.17 8.89 3.17 12.47 3.17 3.63 0 9.1 0 12.48-3.17 3.55-3.35 3.55-9.5 3.55-12.13 0-4.09-.4-9.16-3.55-12.13zm-20.23 4.09c2.05-2.42 5.32-2.42 7.7-2.42 2.9 0 5.92.19 7.76 2.41 1.3 1.56 1.9 4.12 1.9 8.05 0 3.84-.63 6.46-1.9 8-2 2.46-5.46 2.46-7.75 2.46-3.7 0-6.03-.4-7.7-2.45-1.35-1.64-1.95-4.1-1.95-8.01 0-4.02.59-6.42 1.94-8.04zM312.6 3.93C309.18.75 303.73.75 300.12.75c-3.78 0-8.96 0-12.47 3.18-3.37 3.04-3.65 7.86-3.65 12.13 0 3.28 0 8.78 3.65 12.13 3.46 3.17 8.88 3.17 12.47 3.17 3.62 0 9.1 0 12.48-3.17 3.56-3.35 3.56-9.5 3.56-12.13 0-4.09-.41-9.16-3.56-12.13zm-20.23 4.09c2.04-2.42 5.32-2.42 7.7-2.42 2.9 0 5.91.19 7.75 2.41 1.3 1.56 1.9 4.12 1.9 8.05 0 3.84-.62 6.46-1.9 8-1.99 2.46-5.45 2.46-7.74 2.46-3.7 0-6.03-.4-7.7-2.45-1.35-1.64-1.95-4.1-1.95-8.01 0-4.02.58-6.42 1.94-8.04zm135.78 18.16H411.9c-.8 0-1.53-.02-1.84-.32-.23-.18-.38-.6-.38-.98v-6.55h15a.5.5 0 00.47-.48v-3.87a.5.5 0 00-.48-.5h-15v-5.9c0-.4 0-.91.41-1.27.38-.33.93-.37 1.46-.37h16.44a.5.5 0 00.47-.49V1.57a.5.5 0 00-.48-.49H408.4c-1.4 0-2.84.15-3.86 1.2a4.9 4.9 0 00-1.12 3.23v20.91c0 1.3.14 2.64 1.21 3.62 1.08.98 2.34.98 3.68.98h19.84a.5.5 0 00.48-.49v-3.87a.5.5 0 00-.48-.49v.01zm101 0H512.9c-.8 0-1.53-.02-1.84-.32-.23-.18-.38-.6-.38-.98v-6.55h15a.5.5 0 00.47-.48v-3.87a.5.5 0 00-.48-.5h-15v-5.9c0-.4 0-.91.41-1.27.38-.33.93-.37 1.46-.37h16.44a.5.5 0 00.47-.49V1.57a.5.5 0 00-.48-.49H509.4c-1.4 0-2.84.15-3.86 1.2a4.9 4.9 0 00-1.12 3.23v20.91c0 1.3.14 2.64 1.21 3.62 1.08.98 2.34.98 3.68.98h19.84a.5.5 0 00.48-.49v-3.87a.5.5 0 00-.48-.49v.01zm-66.92-25.1h-5.34a.5.5 0 00-.46.46v11.94h-15.67V1.53a.5.5 0 00-.45-.45h-5.34a.5.5 0 00-.46.47v29a.5.5 0 00.47.47h5.31a.5.5 0 00.48-.46V18.32h15.66v12.24a.5.5 0 00.47.46h5.3a.5.5 0 00.47-.48V1.55a.5.5 0 00-.46-.47h.02zM276.88 2.91c-1.96-1.83-4.67-1.83-6.29-1.83h-14.71c-1.6 0-2.8.4-3.64 1.2-1.13 1.07-1.13 2.33-1.13 3.44v24.83a.5.5 0 00.46.47h5.34a.5.5 0 00.46-.46v-10h14.28a8.2 8.2 0 004.86-1.48c1.87-1.46 2.78-4.16 2.78-8.26 0-2.66-.28-5.96-2.4-7.91h-.01zm-4.98 11.78c-.96 1.03-2.39 1.03-3.65 1.03h-10.88V7.49c0-.5 0-.92.33-1.24.34-.33.76-.33 1.12-.32h9.52c.8 0 2.48 0 3.48.95.93.93 1.04 2.67 1.04 3.9 0 .7 0 2.86-.96 3.9zm89.3 15.5L349.06 18.2c-.72-.68-1.57-1.69-1.57-2.63 0-.8.61-1.42 1.22-2.04l10.94-11.66a.5.5 0 00-.34-.8h-6.4c-.1.01-.2.05-.27.12l-9.68 10.91c-.4.45-.74.94-1.04 1.46V1.53a.5.5 0 00-.46-.45h-5.34a.5.5 0 00-.45.47v12.03c-.26-.47-.61-.96-1.05-1.46L324.95 1.2a.55.55 0 00-.27-.12h-6.4a.5.5 0 00-.34.8l10.94 11.66c.6.62 1.23 1.25 1.23 2.05 0 .93-.86 1.95-1.57 2.63L316.4 30.19a.5.5 0 000 .67c.1.1.21.15.34.16h6.67a.5.5 0 00.3-.12l.07-.09 10.4-11.12a9.55 9.55 0 001.5-2.01v12.87a.5.5 0 00.45.47h5.34a.5.5 0 00.46-.45V17.68c.31.59.78 1.26 1.5 2.01l10.47 11.2a.5.5 0 00.29.13h6.67a.5.5 0 00.47-.5.5.5 0 00-.13-.33zm37.66-4.02h-2.43L387.26 4.2c-1.15-2.55-2.67-3.46-5.49-3.46-2.88 0-4.3.84-5.48 3.46l-9.17 21.97h-2.44a.5.5 0 00-.49.5v3.87c0 .27.22.48.49.49h34.2a.5.5 0 00.48-.49v-3.87a.5.5 0 00-.5-.49zm-17.9-19.56s.36-1.02.8-1.02c.47 0 .82 1.02.82 1.02l7.9 19.56h-17.42l7.9-19.56zM243.77 17.3a5.36 5.36 0 00-2.8-1.5c.89-.2 1.6-.66 2.3-1.47 1.4-1.6 1.5-3.24 1.5-4.94 0-1.94-.2-4.72-2-6.48-1.66-1.62-3.96-1.83-5.77-1.83H220.1a.5.5 0 00-.49.5v3.87c.01.26.22.48.48.49h14.58c.96 0 1.95 0 2.74.7.84.77.94 2 .94 3.01 0 1.88-.38 2.6-.6 2.86-.74.98-1.9.98-3.02.98h-11.29a.5.5 0 00-.48.49v3.86a.5.5 0 00.47.5h11.85c1.83 0 2.64.7 2.97 1.14.4.56.62 1.55.62 2.86 0 .92-.13 2.16-.75 2.86-.85.98-2.47.98-3.24.98h-14.93a.5.5 0 00-.48.5v3.86c0 .27.21.48.47.5h17.72c1.96 0 3.99 0 5.82-1.97 1.82-1.96 1.82-4.39 1.82-6.34 0-1.63 0-3.84-1.51-5.42v-.01zm-86.46 111.48h-6.8V114h11.23v2.58h-7.92v2.98h3.49c3.41 0 5.5 1.9 5.5 4.6 0 2.71-2.08 4.62-5.51 4.62zm-.17-6.64h-3.32v4.06h3.32c1.48 0 2.36-.8 2.36-2.03 0-1.2-.88-2.03-2.36-2.03zm18.63 6.64l-1-2.62h-6.04l-1.02 2.62h-3.46l6.18-14.78h2.6l6.2 14.78h-3.46zm-3.96-10.42l-2.14 5.37h4.22l-2.08-5.37zm18.59 10.42v-6.19h-5.75v6.19h-3.32V114h3.32v6.04h5.75V114h3.31v14.78h-3.31zm7.32 0V114h3.32v7.02l5.49-7.02h3.96l-5.7 6.93 6.27 7.85H207l-5.96-7.72v7.72h-3.32zm14.87 3.42v-6.37H216v4.09l-3.41 2.28zm12.6-3.42V114h3.31v7.02L234 114h3.96l-5.7 6.93 6.27 7.85h-4.06l-5.96-7.72v7.72h-3.31zm26.72-6.85c0 1.93-.03 3.86-1.7 5.35a6.6 6.6 0 01-4.58 1.62 6.77 6.77 0 01-4.6-1.62c-1.65-1.47-1.67-3.67-1.67-5.27v-1.22c0-2.95.36-4.13 1.67-5.3a6.76 6.76 0 014.6-1.62c1.82 0 3.4.56 4.58 1.62 1.2 1.06 1.7 2.47 1.7 4.85v1.58zm-4.15-4.69a2.95 2.95 0 00-2.13-.8c-.86 0-1.62.27-2.14.8-.77.73-.82 2.12-.82 3.94v.75c0 1.53.03 2.92.82 3.6.59.52 1.35.8 2.14.79.86 0 1.6-.27 2.13-.8.69-.68.83-1.4.83-4.41 0-2.43-.16-3.24-.83-3.88v.01zm13.55-.66v12.2h-3.32v-12.2h-4.44V114h12.2v2.58h-4.44zm18.63 5.35c0 1.93-.02 3.86-1.7 5.35a6.6 6.6 0 01-4.57 1.62 6.77 6.77 0 01-4.6-1.62c-1.65-1.47-1.68-3.67-1.68-5.27v-1.22c0-2.95.36-4.13 1.67-5.3a6.76 6.76 0 014.6-1.62c1.82 0 3.4.56 4.59 1.62s1.7 2.47 1.7 4.85v1.58zm-4.15-4.69a2.95 2.95 0 00-2.12-.8c-.86 0-1.63.27-2.15.8-.76.73-.81 2.12-.81 3.94v.75c0 1.53.02 2.92.8 3.6.6.52 1.37.8 2.16.79.85 0 1.6-.27 2.12-.8.7-.68.83-1.4.83-4.41 0-2.43-.16-3.24-.83-3.88v.01zM289.9 114c3.27 0 5.61 1.9 5.61 4.6 0 2.71-2.31 4.61-5.6 4.61h-3.28v5.56h-3.31V114h6.58zm-.16 6.62c1.48 0 2.45-.79 2.45-2.01 0-1.23-.97-2.04-2.45-2.04h-3.1v4.05h3.1zm15.24 8.15h-6.68V114h3.32v5.56h3.36c3.32 0 5.51 1.9 5.51 4.6 0 2.71-2.21 4.61-5.5 4.61zm-.26-6.64h-3.1v4.07h3.1c1.5 0 2.46-.8 2.46-2.03 0-1.2-.95-2.04-2.46-2.04zm7.6 6.64V114h3.32v14.77h-3.32zm16.85 0v-9.48l-6.6 9.48h-2.96V114h3.31v9.46l6.61-9.46h2.96v14.77h-3.32zm-3.1-15.56c-1.89 0-3.77-.72-3.87-2.96h2.34c.07.91.67 1.28 1.52 1.28.86 0 1.46-.37 1.53-1.28h2.34c-.1 2.24-1.98 2.96-3.86 2.96zm27.18 8.79a3.26 3.26 0 011.05 2.55c0 2.6-2 4.23-5.2 4.23H342v-14.77h6.82c3.2 0 5.25 1.58 5.25 4.07 0 1.4-.7 2.45-2.1 3.13.67.31.93.48 1.3.8l-.01-.01zm-4.7-2.01c1.36 0 2.2-.65 2.2-1.7 0-1.06-.84-1.7-2.2-1.7h-3.25v3.4h3.25zm.21 6.22c1.36 0 2.22-.7 2.22-1.82s-.86-1.8-2.22-1.8h-3.46v3.62h3.46zm14.6 2.7c-1.85 0-3.4-.58-4.57-1.62-1.72-1.5-1.67-3.34-1.67-5.89s-.05-4.4 1.67-5.9a6.77 6.77 0 014.58-1.61c3.17 0 5.65 1.58 6.25 4.67h-3.37c-.33-1.19-1.19-2.1-2.86-2.1a3 3 0 00-2.12.77c-.65.62-.84 1.33-.84 4.17s.2 3.55.84 4.17c.47.48 1.21.77 2.12.77 1.67 0 2.53-.92 2.86-2.1h3.37c-.6 3.1-3.1 4.67-6.25 4.67zm9.12-.12V114h11.2v2.58h-7.87v3.46h6.7v2.57h-6.7v3.6h7.87v2.58h-11.2v-.01zm17.82-12.2v12.2H387V114h10.7v2.58h-7.38zm20.02 15.47v-3.27h-9.43v3.27h-3.2v-5.85h1.6c1.42-1.9 2.04-5.02 2.04-8.42v-3.78h10.23v12.2h1.96v5.85h-3.2zm-2.08-15.47h-3.74v2.13c0 2.93-.34 5.44-1.5 7.5h5.25V116.6zm17.59 12.2l-1-2.62h-6.04l-1.03 2.62h-3.46L420.5 114h2.6l6.2 14.78h-3.45zm-3.96-10.42l-2.15 5.37h4.23l-2.08-5.37zm20.73 10.54c-1.86 0-3.4-.58-4.58-1.62-1.71-1.49-1.67-3.34-1.67-5.89s-.04-4.4 1.67-5.9a6.77 6.77 0 014.58-1.61c3.18 0 5.66 1.58 6.25 4.67h-3.36c-.33-1.19-1.2-2.1-2.86-2.1-.9 0-1.65.3-2.13.77-.64.62-.83 1.33-.83 4.17s.2 3.55.83 4.17c.48.48 1.22.77 2.13.77 1.67 0 2.53-.92 2.86-2.1h3.36c-.6 3.1-3.1 4.67-6.25 4.67zm21.14-12.32v12.2h-3.32v-12.2H456V114h12.19v2.58h-4.44zm18.63 5.35c0 1.93-.02 3.86-1.69 5.35a6.6 6.6 0 01-4.58 1.62 6.77 6.77 0 01-4.6-1.62c-1.65-1.47-1.67-3.67-1.67-5.27v-1.22c0-2.95.35-4.13 1.67-5.3a6.76 6.76 0 014.6-1.62c1.81 0 3.39.56 4.58 1.62 1.2 1.06 1.7 2.47 1.7 4.85v1.59zm-4.14-4.69a2.95 2.95 0 00-2.13-.8c-.86 0-1.62.27-2.15.8-.76.73-.8 2.12-.8 3.94v.75c0 1.53.03 2.92.8 3.6.6.52 1.36.8 2.15.79.86 0 1.6-.27 2.13-.79.69-.69.83-1.4.83-4.42 0-2.43-.17-3.24-.83-3.88v.01zm14.33 11.54h-6.8v-14.77h11.24v2.57h-7.92v2.98h3.49c3.4 0 5.5 1.9 5.5 4.61 0 2.7-2.07 4.6-5.5 4.6zm-.16-6.64h-3.32v4.06h3.32c1.48 0 2.36-.8 2.36-2.03 0-1.2-.88-2.03-2.36-2.03zm20.95-.2c0 1.92-.03 3.85-1.7 5.34a6.6 6.6 0 01-4.58 1.62c-1.83 0-3.4-.56-4.6-1.62-1.65-1.47-1.67-3.67-1.67-5.27v-1.22c0-2.95.36-4.13 1.67-5.3a6.76 6.76 0 014.6-1.62c1.82 0 3.4.56 4.58 1.62 1.18 1.06 1.7 2.47 1.7 4.85v1.59zm-4.16-4.7a2.95 2.95 0 00-2.12-.8c-.86 0-1.62.27-2.15.8-.76.73-.8 2.12-.8 3.94v.75c0 1.53.03 2.92.8 3.6.58.5 1.3.79 2.15.79.85 0 1.6-.27 2.12-.79.7-.69.84-1.4.84-4.42 0-2.43-.17-3.24-.84-3.88v.01zm17.11 11.54v-9.48l-6.6 9.48h-2.96v-14.77h3.32v9.45l6.6-9.45h2.96v14.77h-3.33.01zm-3.1-15.56c-1.89 0-3.77-.73-3.87-2.97h2.34c.07.91.67 1.29 1.53 1.29s1.45-.38 1.53-1.29h2.33c-.09 2.24-1.98 2.97-3.86 2.97z" fill="#003974"/></svg>
