<?xml version="1.0" encoding="UTF-8"?>
<svg enable-background="new 0 0 70 70" version="1.1" viewBox="0 0 70 70" xml:space="preserve" xmlns="http://www.w3.org/2000/svg">
<style type="text/css">
	.st0{fill-rule:evenodd;clip-rule:evenodd;fill:#FFC737;}
	.st1{fill-rule:evenodd;clip-rule:evenodd;}
</style>

	<path class="st0" d="m45.5 28.6s-15.6-11.4-21.6-13-10-2.2-11.6-1.1c-1.6 1-2.1 2.5-1.6 3.8s1.6 3.3 1.6 3.3l28.7 6.5 2.9 2.2 1.6-1.7z"/>
	<path class="st1" d="m44.9 28.5s-14.9-10.5-28.2-11.2c-13.4-0.7-14.7 1.1-14.3 2.9s1 4.6 7.3 4.8c6.2 0.1 26.7 4.5 26.7 4.5l6 1 2.5-2z"/>
	<path class="st0" d="m44.9 28.8s-13.2-8.6-25-9.2c-11.9-0.5-13 1-12.7 2.5s0.9 3.8 6.4 3.9 23.6 3.7 23.6 3.7l5.3 0.8 2.4-1.7z"/>
	<path class="st1" d="m10.8 35.8s1.7-4.2 6.1-6.4 9.3-3.9 9.3-3.9 2.6-0.3 3.4-0.5c0.8-0.1 2.8-0.7 3.8 0.1s1.1 0.3 1.9 2.4 0.5 5.2 2.2 5.3 2.3 0.2 4.1-1.3 1.3-2.5 3.1-2.5 3.9-0.7 5.3 0 6.3 5.6 6.3 5.6 1.5 0.6 2.3 1.4 1.1 1.6 1.1 1.6 2.2-1 1.5-4.9-0.1-4.5-1.7-5.2-1.4-2.1-0.6-2 1.8 0.7 2.3 2.2 1.7 4.6 1.1 6.9-1.8 3.8-1.8 3.8 0 0.2 0.5 1.3c0.5 1-0.5 2.4-0.1 3 0.3 0.6 1.3 2.2 3.4 3.1 2.2 0.9 3.2 1.1 3.8 1.8s-0.5 1.8-1.3 1.4c-0.8-0.5-4.1-2.6-4.7-3.2s-1.4-0.9-2.5-0.8-1.8 1.1-1.8 1.1l-1.1-0.9s-1.3-0.3-0.8 0.8 0.9 2.4 0.9 2.4 0.3 1.5 1.3 3.1c0.9 1.6 1.6 2.8 2.5 3.3 0.9 0.6 1 1.6 0.1 1.4s-3.7-3.2-3.9-4.1-1.1-2.8-2.3-3.6c-1.1-0.8-2.1-1.5-2.4-0.8s0 1.8-0.7 2.1c-0.7 0.2-0.3-0.1-1.1-0.9s-2.1 0.3-3.2-0.7-1.7-2.8-2.1-3.3c-0.3-0.6-0.6-0.9-1.5 0.3-0.9 1.3-2.9 6.2-3.1 7.5s-1.6 4.6-1.1 6 0.9 1.9 0.9 1.9-1.3 1.6-1.8 0.2c-0.6-1.4-0.6-3.9 0.5-6.8 1-2.9 2.2-7.3 2.2-7.3s1.6-1.3-0.1-1.4-3.2-0.2-2.9-1.7 0.7-3.2-0.3-2.9-1 1.7-2.6 1.4-1.9-0.3-1.9-0.3-8.6 5.5-11.7 9.1c-3.4 3.5-5.6 5.1-5.6 5.1s-1.3 0.6-0.3-1.1c0.9-1.7 5.2-5.7 6.3-6.7 1.1-0.9 3.7-3.6 3.7-3.6l2.9-2.5s1.8-1.9 0-1-4.8 3.4-7.1 4.4c-2.3 0.9-8.3 3.4-8.3 3.4l-1.7-0.3-1.3 0.1s-0.2 1.1-0.9 1.1-1.8-0.3-1.7-3.6c0-3.1 3.2-10.4 3.2-10.4"/>
	<path class="st0" d="m38.2 36.1s2.6-0.7 3-1.6c0.3-0.9 1.7-2.1 1.9-1.3s0.3 2.8 0.9 2.2 0.6-3.8 2.2-4.1 1.8-1.1 1.4 0.9c-0.5 2.1-0.6 5.2-0.1 5.7 0.5 0.6 1.1 1.5 2.5 0s1.9-0.7 1.9-0.7 0.9 0.3 1.5 0.8-0.9 1-1.7 1-2.1 0.9-0.9 1c1.1 0.1 3.1 0.3 3.3 1.5 0.2 1.1 2.4 3.3 2.4 3.3l-0.5 1s0-0.8-1.3-1.6-1.8-0.3-1.8-0.3-2.4 2.3-3.7 2.3-2.9-0.8-3.2-1.8-0.9-1.9-0.2-3.1c0.7-1.1 0.1-1.9-0.6-1.5-0.7 0.5-2.1 2.5-3 2.9-0.9 0.3-2.2 0.5-2.2-0.5 0-0.9-1.1-0.8-0.8-1.6s0.3-1.4-0.2-1.7c-0.6-0.3-0.5-1.7-0.5-1.7l-0.3-1.1z"/>
	<path class="st0" d="m15.2 33.5c0.4-0.2 1.1 0.1 1.5 0.7s0.4 1.4 0 1.6-1.1-0.1-1.5-0.7-0.4-1.3 0-1.6m6.6-3.8c0.4-0.2 1.1 0.1 1.5 0.7s0.4 1.4 0 1.6-1.1-0.1-1.5-0.7-0.4-1.3 0-1.6zm-9.8 9.5c0.2 0 0.4 0.2 0.4 0.4s-0.2 0.4-0.4 0.4-0.4-0.2-0.4-0.4c0-0.3 0.2-0.4 0.4-0.4zm-0.5 9.1s-0.2-0.9 3.4-1.7c3.7-0.8 9.4-3.8 10.3-4.5s2.6-3.2 3.2-3.2 2.3 0.3 2.3 0.3l-2.3 1.6s1.1 0.9 0.2 1.4 5.4-2.8 5.4-2.8 0.3-1.7-0.3-2.4c-0.7-0.7 0.5-2.9 0.5-4.5s-0.3-3.1-0.8-4.4-0.6-2.3-2.3-2.5-2.1 0-1.6 1.3 1 5.2 1 5.2 0.7 2.8 0.9 3.8 0.8 1.9-1.1 1.1c-2-0.8-2.6-1.8-2.9-2.9-0.2-1-2-1.6-2.3-3.3s1.1-3.2-0.5-3.2-4.7 0.7-4.8 1.8-0.2 2.1 1 4.6c1.3 2.5 2.2 4.4 2.2 5 0 0.7 1.5 1.4 1 2.2s-1.7 1.6-1.8 0.8-1.1-4.5-2.2-5.5c-1-1-2.8-4-3.7-4.1s-1.9 0.2-1.9 0.2-1.3 0.4-1.2 1.4 2.4 6.5 3.8 7.1-1.5 0.7-3.1-1.6-2.3-2.8-2.5-2.2-1 0.7-0.6 2.3c0.5 1.6 2.8 4.2 2.8 4.2l-3.8-2.5s-0.7 0.8-0.2 1.6 0 1.8 1.4 2.4-1.9-0.3-2.3 0.6c-0.3 0.9 0.7 2.3 0.7 2.3l0.7 0.7 1.4-0.6z"/>
	<path class="st1" d="m46.3 27s-12.7-10.7-19.6-13.1-12.3-3.3-14-3.1-1.6 1.6-1.6 1.6 1.5-0.1 3-0.1 10.9 3.3 11.9 3.4 6.3 2.9 8 3.8 8.3 5.3 8.3 5.3l2.5 1.8 1.5 0.4z"/>

</svg>
