<?xml version="1.0" standalone="no"?>
<!DOCTYPE svg PUBLIC "-//W3C//DTD SVG 20010904//EN"
 "http://www.w3.org/TR/2001/REC-SVG-20010904/DTD/svg10.dtd">
<svg version="1.0" xmlns="http://www.w3.org/2000/svg"
 width="700.000000pt" height="700.000000pt" viewBox="0 0 700.000000 700.000000"
 preserveAspectRatio="xMidYMid meet">
<metadata>
Created by potrace 1.11, written by Peter Selinger 2001-2013
</metadata>
<g transform="translate(0.000000,700.000000) scale(0.100000,-0.100000)"
fill="#000000" stroke="none">
<path d="M1273 5919 c-87 -11 -146 -58 -159 -126 l-6 -32 155 6 c173 6 200 2
412 -59 135 -38 213 -62 595 -181 97 -31 220 -67 274 -82 95 -26 208 -65 243
-84 10 -6 119 -60 243 -122 301 -149 433 -222 630 -347 355 -226 506 -327 699
-465 101 -72 136 -92 192 -107 38 -10 66 -14 63 -9 -8 14 -388 315 -579 459
-471 356 -856 605 -1168 756 -322 155 -1089 363 -1442 389 -44 4 -84 8 -90 9
-5 1 -33 -1 -62 -5z"/>
<path d="M1384 5600 c-106 -15 -178 -52 -247 -129 -43 -48 -62 -83 -77 -142
-11 -43 -13 -45 -48 -45 -69 -1 -297 -14 -317 -18 -11 -2 -46 -7 -78 -10 -143
-17 -285 -68 -336 -120 -44 -45 -53 -93 -36 -177 46 -220 154 -337 375 -407
36 -11 85 -23 110 -27 24 -4 47 -8 50 -10 3 -2 28 -4 55 -6 28 -1 70 -12 95
-25 88 -43 207 -70 347 -79 334 -20 367 -23 598 -56 77 -11 151 -21 165 -23
59 -10 136 -20 147 -21 31 -1 18 -15 -34 -35 -32 -13 -91 -38 -131 -57 -41
-18 -75 -33 -78 -33 -13 0 -320 -154 -369 -185 -157 -101 -326 -277 -425 -444
-23 -38 -61 -115 -86 -172 -25 -57 -49 -113 -54 -124 -23 -52 -93 -244 -133
-365 -94 -280 -123 -432 -114 -593 7 -120 10 -136 37 -192 49 -102 167 -113
206 -20 21 52 89 63 227 40 l88 -15 207 85 c114 47 216 90 227 94 63 28 105
45 245 101 243 98 264 110 555 305 268 181 302 200 320 185 18 -15 19 -49 2
-70 -14 -17 -74 -71 -162 -145 -91 -76 -133 -116 -293 -274 -82 -80 -188 -182
-237 -226 -96 -86 -392 -378 -465 -460 -113 -125 -200 -265 -187 -300 12 -29
55 -16 119 36 143 114 273 235 503 465 99 99 212 208 250 241 164 141 485 379
771 571 167 112 154 109 294 81 114 -23 165 -9 222 62 37 46 75 69 113 69 21
0 27 -6 32 -32 4 -18 7 -35 6 -38 0 -3 -4 -34 -7 -69 -4 -35 -13 -89 -20 -120
-30 -134 19 -177 219 -196 159 -15 175 -33 105 -115 -17 -19 -34 -48 -39 -65
-96 -334 -188 -637 -208 -685 -3 -8 -7 -19 -9 -25 -66 -216 -83 -302 -82 -426
0 -150 33 -268 81 -290 28 -13 69 4 111 46 l25 25 -24 43 c-13 23 -36 74 -51
112 -23 62 -25 79 -20 150 3 44 12 101 20 128 8 26 12 47 10 47 -2 0 2 17 10
37 23 65 34 104 75 263 76 291 248 692 342 794 69 75 83 67 171 -99 39 -71 86
-150 106 -175 77 -95 98 -104 222 -102 110 3 136 -6 170 -54 42 -60 58 -74 77
-67 45 16 58 45 69 148 4 48 21 83 44 90 47 15 232 -105 304 -197 44 -56 112
-186 139 -265 22 -66 89 -155 203 -269 101 -102 168 -147 211 -142 24 2 29 8
31 36 3 34 -15 57 -113 137 -50 41 -108 124 -197 282 -72 126 -100 193 -148
348 -12 39 -37 110 -56 159 -19 48 -33 96 -31 105 4 12 7 11 12 -8 8 -23 8
-23 21 8 18 44 45 40 110 -15 l54 -46 25 30 c14 17 51 43 81 58 48 24 63 26
132 22 80 -5 135 -26 179 -67 37 -35 189 -142 348 -245 133 -86 154 -97 184
-92 41 6 87 48 94 84 13 67 -33 100 -260 190 -94 37 -196 83 -228 102 -104 62
-236 213 -251 285 -3 17 2 60 11 95 24 94 21 144 -15 228 l-31 74 49 82 c54
89 114 231 132 311 26 112 13 280 -35 450 -27 97 -86 267 -105 305 -39 74
-142 150 -203 150 -49 0 -71 -54 -43 -108 20 -37 51 -64 122 -102 34 -18 69
-46 78 -62 18 -29 31 -93 41 -205 4 -37 9 -76 11 -87 2 -11 6 -38 9 -61 3 -22
11 -69 16 -105 11 -69 13 -186 4 -235 -15 -84 -51 -153 -109 -209 -36 -35 -41
-37 -51 -21 -38 64 -73 111 -109 146 -41 40 -150 110 -193 123 -13 4 -62 46
-110 92 -302 293 -482 448 -568 490 -45 21 -214 30 -295 14 -25 -4 -73 -10
-107 -13 -51 -4 -61 -3 -56 9 3 8 9 14 15 14 21 0 -11 25 -205 161 -297 209
-306 216 -502 346 -567 378 -997 628 -1276 743 -81 33 -284 94 -381 114 -13 3
-32 7 -43 10 -11 3 -81 18 -155 34 -120 27 -187 38 -325 57 -70 9 -218 12
-271 5z m2471 -1590 c105 -17 238 -38 296 -47 l106 -16 -36 -39 c-72 -80 -188
-158 -268 -181 -55 -15 -186 -14 -237 3 -64 21 -101 105 -132 296 l-5 31 43
-8 c24 -5 129 -22 233 -39z"/>
</g>
</svg>
