<?xml version="1.0" encoding="UTF-8"?>
<svg enable-background="new 0 0 185 40" version="1.1" viewBox="0 0 185 40" xml:space="preserve" xmlns="http://www.w3.org/2000/svg" xmlns:xlink="http://www.w3.org/1999/xlink">
<style type="text/css">
	.st0{fill:#EF3124;}
	.st1{clip-path:url(#a);fill:#EF3124;}
</style>
<polygon class="st0" points="178.4 9 172.1 16.1 172.1 9 167.5 9 167.5 26.9 172.1 26.9 172.1 19.4 178.8 26.9 184.7 26.9 184.7 26.9 176.4 17.5 184.1 9"/>
<polygon class="st0" points="159.5 15.7 153.1 15.7 153.1 9 148.6 9 148.6 26.9 153.1 26.9 153.1 19.8 159.5 19.8 159.5 26.9 164 26.9 164 9 159.5 9"/>
	<defs>
		<rect id="b" x="-.1" y="1.7" width="184.8" height="37.9"/>
	</defs>
	<clipPath id="a">
		<use xlink:href="#b"/>
	</clipPath>
	<path class="st1" d="M27,18.7c-0.1,3.3-0.5,4-2.4,4v4.2h0.7c4.7,0,5.8-2.4,6-7.8l0.2-5.9h4.4v13.7h4.6V9H27.3L27,18.7z"/>
	<path class="st1" d="m51.7 14.4h-3.3v-5.4h-4.6v17.8h7.9c5 0 6.8-3.2 6.8-6.3 0-3.8-2.5-6.1-6.8-6.1m-0.3 8.5h-2.9v-4.5h2.9c1.6 0 2.5 0.7 2.5 2.2 0 1.6-0.9 2.3-2.5 2.3"/>
	<path class="st1" d="m73.4 8.6v-6.6h-4.6v6.6c-5.2 0.4-8.7 4.2-8.7 9.3 0 5.2 3.5 8.9 8.7 9.3v6.8h4.6v-6.7c5.2-0.4 8.7-4.2 8.7-9.3s-3.5-9-8.7-9.4m-4.6 14.4c-2.5-0.3-4.1-2.3-4.1-5s1.6-4.7 4.1-5v10zm4.6 0v-10.1c2.5 0.3 4.1 2.3 4.1 5s-1.6 4.7-4.1 5.1"/>
	<path class="st1" d="m99.2 21.4v-6c0-4.4-2.8-7.1-7.5-7.1-4.8 0-7.4 2.9-7.6 6h4.6c0.2-0.7 0.9-1.8 3-1.8 1.8 0 2.9 0.8 2.9 3h-4.5c-4.1 0-6.5 2.1-6.5 5.7 0 3.7 2.6 6.2 6.4 6.2 2.8 0 4.3-1.3 5-2.3 0.6 1.2 1.9 1.9 3.7 1.9h1.6v-4.1c-0.7-0.2-1.1-0.5-1.1-1.5m-4.5-1.2c0 2.1-1.5 3.2-3.4 3.2-1.6 0-2.9-0.6-2.9-2.4 0-1.7 1.4-2 2.7-2h3.6v1.2z"/>
	<path class="st1" d="m118.8 11.6h-5.1v-5h11.8v-4.6h-16.6v24.9h9.9c5.5 0 8.6-2.7 8.6-7.7 0-4.8-3.1-7.6-8.6-7.6m-0.2 10.8h-4.9v-6.5h4.9c2.5 0 4 1.2 4 3.2-0.1 2.2-1.5 3.3-4 3.3"/>
	<path class="st1" d="m144.9 21.4v-6c0-4.4-2.8-7.1-7.5-7.1-4.8 0-7.4 2.9-7.6 6h4.6c0.2-0.7 0.9-1.8 3-1.8 1.8 0 2.9 0.8 2.9 3h-4.5c-4.1 0-6.5 2.1-6.5 5.7 0 3.7 2.6 6.2 6.4 6.2 2.8 0 4.3-1.3 5-2.3 0.6 1.2 1.9 1.9 3.7 1.9h1.6v-4.1c-0.8-0.2-1.1-0.5-1.1-1.5m-4.6-1.2c0 2.1-1.5 3.2-3.4 3.2-1.6 0-2.9-0.6-2.9-2.4 0-1.7 1.4-2 2.7-2h3.6v1.2z"/>
	<rect class="st1" x="-.1" y="34.5" width="24.4" height="5.1"/>
	<path class="st1" d="m16.5 5.4c-0.7-2.1-1.5-3.7-4.2-3.7s-3.6 1.6-4.3 3.7l-7.6 21.5h5l1.7-5.1h9.6l1.6 5.1h5.3l-7.1-21.5zm-7.9 12.1 3.4-10.2h0.1l3.2 10.2h-6.7z"/>
</svg>
