<svg width="185" height="40" fill="none" xmlns="http://www.w3.org/2000/svg"><path d="M39.4.9H.4v39h39V.9z" fill="#000"/><path d="M38.2 2H1.5v36.7h36.7V2z" fill="#FFED00"/><path d="M3.4 31.3l4.8 4.9 11.2-11.4L31 36.4l4.9-4.8-11.5-11.5 2.2-2.1v-4.6l1.4-1.2v3.6l1.8 1.5 5.3-5.3 1.7 1.3c1-3.7-4.8-12.2-9.7-7.5l-5.6 5.6 1.2 1.4-2.9 2.8-2.8-2.7 1.5-1.3-6.2-6c-4.6-3.8-9.4 2-9.6 7.7l1.7-1.4 5.2 5.6 1.9-1.5v-3.4l1.2.9V18l2.3 2.3-11.6 11zM173.5 16.9h3.8v-4.4h3.5v4.4h3.8V6h-3.8v3.8h-3.5V6h-3.8v10.9zm-23.2-7.8c.8-.5 1.9-.9 2.8-.9.5 0 1.5.1 1.5 1s-.9.9-1.3.9h-1.9v2.4h1.7c.5 0 1.6.1 1.6.9 0 .4-.2 1.1-1.6 1.1-1.3 0-2.2-.4-3.3-1l-1 2.6c2.1 1.2 4 1.3 4.9 1.3 4.4 0 4.9-2.5 4.9-3.4 0-1.2-.7-2.3-2.2-2.7 1-.4 1.6-1.4 1.6-2.5 0-2.6-2.7-3.1-4.3-3.1-1.5 0-3.3.4-4.5 1.1l1.1 2.3zM142 4.6c1.7 0 3.5-.7 4.3-2.5l-2.5-.9c-.3 1.3-1.4 1.3-1.8 1.3-.4 0-1.5-.1-1.8-1.3l-2.5.8c.7 1.9 2.5 2.6 4.3 2.6zM136 6v10.9h3.7l3.8-6v6h3.8V6h-3.7l-3.8 5.9V6H136zm-25.4 8.5v-6c-1.3 0-2.6.9-2.6 3s1.3 3.1 2.6 3zm3.3-6v6c1.3 0 2.6-.9 2.6-3s-1.3-3-2.6-3zm-3.5 13.1V17c-2.3 0-6-.9-6-5.6 0-4.7 3.7-5.6 6-5.6V1.1h3.8v4.8c2.3 0 6 .9 6 5.6 0 4.7-3.8 5.6-6 5.6v4.6h-3.8v-.1zm-17-7.1v-6c-1.3 0-2.6.9-2.6 3s1.3 3.1 2.6 3zm3.3-6v6c1.3 0 2.6-.9 2.6-3s-1.3-3-2.6-3zm-3.6 13.1V17c-2.3 0-6-.9-6-5.6 0-4.7 3.7-5.6 6-5.6V1.1H97v4.8c2.3 0 6 .9 6 5.6 0 4.7-3.8 5.6-6 5.6v4.6h-3.9v-.1zm-13.2-17c1.7 0 3.5-.7 4.3-2.5l-2.5-.9c-.3 1.3-1.4 1.3-1.8 1.3-.4 0-1.5-.1-1.8-1.3l-2.5.8c.8 1.9 2.6 2.6 4.3 2.6zm-6 1.4v10.9h3.7l3.8-6v6h3.8V6h-3.7l-3.8 5.9V6h-3.8zM50.5 4.3V8h1.4c2 0 2.1-1.2 2.1-1.9 0-.8-.3-1.8-2.1-1.8h-1.4zm-4.1 12.6V.8h6.5c4.4 0 5.6 3.1 5.6 5.3 0 2.2-1.3 5.3-5.6 5.3h-2.3v5.5h-4.2zM133.6 6v10.9h-3.8v-1.2c-.7 1.1-2 1.6-3.3 1.6-3.2 0-5.4-2.7-5.4-5.8 0-3.1 2.2-5.8 5.4-5.8 1.2 0 2.6.5 3.3 1.4V6h3.8zm-6.1 3c-1.6 0-2.5 1.1-2.5 2.5s.9 2.5 2.5 2.5c1.5 0 2.5-1.1 2.5-2.5-.1-1.4-1-2.5-2.5-2.5zm-56-3v10.9h-3.8v-1.2c-.7 1.1-2 1.6-3.3 1.6-3.2 0-5.4-2.7-5.4-5.8 0-3.1 2.2-5.8 5.4-5.8 1.2 0 2.6.5 3.4 1.4V6h3.7zm-6.1 3c-1.6 0-2.5 1.1-2.5 2.5s.9 2.5 2.5 2.5c1.5 0 2.5-1.1 2.5-2.5S66.9 9 65.4 9zm106.2 2.9v.4h-8c0 1.6.8 2.4 2.4 2.4.8 0 1.4-.3 1.8-1h3.7c-.6 2.6-3 3.8-5.5 3.8-3.6 0-6.2-2-6.2-5.8 0-3.7 2.5-5.8 6-5.8 3.6-.1 5.8 2.3 5.8 6zm-8-1.8h4.4c-.2-1-1.1-1.7-2.2-1.7-1-.1-2 .5-2.2 1.7zM51.4 36.4h.7c.7 0 1.3 0 1.7-.1.4-.1.8-.2 1.1-.5.3-.3.6-.7.7-1.3.1-.5.1-1-.1-1.2-.2-.3-.5-.4-.9-.5-.4-.1-1-.1-1.7-.1h-.7l-.8 3.7zm9.1-12.8l-.8 3.6h-6.5l-.5 2.2h2.4c1.2 0 2.2.2 3 .6.8.4 1.3 1 1.6 1.8.3.8.3 1.8 0 2.9-.2 1.1-.7 2-1.3 2.8-.7.8-1.5 1.4-2.4 1.7-1 .4-2 .6-3.2.6h-6.4l3.4-16.2h10.7zM70.6 28.6l-2.9 5.2h3.5l-.6-5.2zM65.9 37l-1.7 2.8h-4.5l9.7-16.2H74l2.7 16.2h-4.5l-.5-2.8h-5.8zM90.8 29.9l1.4-6.3h4.2l-3.5 16.2h-4.2l1.4-6.6h-6l-1.4 6.6h-4.3l3.5-16.2h4.2l-1.3 6.3h6zM109 23.6h5.2l-8 7.7 5.2 8.5h-5.5l-3.9-7h-.1l-1.5 7h-4.2l3.5-16.2h4.2l-1.4 6.7 6.5-6.7z" fill="#000"/></svg>
