<svg width="138" height="43" fill="none" xmlns="http://www.w3.org/2000/svg"><path d="M41.28 6.805c2.737 0 4.456 1.789 4.456 4.261 0 2.574-1.719 4.057-4.456 4.057h-5.446v4.209h-2.32V6.805h7.766zm.133 6.248c1.201 0 1.954-.833 1.954-1.954 0-1.234-.753-2.222-2.087-2.222h-5.446v4.175h5.579v.001zM54.337 19.681c-3.99 0-7.297-2.654-7.297-6.629 0-3.925 3.307-6.63 7.297-6.63 4.008 0 7.262 2.706 7.262 6.63 0 3.975-3.254 6.629-7.262 6.629zm0-11.12c-2.907 0-4.895 1.969-4.895 4.491 0 2.588 1.904 4.507 4.895 4.507 2.972 0 4.857-1.934 4.857-4.507 0-2.522-1.884-4.491-4.857-4.491zM71.219 19.666c-4.192 0-7.348-2.656-7.348-6.63 0-3.908 3.204-6.614 7.348-6.614 2.472 0 4.24.704 5.828 1.869l-1.239 1.84c-1.15-.888-2.602-1.537-4.521-1.537-3.059 0-4.962 1.936-4.962 4.442 0 2.589 1.921 4.456 4.994 4.456 1.919 0 3.439-.617 4.591-1.5l1.236 1.836c-1.586 1.169-3.456 1.838-5.927 1.838zM97.202 16.291l-1.435 3.041h-2.506l6.095-12.526h2.437l6.112 12.526H105.4l-1.434-3.041h-6.764zm.968-2.037h4.827l-2.407-5.077-2.42 5.077zM120.193 19.331v-5.359h-8.198v5.359h-2.322V6.805h2.322v5.112h8.198V6.805h2.323v12.526h-2.323zM125.953 19.331V6.805h2.324v5.846l6.292-5.846h2.854l-6.477 6.031 6.745 6.495h-3.122l-6.292-6.079v6.079h-2.324zM87.526 11.397h-5.439V8.756h8.961V6.795H79.765V19.31h7.76c2.735 0 4.618-1.487 4.618-3.956.001-2.57-1.882-3.957-4.617-3.957zm.133 5.843h-5.571v-3.771h5.571c1.457 0 2.284.767 2.284 1.885-.001 1.234-.658 1.886-2.284 1.886zM77.299 40.103v.132c0 .703-.205 1.274-.617 1.708-.411.437-.958.655-1.642.655-.616 0-1.132-.191-1.549-.571-.485-.44-.727-1.018-.727-1.729 0-.703.242-1.275.727-1.717.424-.388.953-.583 1.588-.583.765 0 1.4.335 1.903 1.005l-.637.394c-.353-.419-.789-.629-1.308-.629-.459 0-.837.144-1.134.435-.297.291-.445.657-.445 1.098 0 .454.145.825.434 1.11.289.285.671.43 1.145.43.71 0 1.183-.323 1.415-.97h-1.56v-.77h2.407v.002zM82.35 42.475h-.775l-.906-1.588h-1.723v1.588h-.674v-4.331h2.797c.368 0 .66.124.877.373.218.249.327.583.327 1 0 .718-.286 1.157-.859 1.316l.936 1.642zm-1.384-2.358c.409 0 .613-.196.613-.584 0-.413-.217-.619-.653-.619h-1.98v1.203h2.02zM87.652 40.299c0 .708-.242 1.284-.727 1.729-.412.38-.93.571-1.549.571-.619 0-1.138-.191-1.554-.571-.485-.44-.727-1.017-.727-1.729 0-.703.244-1.275.732-1.717.428-.389.945-.583 1.549-.583.601 0 1.116.194 1.544.583.488.445.732 1.017.732 1.717zm-.701.003c0-.447-.147-.813-.44-1.102-.294-.287-.672-.431-1.136-.431-.466 0-.847.144-1.143.435-.296.291-.443.657-.443 1.098 0 .459.144.83.435 1.114.29.284.674.426 1.152.426.474 0 .856-.142 1.144-.426.286-.284.431-.655.431-1.114zM92.616 41.05c0 .455-.182.827-.546 1.115-.364.289-.853.433-1.465.433-.615 0-1.106-.144-1.47-.433-.364-.289-.547-.66-.547-1.115v-2.906h.674v2.739c0 .639.448.959 1.343.959.892 0 1.338-.319 1.338-.959v-2.739h.674v2.906h-.001zM96.556 38.144c.368 0 .66.124.877.373.218.249.327.583.327 1.002 0 .436-.113.773-.341 1.011-.227.239-.551.357-.976.357h-2.01v1.588h-.674v-4.331h2.797zm-.103 1.973c.408 0 .613-.196.613-.584 0-.413-.217-.619-.652-.619h-1.981v1.203h2.02zM3.768 39.214c-.451-.292-.943-.438-1.472-.438-.772 0-1.157.17-1.157.512 0 .201.144.333.434.394.394.043.79.087 1.184.134.568.07.972.196 1.213.38.266.201.4.507.4.92 0 .464-.167.823-.499 1.076-.332.253-.814.38-1.443.38-.89 0-1.602-.254-2.135-.76l.366-.598c.476.414 1.061.622 1.754.622.39 0 .693-.062.907-.187.214-.124.32-.289.32-.495 0-.228-.132-.392-.394-.485-.146-.052-.374-.086-.682-.105-.48-.029-.775-.05-.884-.063-.428-.052-.743-.167-.946-.346-.203-.177-.304-.437-.304-.778 0-.412.162-.739.488-.982.325-.24.78-.361 1.366-.361.782 0 1.414.21 1.899.632l-.415.548zM9.559 40.299c0 .708-.243 1.284-.726 1.729-.413.38-.93.571-1.549.571-.62 0-1.138-.191-1.556-.571-.485-.44-.727-1.017-.727-1.729 0-.703.244-1.275.733-1.717.428-.389.944-.583 1.549-.583.601 0 1.116.194 1.543.583.489.445.733 1.017.733 1.717zm-.701.003c0-.447-.146-.813-.44-1.102-.294-.287-.672-.431-1.135-.431-.467 0-.848.144-1.144.435-.295.291-.443.657-.443 1.098 0 .459.145.83.435 1.114.291.284.674.426 1.152.426.474 0 .855-.142 1.144-.426.287-.284.431-.655.431-1.114zM14.677 39.187l-.62.266c-.371-.46-.843-.691-1.414-.691-.492 0-.885.141-1.178.424-.294.284-.44.651-.44 1.102 0 .464.146.837.44 1.117.292.282.689.423 1.189.423.578 0 1.05-.235 1.415-.706l.58.387c-.51.717-1.181 1.076-2.01 1.076-.691 0-1.249-.215-1.676-.645-.426-.428-.639-.978-.639-1.648 0-.7.243-1.269.727-1.71.42-.383.937-.576 1.548-.576.859 0 1.552.394 2.078 1.181zM16.301 38.144h-.674v4.331h.674v-4.331zM21.215 42.475h-3.729v-4.332h3.599v.77H18.16v.928h2.035v.77H18.16v1.094h3.055v.77zM25.621 38.913h-1.657v3.562h-.674v-3.562h-1.657v-.769h3.988v.769zM30.084 42.475h-3.729v-4.332h3.599v.77h-2.925v.928h2.036v.77h-2.036v1.094h3.055v.77zM36.971 40.103v.132c0 .703-.205 1.274-.616 1.708-.412.437-.958.655-1.642.655-.615 0-1.132-.191-1.549-.571-.485-.44-.726-1.018-.726-1.729 0-.703.242-1.275.726-1.717.425-.388.954-.583 1.588-.583.766 0 1.401.335 1.904 1.005l-.638.394c-.353-.419-.789-.629-1.308-.629-.459 0-.837.144-1.133.435-.297.291-.445.657-.445 1.098 0 .454.144.825.434 1.11.29.285.671.43 1.145.43.711 0 1.183-.323 1.416-.97h-1.56v-.77h2.404v.002zM41.674 42.475h-3.728v-4.332h3.598v.77H38.62v.928h2.034v.77H38.62v1.094h3.054v.77zM46.582 42.475h-1.005l-2.357-3.611v3.611h-.673v-4.332h1.009l2.352 3.606v-3.606h.674v4.332zM51.496 42.475h-3.729v-4.332h3.599v.77h-2.925v.928h2.035v.77h-2.035v1.094h3.055v.77zM56.445 42.475h-.775l-.905-1.588h-1.723v1.588h-.674v-4.331h2.797c.367 0 .66.124.877.373.217.249.326.583.326 1 0 .718-.286 1.157-.858 1.316l.935 1.642zm-1.384-2.358c.409 0 .614-.196.614-.584 0-.413-.217-.619-.653-.619h-1.98v1.203h2.019zM61.493 42.475h-.743l-.396-.928h-2.336l-.396.928h-.742l1.887-4.331h.84l1.886 4.331zm-1.482-1.699l-.821-1.918-.827 1.918h1.648zM65.512 42.475h-3.35v-4.332h.674v3.562h2.676v.77zM69.972 42.475h-3.727v-4.332h3.599v.77h-2.925v.928h2.034v.77h-2.034v1.094h3.053v.77z" fill="#000"/><path d="M25.139.442H.004v12.82h25.135V.442z" fill="#E9041E"/><path d="M25.139 13.011H.004v12.566h25.135V13.011z" fill="#000"/><path d="M20.748 12.245H4.396v1.53h16.352v-1.53z" fill="#fff"/></svg>
